<svg width="34" height="49" viewBox="0 0 34 49" fill="none" xmlns="http://www.w3.org/2000/svg">
<path d="M22.3676 25.5751V6.84326C22.3676 5.01768 21.5601 3.30074 20.0983 2.00558C18.6569 0.729593 16.66 0 14.6209 0C10.3715 0 6.91154 3.07068 6.91154 6.84432V25.2673C2.62361 27.5349 0 31.6025 0 36.076C0 43.079 6.44755 48.7762 14.369 48.7762C22.2736 48.7762 28.7079 43.079 28.7079 36.076C28.6958 31.8496 26.294 27.8971 22.3676 25.5751ZM14.3642 45.9334C8.2131 45.9334 3.20691 41.5101 3.20691 36.0749C3.20691 32.3758 5.51718 29.0431 9.23989 27.372L10.1184 26.9779V6.84326C10.1184 4.63744 12.1371 2.83955 14.6124 2.83955C15.8031 2.83955 16.9745 3.26666 17.823 4.01542C18.6919 4.78442 19.1474 5.76112 19.1474 6.84219V27.1802L19.9513 27.5903C23.363 29.3243 25.4817 32.5803 25.4817 36.0749C25.4817 41.5122 20.4972 45.9334 14.3642 45.9334Z" fill="white"/>
<path d="M16.1647 30.7132V13.4128C16.1647 12.6278 15.4464 11.9919 14.5582 11.9919C13.6688 11.9919 12.9506 12.6278 12.9506 13.4128V30.6014C10.0751 31.1701 7.92871 33.4281 7.92871 36.1399C7.92871 39.2734 10.809 41.82 14.357 41.82C17.9049 41.82 20.784 39.2734 20.784 36.1399C20.784 33.5581 18.8305 31.4087 16.1647 30.7132Z" fill="white"/>
<path d="M32.2775 10.8715H26.3855C25.4997 10.8715 24.7766 11.5073 24.7766 12.2912C24.7766 13.0741 25.4997 13.7121 26.3855 13.7121H32.2775C33.1645 13.7121 33.8839 13.0741 33.8839 12.2912C33.8839 11.5073 33.1657 10.8715 32.2775 10.8715Z" fill="white"/>
<path d="M32.2775 15.3662H26.3855C25.4997 15.3662 24.7766 16.0042 24.7766 16.786C24.7766 17.571 25.4997 18.2058 26.3855 18.2058H32.2775C33.1645 18.2058 33.8839 17.571 33.8839 16.786C33.8839 16.0042 33.1657 15.3662 32.2775 15.3662Z" fill="white"/>
<path d="M32.2775 19.863H26.3855C25.4997 19.863 24.7766 20.501 24.7766 21.2828C24.7766 22.0678 25.4997 22.7037 26.3855 22.7037H32.2775C33.1645 22.7037 33.8839 22.0678 33.8839 21.2828C33.8839 20.501 33.1657 19.863 32.2775 19.863Z" fill="white"/>
</svg>
