<?xml version="1.0" encoding="UTF-8" standalone="no"?>
<svg width="60px" height="60px" viewBox="0 0 60 60" version="1.1" xmlns="http://www.w3.org/2000/svg" xmlns:xlink="http://www.w3.org/1999/xlink">
    <!-- Generator: Sketch 39.1 (31720) - http://www.bohemiancoding.com/sketch -->
    <title>background</title>
    <desc>Created with Sketch.</desc>
    <defs></defs>
    <g id="Page-1" stroke="none" stroke-width="1" fill="none" fill-rule="evenodd" fill-opacity="0.1">
        <g id="background" fill="#5000FF">
            <path d="M26.4894997,41.6188957 L23.0879886,41.6188957 C22.4878339,41.6188957 22,41.1303106 22,40.5298177 L22,19.4697061 C22,18.8696894 22.4878339,18.3811043 23.0879886,18.3811043 L29.785829,18.3811043 C31.8175977,18.3811043 38,18.3811043 38,25.7141661 L38,26.2856106 C38,33.6186724 31.8175977,33.6186724 29.785829,33.6186724 L27.7140817,33.6186724 C27.638408,33.6186724 27.5779642,33.6796265 27.5779642,33.7553429 L27.5779642,40.5298177 C27.5779642,41.1303106 27.0896544,41.6188957 26.4894997,41.6188957 L26.4894997,41.6188957 Z M23.0879886,19.3335118 C23.0127908,19.3335118 22.951871,19.3944659 22.951871,19.4697061 L22.951871,40.5298177 C22.951871,40.6050579 23.0127908,40.6664882 23.0879886,40.6664882 L26.4894997,40.6664882 C26.5651734,40.6664882 26.6260932,40.6050579 26.6260932,40.5298177 L26.6260932,33.7553429 C26.6260932,33.1548499 27.1139271,32.6662649 27.7140817,32.6662649 L29.785829,32.6662649 C33.1673508,32.6662649 37.048129,31.9410065 37.048129,26.2856106 L37.048129,25.7141661 C37.048129,21.3011858 34.8083765,19.3335118 29.785829,19.3335118 L23.0879886,19.3335118 L23.0879886,19.3335118 Z M29.9857219,29.6185608 L27.7140817,29.6185608 C27.1139271,29.6185608 26.6260932,29.1304519 26.6260932,28.529959 L26.6260932,23.4698178 C26.6260932,22.8693248 27.1139271,22.3807397 27.7140817,22.3807397 L29.9857219,22.3807397 C32.1026831,22.3807397 33.3172705,23.647918 33.3172705,25.8570272 L33.3172705,26.1427495 C33.3172705,28.3518588 32.1026831,29.6185608 29.9857219,29.6185608 L29.9857219,29.6185608 Z M27.7140817,23.3331473 C27.638408,23.3331473 27.5779642,23.3945776 27.5779642,23.4698178 L27.5779642,28.529959 C27.5779642,28.6051992 27.638408,28.6661533 27.7140817,28.6661533 L29.9857219,28.6661533 C31.586769,28.6661533 32.3653995,27.8408921 32.3653995,26.1427495 L32.3653995,25.8570272 C32.3653995,24.1588846 31.586769,23.3331473 29.9857219,23.3331473 L27.7140817,23.3331473 L27.7140817,23.3331473 Z" id="Fill-1" transform="translate(30.000000, 30.000000) rotate(-45.000000) translate(-30.000000, -30.000000) "></path>
            <path d="M56.4894997,71.6188957 L53.0879886,71.6188957 C52.4878339,71.6188957 52,71.1303106 52,70.5298177 L52,49.4697061 C52,48.8696894 52.4878339,48.3811043 53.0879886,48.3811043 L59.785829,48.3811043 C61.8175977,48.3811043 68,48.3811043 68,55.7141661 L68,56.2856106 C68,63.6186724 61.8175977,63.6186724 59.785829,63.6186724 L57.7140817,63.6186724 C57.638408,63.6186724 57.5779642,63.6796265 57.5779642,63.7553429 L57.5779642,70.5298177 C57.5779642,71.1303106 57.0896544,71.6188957 56.4894997,71.6188957 L56.4894997,71.6188957 Z M53.0879886,49.3335118 C53.0127908,49.3335118 52.951871,49.3944659 52.951871,49.4697061 L52.951871,70.5298177 C52.951871,70.6050579 53.0127908,70.6664882 53.0879886,70.6664882 L56.4894997,70.6664882 C56.5651734,70.6664882 56.6260932,70.6050579 56.6260932,70.5298177 L56.6260932,63.7553429 C56.6260932,63.1548499 57.1139271,62.6662649 57.7140817,62.6662649 L59.785829,62.6662649 C63.1673508,62.6662649 67.048129,61.9410065 67.048129,56.2856106 L67.048129,55.7141661 C67.048129,51.3011858 64.8083765,49.3335118 59.785829,49.3335118 L53.0879886,49.3335118 L53.0879886,49.3335118 Z M59.9857219,59.6185608 L57.7140817,59.6185608 C57.1139271,59.6185608 56.6260932,59.1304519 56.6260932,58.529959 L56.6260932,53.4698178 C56.6260932,52.8693248 57.1139271,52.3807397 57.7140817,52.3807397 L59.9857219,52.3807397 C62.1026831,52.3807397 63.3172705,53.647918 63.3172705,55.8570272 L63.3172705,56.1427495 C63.3172705,58.3518588 62.1026831,59.6185608 59.9857219,59.6185608 L59.9857219,59.6185608 Z M57.7140817,53.3331473 C57.638408,53.3331473 57.5779642,53.3945776 57.5779642,53.4698178 L57.5779642,58.529959 C57.5779642,58.6051992 57.638408,58.6661533 57.7140817,58.6661533 L59.9857219,58.6661533 C61.586769,58.6661533 62.3653995,57.8408921 62.3653995,56.1427495 L62.3653995,55.8570272 C62.3653995,54.1588846 61.586769,53.3331473 59.9857219,53.3331473 L57.7140817,53.3331473 L57.7140817,53.3331473 Z" id="Fill-1" transform="translate(60.000000, 60.000000) rotate(-45.000000) translate(-60.000000, -60.000000) "></path>
            <path d="M-3.51050033,71.6188957 L-6.91201142,71.6188957 C-7.5121661,71.6188957 -8,71.1303106 -8,70.5298177 L-8,49.4697061 C-8,48.8696894 -7.5121661,48.3811043 -6.91201142,48.3811043 L-0.21417098,48.3811043 C1.81759772,48.3811043 8,48.3811043 8,55.7141661 L8,56.2856106 C8,63.6186724 1.81759772,63.6186724 -0.21417098,63.6186724 L-2.28591826,63.6186724 C-2.361592,63.6186724 -2.42203581,63.6796265 -2.42203581,63.7553429 L-2.42203581,70.5298177 C-2.42203581,71.1303106 -2.91034565,71.6188957 -3.51050033,71.6188957 L-3.51050033,71.6188957 Z M-6.91201142,49.3335118 C-6.98720923,49.3335118 -7.04812898,49.3944659 -7.04812898,49.4697061 L-7.04812898,70.5298177 C-7.04812898,70.6050579 -6.98720923,70.6664882 -6.91201142,70.6664882 L-3.51050033,70.6664882 C-3.43482658,70.6664882 -3.37390684,70.6050579 -3.37390684,70.5298177 L-3.37390684,63.7553429 C-3.37390684,63.1548499 -2.88607294,62.6662649 -2.28591826,62.6662649 L-0.21417098,62.6662649 C3.16735082,62.6662649 7.04812898,61.9410065 7.04812898,56.2856106 L7.04812898,55.7141661 C7.04812898,51.3011858 4.80837646,49.3335118 -0.21417098,49.3335118 L-6.91201142,49.3335118 L-6.91201142,49.3335118 Z M-0.0142780653,59.6185608 L-2.28591826,59.6185608 C-2.88607294,59.6185608 -3.37390684,59.1304519 -3.37390684,58.529959 L-3.37390684,53.4698178 C-3.37390684,52.8693248 -2.88607294,52.3807397 -2.28591826,52.3807397 L-0.0142780653,52.3807397 C2.10268309,52.3807397 3.31727051,53.647918 3.31727051,55.8570272 L3.31727051,56.1427495 C3.31727051,58.3518588 2.10268309,59.6185608 -0.0142780653,59.6185608 L-0.0142780653,59.6185608 Z M-2.28591826,53.3331473 C-2.361592,53.3331473 -2.42203581,53.3945776 -2.42203581,53.4698178 L-2.42203581,58.529959 C-2.42203581,58.6051992 -2.361592,58.6661533 -2.28591826,58.6661533 L-0.0142780653,58.6661533 C1.58676899,58.6661533 2.36539949,57.8408921 2.36539949,56.1427495 L2.36539949,55.8570272 C2.36539949,54.1588846 1.58676899,53.3331473 -0.0142780653,53.3331473 L-2.28591826,53.3331473 L-2.28591826,53.3331473 Z" id="Fill-1" transform="translate(0.000000, 60.000000) rotate(-45.000000) translate(-0.000000, -60.000000) "></path>
            <path d="M56.4894997,11.6188957 L53.0879886,11.6188957 C52.4878339,11.6188957 52,11.1303106 52,10.5298177 L52,-10.5302939 C52,-11.1303106 52.4878339,-11.6188957 53.0879886,-11.6188957 L59.785829,-11.6188957 C61.8175977,-11.6188957 68,-11.6188957 68,-4.28583389 L68,-3.71438937 C68,3.61867242 61.8175977,3.61867242 59.785829,3.61867242 L57.7140817,3.61867242 C57.638408,3.61867242 57.5779642,3.6796265 57.5779642,3.7553429 L57.5779642,10.5298177 C57.5779642,11.1303106 57.0896544,11.6188957 56.4894997,11.6188957 L56.4894997,11.6188957 Z M53.0879886,-10.6664882 C53.0127908,-10.6664882 52.951871,-10.6055341 52.951871,-10.5302939 L52.951871,10.5298177 C52.951871,10.6050579 53.0127908,10.6664882 53.0879886,10.6664882 L56.4894997,10.6664882 C56.5651734,10.6664882 56.6260932,10.6050579 56.6260932,10.5298177 L56.6260932,3.7553429 C56.6260932,3.15484995 57.1139271,2.66626488 57.7140817,2.66626488 L59.785829,2.66626488 C63.1673508,2.66626488 67.048129,1.94100655 67.048129,-3.71438937 L67.048129,-4.28583389 C67.048129,-8.69881419 64.8083765,-10.6664882 59.785829,-10.6664882 L53.0879886,-10.6664882 L53.0879886,-10.6664882 Z M59.9857219,-0.381439216 L57.7140817,-0.381439216 C57.1139271,-0.381439216 56.6260932,-0.869548076 56.6260932,-1.47004103 L56.6260932,-6.53018224 C56.6260932,-7.13067519 57.1139271,-7.61926025 57.7140817,-7.61926025 L59.9857219,-7.61926025 C62.1026831,-7.61926025 63.3172705,-6.35208203 63.3172705,-4.14297276 L63.3172705,-3.8572505 C63.3172705,-1.64814123 62.1026831,-0.381439216 59.9857219,-0.381439216 L59.9857219,-0.381439216 Z M57.7140817,-6.66685272 C57.638408,-6.66685272 57.5779642,-6.60542244 57.5779642,-6.53018224 L57.5779642,-1.47004103 C57.5779642,-1.39480083 57.638408,-1.33384675 57.7140817,-1.33384675 L59.9857219,-1.33384675 C61.586769,-1.33384675 62.3653995,-2.15910787 62.3653995,-3.8572505 L62.3653995,-4.14297276 C62.3653995,-5.84111539 61.586769,-6.66685272 59.9857219,-6.66685272 L57.7140817,-6.66685272 L57.7140817,-6.66685272 Z" id="Fill-1" transform="translate(60.000000, 0.000000) rotate(-45.000000) translate(-60.000000, -0.000000) "></path>
            <path d="M-3.51050033,11.6188957 L-6.91201142,11.6188957 C-7.5121661,11.6188957 -8,11.1303106 -8,10.5298177 L-8,-10.5302939 C-8,-11.1303106 -7.5121661,-11.6188957 -6.91201142,-11.6188957 L-0.21417098,-11.6188957 C1.81759772,-11.6188957 8,-11.6188957 8,-4.28583389 L8,-3.71438937 C8,3.61867242 1.81759772,3.61867242 -0.21417098,3.61867242 L-2.28591826,3.61867242 C-2.361592,3.61867242 -2.42203581,3.6796265 -2.42203581,3.7553429 L-2.42203581,10.5298177 C-2.42203581,11.1303106 -2.91034565,11.6188957 -3.51050033,11.6188957 L-3.51050033,11.6188957 Z M-6.91201142,-10.6664882 C-6.98720923,-10.6664882 -7.04812898,-10.6055341 -7.04812898,-10.5302939 L-7.04812898,10.5298177 C-7.04812898,10.6050579 -6.98720923,10.6664882 -6.91201142,10.6664882 L-3.51050033,10.6664882 C-3.43482658,10.6664882 -3.37390684,10.6050579 -3.37390684,10.5298177 L-3.37390684,3.7553429 C-3.37390684,3.15484995 -2.88607294,2.66626488 -2.28591826,2.66626488 L-0.21417098,2.66626488 C3.16735082,2.66626488 7.04812898,1.94100655 7.04812898,-3.71438937 L7.04812898,-4.28583389 C7.04812898,-8.69881419 4.80837646,-10.6664882 -0.21417098,-10.6664882 L-6.91201142,-10.6664882 L-6.91201142,-10.6664882 Z M-0.0142780653,-0.381439216 L-2.28591826,-0.381439216 C-2.88607294,-0.381439216 -3.37390684,-0.869548076 -3.37390684,-1.47004103 L-3.37390684,-6.53018224 C-3.37390684,-7.13067519 -2.88607294,-7.61926025 -2.28591826,-7.61926025 L-0.0142780653,-7.61926025 C2.10268309,-7.61926025 3.31727051,-6.35208203 3.31727051,-4.14297276 L3.31727051,-3.8572505 C3.31727051,-1.64814123 2.10268309,-0.381439216 -0.0142780653,-0.381439216 L-0.0142780653,-0.381439216 Z M-2.28591826,-6.66685272 C-2.361592,-6.66685272 -2.42203581,-6.60542244 -2.42203581,-6.53018224 L-2.42203581,-1.47004103 C-2.42203581,-1.39480083 -2.361592,-1.33384675 -2.28591826,-1.33384675 L-0.0142780653,-1.33384675 C1.58676899,-1.33384675 2.36539949,-2.15910787 2.36539949,-3.8572505 L2.36539949,-4.14297276 C2.36539949,-5.84111539 1.58676899,-6.66685272 -0.0142780653,-6.66685272 L-2.28591826,-6.66685272 L-2.28591826,-6.66685272 Z" id="Fill-1" transform="translate(0.000000, 0.000000) rotate(-45.000000) translate(-0.000000, -0.000000) "></path>
        </g>
    </g>
</svg>