<?xml version="1.0" encoding="UTF-8" standalone="no"?>
<svg width="119px" height="50px" viewBox="0 0 119 50" version="1.1" xmlns="http://www.w3.org/2000/svg" xmlns:xlink="http://www.w3.org/1999/xlink">
    <!-- Generator: Sketch 39.1 (31720) - http://www.bohemiancoding.com/sketch -->
    <title>logo</title>
    <desc>Created with Sketch.</desc>
    <defs></defs>
    <g id="Page-1" stroke="none" stroke-width="1" fill="none" fill-rule="evenodd">
        <g id="mobile" transform="translate(-19.000000, -20.000000)" fill="#5000FF">
            <g id="header" transform="translate(0.000000, -2.000000)">
                <g id="logo" transform="translate(19.000000, 22.000000)">
                    <g id="group">
                        <path d="M7.26538153,35.8780622 L2.17063253,35.8780622 C1.27172691,35.8780622 0.541054217,35.1462645 0.541054217,34.2468522 L0.541054217,2.70322961 C0.541054217,1.80453058 1.27172691,1.07273281 2.17063253,1.07273281 L12.2025904,1.07273281 C15.245753,1.07273281 24.5056928,1.07273281 24.5056928,12.0561188 L24.5056928,12.9120226 C24.5056928,23.8954086 15.245753,23.8954086 12.2025904,23.8954086 L9.09954819,23.8954086 C8.98620482,23.8954086 8.89567269,23.986705 8.89567269,24.1001122 L8.89567269,34.2468522 C8.89567269,35.1462645 8.16428715,35.8780622 7.26538153,35.8780622 L7.26538153,35.8780622 Z M2.17063253,2.4992392 C2.05800201,2.4992392 1.96675703,2.59053561 1.96675703,2.70322961 L1.96675703,34.2468522 C1.96675703,34.3595462 2.05800201,34.4515558 2.17063253,34.4515558 L7.26538153,34.4515558 C7.3787249,34.4515558 7.46996988,34.3595462 7.46996988,34.2468522 L7.46996988,24.1001122 C7.46996988,23.2006999 8.20064257,22.4689022 9.09954819,22.4689022 L12.2025904,22.4689022 C17.2673996,22.4689022 23.07999,21.3826175 23.07999,12.9120226 L23.07999,12.0561188 C23.07999,5.4464014 19.7253112,2.4992392 12.2025904,2.4992392 L2.17063253,2.4992392 L2.17063253,2.4992392 Z M12.501988,17.9040817 L9.09954819,17.9040817 C8.20064257,17.9040817 7.46996988,17.1729972 7.46996988,16.2735849 L7.46996988,8.69455645 C7.46996988,7.79514417 8.20064257,7.06334639 9.09954819,7.06334639 L12.501988,7.06334639 C15.672751,7.06334639 17.4919478,8.96131315 17.4919478,12.2700947 L17.4919478,12.6980466 C17.4919478,16.0068282 15.672751,17.9040817 12.501988,17.9040817 L12.501988,17.9040817 Z M9.09954819,8.48985278 C8.98620482,8.48985278 8.89567269,8.58186245 8.89567269,8.69455645 L8.89567269,16.2735849 C8.89567269,16.3862789 8.98620482,16.4775753 9.09954819,16.4775753 L12.501988,16.4775753 C14.9000201,16.4775753 16.066245,15.2415075 16.066245,12.6980466 L16.066245,12.2700947 C16.066245,9.72663383 14.9000201,8.48985278 12.501988,8.48985278 L9.09954819,8.48985278 L9.09954819,8.48985278 Z" id="Fill-1"></path>
                        <path d="M50.1519478,35.8780622 L44.6316265,35.8780622 C43.8710141,35.8780622 43.2230321,35.3595272 43.0547992,34.6170306 L41.7488554,28.8382532 C41.7288956,28.7505231 41.6519076,28.6891833 41.5620884,28.6891833 L34.8420382,28.6891833 C34.751506,28.6891833 34.6745181,28.7512363 34.6545582,28.8396797 L33.3856827,34.6077583 C33.2203012,35.3559609 32.5701807,35.8780622 31.806004,35.8780622 L26.2479016,35.8780622 C25.7467671,35.8780622 25.2834137,35.6512477 24.9740361,35.2561054 C24.6660843,34.8609632 24.5577309,34.3552667 24.6789157,33.868828 L32.568755,2.21322467 C32.7476807,1.49141243 33.3935241,0.987142422 34.137741,0.987142422 L42.2621084,0.987142422 C43.0063253,0.987142422 43.650743,1.49141243 43.8310944,2.21322467 L51.7209337,33.8681147 C51.8421185,34.3552667 51.7337651,34.8609632 51.4258133,35.2561054 C51.1164357,35.6512477 50.6530823,35.8780622 50.1519478,35.8780622 L50.1519478,35.8780622 Z M34.8420382,27.2619636 L41.5620884,27.2619636 C42.3227008,27.2619636 42.9706827,27.781212 43.1396285,28.5237085 L44.4455723,34.3017727 C44.4648193,34.3902161 44.5418072,34.4515558 44.6316265,34.4515558 L50.1519478,34.4515558 C50.2282229,34.4515558 50.2752711,34.4116137 50.3016466,34.3780908 C50.323745,34.3502739 50.357249,34.2925004 50.3365763,34.2133293 L42.4474498,2.55843921 C42.4267771,2.47284883 42.3497892,2.41364881 42.2621084,2.41364881 L34.137741,2.41364881 C34.0500602,2.41364881 33.9730723,2.47284883 33.9523996,2.55843921 L26.0632731,34.2140425 C26.0426004,34.2925004 26.0761044,34.3502739 26.09749,34.3780908 C26.1238655,34.4116137 26.1716265,34.4515558 26.2479016,34.4515558 L31.806004,34.4515558 C31.8965361,34.4515558 31.9742369,34.3887896 31.9934839,34.3003462 L33.2623594,28.5322676 C33.4284538,27.784065 34.0778614,27.2619636 34.8420382,27.2619636 L34.8420382,27.2619636 Z M39.7878012,22.6971432 L36.5692771,22.6971432 C36.0759839,22.6971432 35.6161948,22.4767479 35.3075301,22.0915912 C34.9995783,21.7064345 34.8840964,21.209297 34.9917369,20.7271379 L36.5970783,12.8064611 C36.7695884,12.0361477 37.4040261,11.5275981 38.1788956,11.5275981 C38.9537651,11.5275981 39.58749,12.0361477 39.7571486,12.7929093 L41.3689056,20.7406897 C41.4736948,21.209297 41.3582129,21.7064345 41.0495482,22.0915912 C40.7408835,22.4767479 40.2810944,22.6971432 39.7878012,22.6971432 L39.7878012,22.6971432 Z M38.1788956,12.9541045 C38.0249197,12.9541045 37.9999699,13.0675118 37.9914157,13.1038877 L36.3860743,21.0238512 C36.3668273,21.1122946 36.3946285,21.1665018 36.4202912,21.1993115 C36.4466667,21.2321211 36.493002,21.2706368 36.5692771,21.2706368 L39.7878012,21.2706368 C39.8640763,21.2706368 39.9104116,21.2321211 39.9367871,21.1993115 C39.9631627,21.1665018 39.9909639,21.1122946 39.9745683,21.0381163 L38.3620984,13.0903359 C38.3578213,13.0675118 38.3321586,12.9541045 38.1788956,12.9541045 L38.1788956,12.9541045 Z" id="Fill-2"></path>
                        <path d="M64.9692771,35.8780622 L59.889498,35.8780622 C58.9863153,35.8780622 58.2520783,35.1426982 58.2520783,34.2397196 L58.2520783,8.70168898 C58.2520783,8.58471546 58.1572691,8.48985278 58.0403614,8.48985278 L52.1914157,8.48985278 C51.2882329,8.48985278 50.553996,7.75520199 50.553996,6.85151019 L50.553996,2.7110754 C50.553996,1.8073836 51.2882329,1.07273281 52.1914157,1.07273281 L72.7101305,1.07273281 C73.6133133,1.07273281 74.3475502,1.8073836 74.3475502,2.7110754 L74.3475502,6.85151019 C74.3475502,7.75520199 73.6133133,8.48985278 72.7101305,8.48985278 L66.8177008,8.48985278 C66.7007932,8.48985278 66.6066968,8.58471546 66.6066968,8.70168898 L66.6066968,34.2397196 C66.6066968,35.1426982 65.871747,35.8780622 64.9692771,35.8780622 L64.9692771,35.8780622 Z M52.1914157,2.4992392 C52.074508,2.4992392 51.9796988,2.59410187 51.9796988,2.7110754 L51.9796988,6.85151019 C51.9796988,6.96848372 52.074508,7.06334639 52.1914157,7.06334639 L58.0403614,7.06334639 C58.9435442,7.06334639 59.6777811,7.79799719 59.6777811,8.70168898 L59.6777811,34.2397196 C59.6777811,34.3559799 59.7725904,34.4515558 59.889498,34.4515558 L64.9692771,34.4515558 C65.0861847,34.4515558 65.180994,34.3559799 65.180994,34.2397196 L65.180994,8.70168898 C65.180994,7.79799719 65.9152309,7.06334639 66.8177008,7.06334639 L72.7101305,7.06334639 C72.8270382,7.06334639 72.9218474,6.96848372 72.9218474,6.85151019 L72.9218474,2.7110754 C72.9218474,2.59410187 72.8270382,2.4992392 72.7101305,2.4992392 L52.1914157,2.4992392 L52.1914157,2.4992392 Z" id="Fill-3"></path>
                        <path d="M85.3846285,35.8780622 L80.3340763,35.8780622 C79.4237651,35.8780622 78.6823996,35.1362789 78.6823996,34.2247413 L78.6823996,2.72534046 C78.6823996,1.81380288 79.4237651,1.07273281 80.3340763,1.07273281 L85.3846285,1.07273281 C86.2956526,1.07273281 87.0370181,1.81380288 87.0370181,2.72534046 L87.0370181,34.2247413 C87.0370181,35.1362789 86.2956526,35.8780622 85.3846285,35.8780622 L85.3846285,35.8780622 Z M80.3340763,2.4992392 C80.2100402,2.4992392 80.1081024,2.60052115 80.1081024,2.72534046 L80.1081024,34.2247413 C80.1081024,34.3495606 80.2100402,34.4515558 80.3340763,34.4515558 L85.3846285,34.4515558 C85.5093775,34.4515558 85.6113153,34.3495606 85.6113153,34.2247413 L85.6113153,2.72534046 C85.6113153,2.60052115 85.5093775,2.4992392 85.3846285,2.4992392 L80.3340763,2.4992392 L80.3340763,2.4992392 Z" id="Fill-4"></path>
                        <path d="M117.575572,43.021293 L117.575572,48.0746919 C117.575572,48.9862295 116.83492,49.7280128 115.923896,49.7280128 L1.7514759,49.7280128 C0.840451807,49.7280128 0.0990863454,48.9862295 0.0990863454,48.0746919 L0.0990863454,43.021293 C0.0990863454,42.1104687 0.840451807,41.3686853 1.7514759,41.3686853 L115.923896,41.3686853 C116.83492,41.3686853 117.575572,42.1104687 117.575572,43.021293 L117.575572,43.021293 Z M1.52478916,48.0746919 C1.52478916,48.1995112 1.62672691,48.3015064 1.7514759,48.3015064 L115.923896,48.3015064 C116.047932,48.3015064 116.149869,48.1995112 116.149869,48.0746919 L116.149869,43.021293 C116.149869,42.8971869 116.047932,42.7951917 115.923896,42.7951917 L1.7514759,42.7951917 C1.62672691,42.7951917 1.52478916,42.8971869 1.52478916,43.021293 L1.52478916,48.0746919 L1.52478916,48.0746919 Z" id="Fill-5"></path>
                        <path d="M104.829076,36.4343997 C95.6760643,36.4343997 91.4132129,30.9994104 91.4132129,19.3305881 L91.4132129,17.6194937 C91.4132129,5.95067141 95.6760643,0.516395313 104.829076,0.516395313 C114.136064,0.516395313 118.287711,5.79090269 118.287711,17.6194937 L118.287711,19.3305881 C118.287711,31.1591791 114.136064,36.4343997 104.829076,36.4343997 L104.829076,36.4343997 Z M104.829076,1.94218845 C96.4252711,1.94218845 92.8389157,6.63111496 92.8389157,17.6194937 L92.8389157,19.3305881 C92.8389157,30.3196801 96.4252711,35.0078933 104.829076,35.0078933 C113.263534,35.0078933 116.862008,30.3196801 116.862008,19.3305881 L116.862008,17.6194937 C116.862008,6.63111496 113.263534,1.94218845 104.829076,1.94218845 L104.829076,1.94218845 Z M105.042932,30.4430729 L104.657279,30.4430729 C99.1676104,30.4430729 98.4276707,24.8254907 98.4276707,19.3305881 L98.4276707,17.6194937 C98.4276707,12.1245911 99.1676104,6.5070089 104.657279,6.5070089 L105.042932,6.5070089 C110.479849,6.5070089 111.229769,11.8478488 111.229769,17.6194937 L111.229769,19.3305881 C111.229769,25.102233 110.479849,30.4430729 105.042932,30.4430729 L105.042932,30.4430729 Z M104.657279,7.93351529 C101.200663,7.93351529 99.8533735,10.6495835 99.8533735,17.6194937 L99.8533735,19.3305881 C99.8533735,26.3004983 101.200663,29.0165665 104.657279,29.0165665 L105.042932,29.0165665 C108.468896,29.0165665 109.804066,26.3004983 109.804066,19.3305881 L109.804066,17.6194937 C109.804066,10.6495835 108.468896,7.93351529 105.042932,7.93351529 L104.657279,7.93351529 L104.657279,7.93351529 Z" id="Fill-6"></path>
                    </g>
                </g>
            </g>
        </g>
    </g>
</svg>