<?xml version="1.0" encoding="utf-8"?>
<!-- Generator: Adobe Illustrator 19.1.0, SVG Export Plug-In . SVG Version: 6.00 Build 0)  -->
<svg version="1.1" id="Layer_1" xmlns="http://www.w3.org/2000/svg" xmlns:xlink="http://www.w3.org/1999/xlink" x="0px" y="0px"
	 viewBox="0 0 64 64" enable-background="new 0 0 64 64" xml:space="preserve">
<path fill="#EEEEEE" d="M32,0C14.327,0,0,14.327,0,32c0,17.673,14.327,32,32,32s32-14.327,32-32C64,14.327,49.673,0,32,0z M42,16
	c3.314,0,6,2.686,6,6c0,3.314-2.686,6-6,6s-6-2.686-6-6C36,18.686,38.686,16,42,16z M22,16c3.314,0,6,2.686,6,6c0,3.314-2.686,6-6,6
	s-6-2.686-6-6C16,18.686,18.686,16,22,16z M32,56C19.419,56,9.107,46.318,8.089,34h6.028C15.113,42.999,22.736,50,32,50
	s16.887-7.001,17.883-16h6.028C54.893,46.318,44.581,56,32,56z"/>
</svg>
