<?xml version="1.0" encoding="utf-8"?>
<!-- Generator: Adobe Illustrator 21.1.0, SVG Export Plug-In . SVG Version: 6.00 Build 0)  -->
<svg version="1.1" id="Layer_1" xmlns="http://www.w3.org/2000/svg" xmlns:xlink="http://www.w3.org/1999/xlink" x="0px" y="0px"
	 viewBox="0 0 1440 1024" style="enable-background:new 0 0 1440 1024;" xml:space="preserve">
<title>Desktop HD Copy 4</title>
<desc>Created with Sketch.</desc>
<g id="Page-1">
	<g id="Desktop-HD-Copy-4">
		<path id="Shape" d="M521.1,562.3l4.5-15.1c0.8-2.8,2.4-5.4,4.5-7.5l57.1-57.6c0.4-0.4,1-0.7,1.6-0.7s1.2,0.2,1.6,0.7l12.4,12.5
			c0.9,0.9,0.9,2.3,0,3.2l-57.1,57.6c-2.1,2.1-4.7,3.7-7.5,4.5l-15,4.5c-0.6,0.2-1.2,0-1.7-0.4C521.1,563.5,520.9,562.8,521.1,562.3
			z M610.9,467.6l6.1,6.2c2.6,2.6,2.6,6.9,0,9.5l-7.5,7.5c-0.4,0.4-1,0.7-1.6,0.7s-1.2-0.2-1.6-0.7L594,478.3
			c-0.9-0.9-0.9-2.3,0-3.2l7.5-7.5c1.2-1.3,2.9-2,4.7-2C608,465.6,609.7,466.3,610.9,467.6z"/>
		<path id="Shape_1_" d="M833,506.7c-0.4-0.4-1-0.7-1.6-0.7c-0.6,0-1.2,0.2-1.6,0.7l-2.3,2.3c-0.7,0.7-0.9,1.7-0.4,2.6l8.6,17.2
			c0.3,0.7,0.2,1.5-0.3,2.1l-12.6,12.5c-1.5,1.5-3.7,2.2-5.9,1.9l-4.9-0.8c-1.1-0.2-2.2,0.2-2.9,0.9l-1.8,1.8
			c-0.9,0.9-0.9,2.3,0,3.2l18,18c0.4,0.4,1,0.7,1.6,0.7s1.2-0.2,1.6-0.7l1.8-1.8c0.8-0.8,1.1-1.9,0.9-2.9l-0.8-4.8
			c-0.4-2.1,0.3-4.3,1.9-5.9l12.6-12.6c0.5-0.5,1.4-0.7,2.1-0.3l17.2,8.6c0.9,0.4,1.9,0.3,2.6-0.4l2.3-2.2c0.9-0.9,0.9-2.3,0-3.2
			L833,506.7z M916.4,456.7l-20,6.6c-1.3,0.4-2.5,1.2-3.5,2.2l-45,44.8c-0.9,0.9-0.9,2.3,0,3.2l3.2,3.2c0.7,0.7,1.8,0.7,2.5,0.1
			l29.5-26.1c0.6-0.5,1.4-0.5,2,0.1c0.5,0.5,0.6,1.4,0.1,2L859,522.2c-0.6,0.7-0.6,1.8,0.1,2.5l3.2,3.2c0.9,0.9,2.3,0.9,3.2,0
			l45-44.8c1-1,1.7-2.2,2.2-3.5l6.7-19.9c0.3-0.8,0.1-1.7-0.5-2.3C918.1,456.7,917.2,456.4,916.4,456.7L916.4,456.7z"/>
		<polygon id="_x3E_" points="741.7,510.5 741.7,521.9 698.1,541.7 698.1,529.9 733.1,516.2 698.1,502.6 698.1,490.6 		"/>
	</g>
</g>
</svg>
