<?xml version="1.0" encoding="utf-8"?>
<!-- Generator: Adobe Illustrator 21.1.0, SVG Export Plug-In . SVG Version: 6.00 Build 0)  -->
<svg version="1.1" id="Layer_1" xmlns="http://www.w3.org/2000/svg" xmlns:xlink="http://www.w3.org/1999/xlink" x="0px" y="0px"
	 viewBox="0 0 40 40" style="enable-background:new 0 0 40 40;" xml:space="preserve">
<style type="text/css">
	.st0{fill:#FFFFFF;}
</style>
<title>Asset 2</title>
<g>
	<g id="Layer_2">
		<g id="Layer_1-2">
			<path d="M20,0C9,0,0,9,0,20s9,20,20,20s20-9,20-20S31,0,20,0z"/>
		</g>
	</g>
	<path class="st0" d="M21.9,19.2L21.9,19.2l-1.8,6.7c-0.2,0.6,0.2,1.4,0.8,1.6c0.2,0.1,0.4,0.3,0.4,0.6v0.2c0,0.3-0.3,0.6-0.6,0.6
		h-1.9c-1,0-1.9-0.9-1.9-1.9c0-0.2,0-0.3,0.1-0.5l1.8-6.7c0.2-0.6-0.2-1.4-0.8-1.6c-0.2-0.1-0.4-0.3-0.4-0.6v-0.2
		c0-0.3,0.3-0.6,0.6-0.6H20c1,0,1.9,0.9,1.9,1.9C21.9,18.9,21.9,19,21.9,19.2z"/>
	<path class="st0" d="M21,14.9L21,14.9c-1.1,0.1-2.2-0.8-2.2-1.9c0.1-1.1,1.1-2,2.2-1.9c1.1-0.1,2.2,0.8,2.2,1.9
		C23.1,14.1,22.1,15,21,14.9z"/>
</g>
</svg>
