<?xml version="1.0" encoding="utf-8"?>
<!-- Generator: Adobe Illustrator 21.1.0, SVG Export Plug-In . SVG Version: 6.00 Build 0)  -->
<svg version="1.1" id="Layer_1" xmlns="http://www.w3.org/2000/svg" xmlns:xlink="http://www.w3.org/1999/xlink" x="0px" y="0px"
	 viewBox="0 0 1440 1024" style="enable-background:new 0 0 1440 1024;" xml:space="preserve">
<style type="text/css">
	.st0{fill:#FFFFFF;}
</style>
<g>
	<path class="st0" d="M221,537.9h-21v-108h21V537.9z"/>
	<path class="st0" d="M277.1,458.9c-1.1-9.4-4.5-13.9-10.4-13.9c-5.3,0-9.1,4-9.1,9.7s2.6,9.4,11.5,17l10,8.4
		c11.8,9.9,16.4,18,16.4,29.1c0,18.8-12.5,31.4-31.2,31.4c-16.7,0-27.5-9.9-30.3-27.5l19.4-4.7c1.6,9.1,5.7,13.8,11.7,13.8
		c5.3,0,9.4-4.5,9.4-10.4c0-5.3-3.1-9.9-11.3-16.8l-10.5-8.9c-3.7-3.1-7.3-7-10.5-11.3c-3.9-5.2-5.7-11-5.7-18.3
		c0-17.8,11.7-29.3,29.8-29.3c15.9,0,25.3,8.3,29,25.4L277.1,458.9z"/>
	<path class="st0" d="M418.4,431.4l26.8,105.9l27.1-105.9h35.9v167.3h-30.1v-102l-20.3,82H432l-20.1-82v102.1h-30.1V431.4H418.4z"/>
	<path class="st0" d="M570.9,598.8h-32.6V431.4h32.6V598.8z"/>
	<path class="st0" d="M697.1,498.9V516c0,31.6-2.3,46.7-9,61.5c-7.3,15.8-23.1,25.6-41.1,25.6c-16.8,0-32.6-9-39.9-22.8
		c-7.5-14.3-11-33.9-11-62c0-31.1,4.3-53.9,12.8-69.2c7.3-13.8,22.6-21.8,40.1-21.8c24.8,0,40.1,12.5,44.4,35.9L663.8,474
		c-1.8-12.3-7-19.1-14.8-19.1c-13.5,0-19.3,18.1-19.3,60c0,45.2,4.8,60.7,18.1,60.7c5.3,0,9.5-3.3,12.5-9.8s3.5-12.3,3.5-39.9h-19.3
		v-26.8h52.6V498.9z"/>
	<path class="st0" d="M754,497.2h25.8v-65.7h32.6v167.3h-32.6v-74.5H754v74.5h-32.6V431.4H754V497.2z"/>
	<path class="st0" d="M917.8,459h-26.1v139.7h-32.6V459h-25.8v-27.6h84.5L917.8,459L917.8,459z"/>
	<path class="st0" d="M971.3,598.8h-32.6V431.4h32.6V598.8z"/>
	<path class="st0" d="M1071.8,431.4V459H1034v39.9h37.9V526H1034v45.2h37.9v27.6h-70.5V431.4H1071.8z"/>
	<path class="st0" d="M1140.1,431.4c36.4,0,53.9,15.8,53.9,48.7c0,21.3-10,36.6-27.3,41.9l31.4,76.8h-36.9L1132,522v76.8h-32.6
		V431.4H1140.1z M1137.6,503.2c15.3,0,22.6-7.3,22.6-22.6c0-15.1-7.3-22.3-22.6-22.3h-5.5v44.9H1137.6z"/>
	<rect x="200" y="580.6" class="st0" width="91" height="18"/>
</g>
</svg>
