<?xml version="1.0" encoding="utf-8"?>
<!-- Generator: Adobe Illustrator 21.1.0, SVG Export Plug-In . SVG Version: 6.00 Build 0)  -->
<svg version="1.1" id="Layer_1" xmlns="http://www.w3.org/2000/svg" xmlns:xlink="http://www.w3.org/1999/xlink" x="0px" y="0px"
	 viewBox="0 0 1440 1024" style="enable-background:new 0 0 1440 1024;" xml:space="preserve">
<g>
	<path d="M566.1,579.9c-3,3-6.6,5.3-10.9,6.9c-4.3,1.6-9,2.4-14.2,2.4c-9,0-16.1-2.5-21.2-7.4c-5.1-5-7.7-12.5-7.7-22.5v-73.7h-22.2
		V476h22.2v-27.8l11.1-3.1V476H565v9.5h-41.7v72.2c0,7,1.7,12.3,5,15.9c3.3,3.6,8.2,5.4,14.5,5.4c7.4,0,13.8-2.7,19.3-8.2
		L566.1,579.9z"/>
	<path d="M671.3,484.5c7.8,7.1,11.7,17.2,11.7,30.4v72.2h-11.1v-68.6c0-11.7-2.9-20.5-8.8-26.3c-5.8-5.8-13.7-8.8-23.7-8.8
		c-7.1,0-13.7,1.7-19.8,5c-6.1,3.3-10.9,8.1-14.5,14.3c-3.6,6.2-5.4,13.5-5.4,21.8v62.6h-11.1V424.9h11.1V498
		c3.6-7.8,8.9-13.8,16.1-18c7.2-4.1,15.4-6.2,24.8-6.2C653.2,473.8,663.5,477.4,671.3,484.5z"/>
	<path d="M819.3,578.2l-0.7,8.9c-2.7,1.5-6.3,2.2-10.9,2.2c-5.2,0-9.4-1.4-12.7-4.2c-3.3-2.8-5.1-7.7-5.6-14.7
		c-3.4,5.9-8.9,10.5-16.4,13.9c-7.6,3.3-15.5,5-23.8,5c-11,0-19.7-2.4-26.3-7.3c-6.6-4.9-9.9-11.8-9.9-20.9
		c0-17.2,14.1-28.3,42.2-33.3l34-6V512c0-8.9-2.6-15.8-7.9-20.9c-5.3-5-12.7-7.6-22.3-7.6c-17.6,0-29.5,7.8-35.5,23.5l-8.4-6.2
		c3.3-8.7,8.7-15.4,16.2-20.1c7.6-4.7,16.8-7,27.8-7c12.9,0,23,3.1,30.3,9.4c7.3,6.3,11,15.4,11,27.4V568c0,7.8,3.4,11.8,10.2,11.8
		C814.3,579.7,817.2,579.2,819.3,578.2z M768.6,576.3c5.9-2.1,10.8-5.3,14.8-9.5c3.9-4.2,5.9-9.3,5.9-15.2v-20.7l-30.4,5.6
		c-12,2.2-20.7,5.3-26.2,9.3c-5.5,4-8.2,9.1-8.2,15.3c0,5.9,2.3,10.5,6.9,13.7c4.6,3.2,11,4.8,19.1,4.8
		C756.6,579.5,762.7,578.4,768.6,576.3z"/>
	<path d="M924.6,484.5c7.8,7.1,11.7,17.3,11.7,30.6v72h-11.1v-68.4c0-11.8-2.9-20.7-8.7-26.4c-5.8-5.8-13.7-8.7-23.8-8.7
		c-7.1,0-13.7,1.6-19.8,4.9c-6.1,3.3-10.9,8-14.5,14.2c-3.6,6.2-5.4,13.5-5.4,21.8v62.6h-11.1V476h10l0.4,22.4
		c3.6-8,9-14.1,16.3-18.3s15.7-6.3,25.2-6.3C906.6,473.8,916.9,477.4,924.6,484.5z"/>
</g>
</svg>
