<?xml version="1.0" encoding="utf-8"?>
<!-- Generator: Adobe Illustrator 21.1.0, SVG Export Plug-In . SVG Version: 6.00 Build 0)  -->
<svg version="1.1" id="Layer_1" xmlns="http://www.w3.org/2000/svg" xmlns:xlink="http://www.w3.org/1999/xlink" x="0px" y="0px"
	 viewBox="0 0 1440 1024" style="enable-background:new 0 0 1440 1024;" xml:space="preserve">
<g>
	<path d="M536.5,562.9c-0.1,0.3-0.3,0.5-0.4,0.8c-0.1,0.3-0.3,0.5-0.4,0.8c1.1,0.3,1.9,0.1,2.3-0.4c0.4-0.5,0.5-1.5,0.4-3
		L536.5,562.9z"/>
	<path d="M553.5,404.8c-1.5-1.7-3.2-3.2-5-4.4c-1.9-1.3-3.9-2.6-6.1-3.9c-3.7-2.1-7.6-3.6-11.8-4.4s-8.4-1.7-12.6-2.7
		c-1.6-0.4-3.3-0.6-5.1-0.7c-1.8-0.1-3.5-0.1-5.3-0.1c-1.4-0.1-2.7-0.1-4.1,0.1c-1.3,0.2-2.7,0.1-4.1-0.3c-1.8-0.4-3.6-0.4-5.5-0.1
		c-1.9,0.3-3.7,0.6-5.5,0.9c-3.5,0.6-7,1.4-10.5,2.2s-7,1.6-10.5,2.4c-1,0.3-1.9,0.5-2.7,0.8c-0.8,0.3-1.7,0.1-2.7-0.6
		c-0.3-0.3-0.5-0.3-0.8-0.2c-0.3,0.1-0.5,0.3-0.8,0.4c-1.4,0.5-2.8,0.3-4.4-0.6c-1.1-1-2.4-1.2-3.8-0.7c-1.4,0.6-2.2,1.5-2.5,2.9
		c-0.3,1.8-0.8,3.1-1.7,4.1c-0.9,0.9-2.2,1.7-4,2.2c-2.9,1-5.8,2.1-8.7,3.3c-2.9,1.2-5.8,2.4-8.7,3.5c-1.8,0.8-3.6,1.5-5.4,2.2
		s-3.6,1.5-5.4,2.6c-3.2,1.8-6.3,3.5-9.4,5.2c-3.1,1.7-6.2,3.4-9.4,5.2c-2.8,1.8-5.5,3.5-8.1,5.1c-2.6,1.6-5.4,3.3-8.3,5.1
		c-1.3,0.6-2.4,1.5-3.3,2.6c-0.9,1.1-2.2,1.9-3.7,2.3c-0.3,0.1-0.5,0.6-0.8,1.3c-1,2.3-1.3,4-0.8,5.2s1.1,2.8,1.9,4.8
		c0.6,1.5,1.3,3,2.1,4.4c0.8,1.5,1.5,2.9,2.3,4.4c0.3,0.6,0.6,1,0.9,1.1c0.1,0.1,0.6,0.2,1.5,0.2c0.9,0,1.8,0,2.7-0.1
		c0.9-0.1,1.8-0.2,2.6-0.4c0.8-0.2,1.4-0.3,1.6-0.5c1.4-1.3,2.8-2.5,4.4-3.7c1.5-1.2,3-2.4,4.4-3.7c0.3-0.3,0.6-0.5,1-0.7
		c0.4-0.2,0.9-0.4,1.2-0.7c3-1.5,5.9-3.1,8.6-4.8c2.7-1.7,5.5-3.4,8.4-5.2c0.6-0.4,1.2-0.8,1.8-1.2s1.2-0.8,1.8-1
		c1.9-0.9,3.8-1.7,5.6-2.6c1.8-0.8,3.6-1.7,5.4-2.7c0.8-0.4,1.5-0.8,2.2-1.3s1.5-0.8,2.6-0.9c0.3,0,0.5-0.1,0.8-0.4s0.5-0.5,0.8-0.8
		s0.5-0.5,0.8-0.7s0.6-0.5,1.1-0.9c0,0.4-0.4,1.5-1.1,3.3c-0.8,1.8-1.5,3.9-2.4,6.1c-0.8,2.2-1.6,4.2-2.4,6s-1.1,2.7-1.1,2.8
		c-0.5,1.5-0.8,2.4-0.8,2.6s0,0.3,0.1,0.2c0.1-0.1,0.1,0,0.1,0.2s-0.3,1-0.8,2.6c-0.6,2-1.6,4.7-2.8,7.9c-1.3,3.3-2.6,6.7-3.9,10.1
		c-1.3,3.5-2.6,6.8-3.8,10.1c-1.2,3.3-2.2,5.9-2.9,7.9c-2,6.2-4,12.3-6,18.5c-2,6.1-3.8,12.3-5.6,18.6c-1.4,4.4-2.6,8.9-3.5,13.5
		c-0.9,4.6-2,9.2-3.1,13.9c-1,4.8-1.8,9.6-2.5,14.4c-0.6,4.8-1.1,9.6-1.3,14.4c-0.3,2.1-0.3,4.4,0,6.6c0.3,2.3,0.5,4.5,0.8,6.6
		c0,1.6,0.5,3,1.4,4c0.9,1,1.9,2.1,2.7,3.2c1.9,2.5,4.5,3.7,7.8,3.6c-0.1-0.5-0.2-1-0.2-1.4s-0.1-0.8-0.4-1c-0.6-0.5-0.9-1-0.8-1.5
		c0.1-0.5,0.1-1.1,0-1.7c-0.1-0.8-0.3-1.5-0.4-2.2c-0.1-0.7-0.3-1.4-0.6-2c-0.1-0.6-0.2-1.3-0.3-1.9c-0.1-0.6,0.3-1.2,1.2-1.7
		c0.3-0.3,0.4-0.5,0.5-0.9c0.1-0.3,0.2-0.6,0.3-0.9c0.1-0.4,0.2-0.8,0.1-1.1c-0.1-0.4,0-0.8,0.3-1.1c0.4-2.4,0.9-4.9,1.7-7.4
		c0-0.1,0-0.2-0.1-0.4c2.1-4.2,3.2-8.8,3.2-13.4c0.6-1.3,1.3-2.6,2.2-3.8c0.1-0.1,0.2-0.5,0.2-1.1c0.5-2.3,1-4.5,1.4-6.8
		c0.4-2.3,1-4.5,1.8-6.6c1-2.7,2-5.3,2.9-7.9c0.9-2.6,2-5.1,3.3-7.7c1-2,1.8-4.1,2.3-6.2c0.5-2.1,1.4-4,2.8-5.8
		c0.6-0.8,1-1.7,1.2-2.7c0.2-1.1,0.4-2.1,0.7-3.1c0.3-1,0.6-2,0.9-2.8c0.4-0.9,0.9-1.8,1.5-2.6c0.3-0.5,0.6-1,1-1.5
		c0.4-0.5,0.6-1.1,0.5-1.7c0-1.4,0.3-2.6,0.8-3.8c0.5-1.1,0.9-2.4,1.1-3.8c0.1-1,0.4-1.9,0.9-2.7c0.4-0.8,0.9-1.7,1.2-2.7
		c0.3-0.8,0.5-1.5,0.7-2.3s0.4-1.4,0.7-2.1c0.1-0.3,0.2-0.5,0.2-0.8s0.1-0.5,0.2-0.8l1.8-1.8c0.6-0.6,0.5-1.4-0.1-2.4v-0.2
		c0-0.1,0-0.2,0.1-0.2c0.1,0,0.1-0.1,0.1-0.2c1-0.5,1.6-1.2,1.8-2s0.4-1.7,0.7-2.6c0.5-1.1,0.9-2.3,1.3-3.6c0.4-1.3,1.3-2.2,2.6-2.8
		c0.6-0.3,1-0.6,1-1.1c0.1-0.5-0.1-1.1-0.5-1.7c-0.5-1-0.7-1.7-0.7-2c0.1-0.3,0.6-0.9,1.6-1.6c0.5-0.4,1-0.8,1.6-1.3
		c0.6-0.5,0.8-0.9,0.7-1.1c-0.3-1.1-0.2-2.1,0.3-2.9c0.4-0.8,0.9-1.6,1.2-2.4c1-2.1,1.9-4.4,2.6-6.6c0.8-2.3,2-4.3,3.8-6.1
		c0.3-0.3,0.4-0.6,0.6-0.9c0.1-0.4,0.3-0.7,0.6-0.9c0.6-1.6,1.3-3.2,2.1-4.7s1.4-3.1,2.1-4.7c0.3-0.6,0.8-2,1.7-4.1
		c0.9-2.1,1.9-4.3,2.9-6.5c1.1-2.3,2.2-4.3,3.3-6.1c1.1-1.8,2.1-2.7,3-2.8l0.2-0.2c0.4-0.5,0.9-0.9,1.6-1c0.7-0.2,1.5-0.3,2.4-0.5
		c0.9-0.1,1.7-0.2,2.5-0.2h1.9c0.8-0.1,1.5-0.2,2.4-0.2c0.8,0,1.7-0.1,2.6-0.2c2-0.3,4-0.6,5.9-0.9c1.9-0.3,3.8-0.7,5.7-0.9
		c2.1-0.3,4.3-0.4,6.5-0.5c2.2-0.1,4.4-0.2,6.5-0.5c1.6-0.3,3.2-0.6,4.8-0.9c1.6-0.4,3.2-0.3,5,0.4c0.8,0.3,1.4,0.2,2.1-0.2h0.1
		c0,0.1-0.1,0.2-0.1,0.2c-1.3,2.1-2.6,4.3-4,6.4c-2.4,4-4.8,8.1-7.2,12.1s-4.8,8.1-7.2,12.1c-2.3,3.7-4.6,7.4-6.8,11.1
		c-2.3,3.7-4.5,7.4-6.6,11.1c-2.4,4-4.8,8.1-7,12.3c-2.3,4.2-4.6,8.3-6.8,12.3c-1.3,2.1-2.5,4.3-3.6,6.5c-1.1,2.2-2.2,4.4-3.2,6.7
		c-0.8,1.5-1.5,3.1-2.1,4.7c-0.6,1.6-1.3,3.3-1.9,4.9c-1.4,3.7-2.8,7.3-4.2,10.8c-1.4,3.5-2.6,7.1-3.6,10.8c-1,3.3-1.9,6.7-2.6,10.1
		c-0.7,3.5-1.4,6.8-2,10.1c-1.5,6.4-1.6,12.7-0.4,18.9c0.5,2.1,1.1,4.2,1.9,6.2s2.1,3.6,4,5c1.1,0.6,2,1.5,2.5,2.6
		c0.8,1.9,2,3,3.8,3.2v0.6c0.3,0,0.4,0,0.5-0.1c0.1-0.1,0.2-0.1,0.5-0.1c0.3-0.1,0.5-0.3,0.9-0.4c0.3-0.1,0.6-0.3,0.9-0.4h0.2
		c1-0.6,2-1.3,2.8-2.1c0.9-0.8,1.8-1.4,2.8-2.1v-0.8c-0.3-2.9,0.3-5.5,1.5-7.7c1.3-2.2,2.7-4.4,4.2-6.5c1.2-1.5,2.4-3,3.7-4.4
		s2.3-2.9,3-4.5c0.5-1.4,1-2.7,1.5-4s1.2-2.5,2.1-3.6c1.4-1.6,2.6-3.3,3.8-4.9c1.1-1.6,2.3-3.3,3.6-5.1c1.4-1.8,2.8-3.6,4.1-5.4
		c1.4-1.8,2.8-3.6,4.1-5.4c1-1.7,2.7-3.8,4.5-6.1c0.7-1.1,1.5-2.3,2.2-3.5c0.8-1.2,1.5-2.4,2.3-3.5l-0.8-0.4
		c-2.3,2.8-4.5,5.5-6.8,8.2s-4.5,5.5-6.8,8.4l-1.1-1.1c6.1-8.3,12.3-16.5,18.8-24.4c6.5-7.9,13.3-15.7,20.5-23.3
		c-1.5,0.5-2.9,1.1-4.1,1.8c-1.2,0.7-2.4,1.7-3.4,3.1c-1,1.5-2.2,2.9-3.7,4.3c-1.5,1.3-2.9,2.7-4.3,4.1c-1.9,2.1-3.7,4.3-5.6,6.5
		c-1.9,2.2-3.7,4.4-5.4,6.5c-0.4,0.5-0.7,1.1-0.9,1.8s-0.5,1.3-0.8,1.9c-0.3,0.6-0.7,1.1-1.2,1.5s-1.2,0.7-2.2,0.7
		c0,1.8-0.6,3-1.7,3.8c-1.1,0.8-2.1,1.6-3,2.7c-1.1,1.3-2.2,2.6-3.2,3.9c-1,1.3-1.8,2.9-2.5,4.6c-0.6,1.4-1.5,2.7-2.7,4
		s-2.4,2.5-3.7,3.8c-2.1,2-4,4.2-5.4,6.6c-1.5,2.4-2.7,5-3.7,7.8c0,0.3-0.2,0.4-0.5,0.6c-0.3,0.1-0.6,0.3-0.9,0.6
		c-1.4,1.5-2.7,3.1-4,4.6c-1.3,1.6-2.5,3.2-3.6,4.8c-0.6,0.8-1.2,1.5-1.6,2.4c-0.4,0.8-0.9,1.6-1.4,2.4v-0.2c0.3-0.6,0.4-1.3,0.4-2
		s0.1-1.4,0.4-2c0.1-0.6,0.3-1.2,0.5-1.7s0.3-1.1,0.5-1.7c0.3-1.3,0.5-2.5,0.7-3.7s0.4-2.4,0.7-3.7c0.1-0.8,0.3-1.5,0.5-2.3
		s0.4-1.5,0.7-2.3c0.5-0.1,1.1-0.9,1.7-2.5c0.6-1.5,1.2-3.2,1.8-4.9c0.6-1.8,1-3.4,1.4-5c0.4-1.6,0.5-2.5,0.4-2.7
		c0.8-1.4,1.4-2.6,2-3.6c0.6-1,1.2-2,1.8-3l-0.6-0.2c-0.3,0.1-0.8,0.4-1.6,0.9c-0.1-0.1-0.2-0.3-0.3-0.4c-0.1-0.1-0.2-0.3-0.3-0.4
		c0.3-0.3,0.5-0.5,0.7-0.9c0.2-0.3,0.4-0.5,0.7-0.5c0.9,0.1,1.5,0,1.7-0.5c0.3-0.4,0.5-0.9,0.8-1.4c0.3-0.6,0.5-1.2,0.9-1.6
		c0.3-0.4,0.6-1,0.7-1.6c0.1-0.6,0.2-1.3,0.1-1.9c0-0.4,0-0.8-0.1-1.2c0.2-0.3,0.3-0.6,0.5-0.9c0-0.1,0.1-0.1,0.1-0.2
		c0.1,0,0.3,0,0.4,0c0.3-0.1,0.6-0.1,0.9-0.1c-0.3-0.4-0.6-0.8-0.7-1.2c0.4-0.9,0.8-1.8,1.2-2.8c0.4-0.3,0.8-0.5,1.3-0.8
		c0-0.4-0.1-0.9-0.3-1.5c0-0.1,0.1-0.2,0.1-0.3h0.1c0.1,0.1,0.3,0.1,0.4,0.1c0.3-0.4,0.5-0.7,0.9-1c0.3-0.3,0.6-0.7,0.9-1
		s0.4-0.6,0.4-0.9c0-0.4,0.1-0.7,0.2-0.9c1.1-2.1,2.2-4.2,3.3-6.2s2.3-4,3.7-6.1c1-1.5,1.8-3.2,2.5-4.9c0.6-1.8,1.8-3.2,3.6-4.2
		c0.3-0.3,0.7-0.6,1.3-1c0.6-0.4,0.6-1.2,0-2.2c-0.1,0-0.1-0.1,0.1-0.4s0.3-0.4,0.5-0.6c0.8-1.3,1.6-2.5,2.6-3.6
		c1-1.1,1.6-2.4,1.9-3.8c0.4-0.4,0.5-0.6,0.4-0.6c1-0.4,1.7-1,2-1.9c0.3-0.9,0.7-1.8,1-2.6c0.6-1.1,1.6-2.3,3-3.4
		c2.3-1.9,3.6-4.1,4-6.6c0-0.3,0.1-0.4,0.2-0.6c0.1-0.1,0.3-0.3,0.4-0.6c0.4-0.5,0.8-1,1.2-1.4c0.4-0.4,0.8-0.9,1-1.4
		c0.4-0.6,0.6-1.3,0.8-1.9c0.1-0.6,0.6-1.1,1.5-1.3c0.3-0.1,0.4-0.4,0.6-0.9c0.1-0.4,0.3-0.8,0.6-1c0.8-0.8,1.4-1.3,1.9-1.5
		c0.1-0.3,0.3-0.3,0.6-0.3c0.3,0.1,0.4,0,0.6-0.3c0.8-1,1.5-2,2.3-3s1.5-2,2.3-3c1.4-1.8,2.7-3.5,4-5.3s2.5-3.5,3.8-5.3
		c0.5-0.8,0.9-1.5,1.2-2.4c0.3-0.8,0.7-1.7,1-2.6c0.1-0.3,0.3-0.5,0.5-0.8s0.4-0.5,0.7-0.8s0.6-0.5,0.9-0.8c0.4-0.3,0.7-0.5,0.9-0.8
		c0.9-1.8,1.1-3.4,0.6-5c-0.2-0.6-0.4-1.2-0.6-1.8c0.3,0.1,0.5,0.3,0.8,0.4c0.3,0.1,0.5,0.2,0.7,0.2s0.6-4.3,0.9-4.2
		c0.1,0-0.1,4.5-0.1,4.5C555.4,412.3,554.8,408.4,553.5,404.8z M418.1,415.2c0.1-0.3,0.3-0.5,0.6-0.6c0.4-0.1,1-0.3,1.6-0.4
		c0.2-0.1,0.4-0.1,0.6-0.2C420,414.5,419,414.8,418.1,415.2z M436.3,407.5c-0.1,0.1-0.2,0.1-0.2,0.2c-0.4,0.1-0.8,0.2-1.2,0.3
		c0.6-0.2,1.2-0.5,1.8-0.8c0.2-0.1,0.4-0.2,0.6-0.2c-0.2,0.1-0.4,0.2-0.6,0.2C436.6,407.3,436.4,407.4,436.3,407.5z M513,392.4
		c-1.7,0.2-3.7-0.3-5.7-0.6c0.5-0.1,1-0.1,1.5-0.2c1.4-0.3,2.8-0.3,4.2-0.1c0.8,0.1,1.6,0.2,2.3,0.4
		C514.6,392.1,513.9,392.3,513,392.4z M522.6,393.8c-0.8-0.1-1.4-0.6-2.1-1.1c1.3,0.3,2.5,0.6,3.7,1
		C523.7,393.7,523.1,393.8,522.6,393.8z M459,549.9c-0.7-0.2-0.7-0.8-0.1-1.6c0.2-0.6,0.3-1.1,0.5-1.5
		C459.2,547.8,459.1,548.8,459,549.9z M461.7,536.3C461.6,536.3,461.6,536.2,461.7,536.3c0-0.1,0-0.1,0.1-0.2
		C461.8,536.2,461.7,536.2,461.7,536.3z M526.9,403.3c-0.1,0-0.2-0.1-0.3-0.1c0.1-0.1,0.1-0.1,0.2-0.1S526.9,403.1,526.9,403.3
		C527,403.2,527,403.3,526.9,403.3z"/>
	<path d="M436.7,407.2c0.2-0.1,0.4-0.2,0.6-0.2C437.1,407.1,436.9,407.1,436.7,407.2z"/>
	<path d="M579.7,486.3c0.8-0.8,1.5-1.7,2.3-2.6c0.5-0.6,1.1-1.2,1.9-1.8c0.8-0.6,1.4-1.2,2.1-1.9c0.6-0.7,1.1-1.4,1.4-2.3
		c0.3-0.8,0.3-1.8,0.1-2.9c-0.1-0.3-0.1-0.4,0-0.5s0.2-0.2,0.2-0.5c-0.1-0.3-0.2-0.6-0.2-0.9s-0.1-0.7-0.2-0.9
		c-0.4-0.6-0.8-1.3-1.2-2s-0.9-1.4-1.4-2c-0.1-0.3-0.3-0.4-0.4-0.5c-0.1-0.1-0.3-0.2-0.6-0.5c-0.8-0.6-1.6-1.2-2.5-1.7
		s-1.6-1.2-2.1-2.1c-0.6-1.1-1.4-2.1-2.3-2.9c-0.9-0.8-2-1.4-3.4-1.6c-0.4,0-0.7-0.1-0.9-0.4c-1.9-1.9-3.9-2.1-6.1-0.6
		c-1.5,1-2.8,2.1-4,3.4c-0.9,1-1.7,2.1-2.4,3.2s-1.4,2.2-2.2,3.2c0,0.3,0,0.4-0.1,0.5s-0.1,0.2-0.1,0.5c-2.4,2.1-4.8,4.2-7.1,6.2
		s-4.8,4.1-7.3,6.2c0.3,0.3,0.4,0.4,0.6,0.4c2.1-1.9,4.4-3.8,6.6-5.8c2.3-2,4.5-3.9,6.8-5.8v0.2c-0.3,0.6-0.6,1.2-1,1.7
		s-0.8,1.1-1,1.7c-1.5,2.8-3,5.6-4.4,8.3c-1.5,2.8-2.9,5.6-4.4,8.3c-1.4,2.9-2.8,5.7-4.3,8.5s-2.9,5.6-4.3,8.5
		c-1.9,4.4-3.7,8.8-5.5,13.1s-3.6,8.6-5.3,13.1c-1.5,3.7-2.9,7.4-4.3,11.1c-1.4,3.7-2.7,7.4-4.1,11.1c-0.6,1.9-1.2,3.8-1.9,5.7
		c-0.6,1.2-1.1,2.4-1.4,3.8c-0.1,0.3-0.1,0.6-0.2,1c-0.2,0.6-0.4,1.3-0.6,1.9c-0.6,2.1-1.2,4.3-1.7,6.4c-0.5,2.1-1,4.3-1.5,6.4
		c-0.2,1.4-0.5,2.7-0.8,3.9s-0.5,2.5-0.7,3.9c-0.3,2.3-0.4,4.6-0.6,6.9c-0.1,2.3-0.1,4.6,0,6.9c0,4,0.5,7.8,1.6,11.4
		c1.1,3.5,3.3,6.6,6.7,9.1c0.4,0.3,0.7,0.6,0.9,1c0.3,0.4,0.6,0.7,0.9,0.9c1,0.4,2,0.6,3,0.8c1,0.1,1.9,0.6,2.6,1.5
		c0.1,0.3,0.5,0.4,1.1,0.4c3.2-0.8,4.7-3,4.7-6.8c-0.7,0.1-1.3,0.2-1.9,0.3c-0.6,0.1-1.2,0.2-1.9,0.5c-0.7,0.1-1.3,0.2-1.9,0.3
		c-0.6,0.1-1-0.3-1.3-1c-0.3-0.8-0.4-1.5-0.5-2.3s-0.2-1.6-0.5-2.7c1.3,0.3,2.1,0.1,2.3-0.6c0.2-0.6,0.3-1.3,0.3-2.1
		c0-1.1,0-2.3,0-3.5s0.1-2.4,0.2-3.7c0.1-0.6,0.1-1.3,0.2-1.9c0.1-0.6,0.2-1.3,0.3-1.9c0.3-1.4,0.5-2.8,0.9-4.4
		c0.3-1.5,0.6-3,0.9-4.4h-1.7c0.7-1,1.3-1.9,1.9-2.6c0.6-0.7,1.1-1.5,1.5-2.4c0.6-1.4,1.2-2.8,1.6-4.4c0.4-1.5,0.9-3,1.4-4.5
		c0.1-0.3,0.2-0.6,0.2-0.9c0-0.4,0.1-0.7,0.2-0.9c-0.1-0.1-0.2-0.2-0.3-0.2s-0.2-0.1-0.3-0.2c-0.6,1-1.3,2.1-1.9,3.1
		c-0.6,1.1-1.3,2.1-1.9,3.1c-0.3-1-0.3-1.9-0.2-2.6l3.4-9.1c0.5-1.3,1-2.5,1.4-3.8s1-2.5,1.6-3.8c0.1-0.3,0.6-0.6,1.3-1.1
		c0.1-0.6,0.1-1-0.1-1.2c-0.2-0.2-0.4-0.3-0.8-0.3c-0.3,0-0.7,0-1,0c-0.2,0-0.3,0-0.4-0.1c0.1-0.2,0.2-0.5,0.2-0.7
		c0.5-0.2,1.1-0.4,1.6-0.6c0.7-0.3,1.4-0.5,2.2-0.7c1.9-0.3,2.6-1.3,2.1-3c-0.3,0.6-0.6,1.2-1,1.8s-1.2,0.6-2.2,0.1
		c0.6-1.1,1.2-2.3,1.7-3.4c0.5-1.1,1-2.3,1.5-3.4c0.8,0.3,1.4,0.5,2.1,0.8c0.3-0.8,0.5-1.4,0.8-2s0.5-1.2,0.8-1.8
		c-0.1-0.1-0.2-0.2-0.3-0.2s-0.2-0.1-0.3-0.2c-0.3,0.5-0.5,1-0.9,1.5c-0.3,0.5-0.6,1-0.9,1.5c-0.3-1.4-0.1-2.4,0.5-3s1.4-1,2.4-1.1
		c0.4,0,0.6-0.1,0.6-0.4c0.3-0.4,0.3-0.7,0-0.9c-0.3-0.3-0.8-0.5-1.5-0.8c1-1.1,1.9-2.2,2.7-3.1c0.8-0.9,1.7-1.9,2.6-2.9
		c0-0.5,0-1,0.1-1.5s0.2-1.1,0.3-1.7c0-0.3,0.1-0.5,0.3-0.8s0.3-0.5,0.3-0.8c0-1.6,0.4-3,1.3-4c0.9-1,1.8-2,2.8-3
		c2.3-2.3,3.8-4.7,4.7-7.2c0.1-0.5,0.3-0.9,0.7-1.3c0.3-0.4,0.6-0.8,0.9-1.3c0.3-0.5,0.4-1,0.5-1.6s0.3-1,0.7-1.2
		c1-0.6,1.6-1.4,1.8-2.3c0.2-0.9,0.6-1.7,1.2-2.5c0.5-0.6,0.9-1.2,1.3-1.7c0.4-0.5,0.8-1.1,1.1-1.7c0.3-0.3,0.4-0.4,0.4-0.6
		c-0.3-1,0-1.9,0.7-2.6s1.2-1.4,1.6-2.2c2.5-3.8,5.3-7.7,8.3-11.7C578.2,488,578.9,487.1,579.7,486.3z M513.6,590.3
		c-0.4,0-0.8,0.3-1.2,1c-0.1,0.1-0.2,0.2-0.3,0.3c0.1-0.6,0.1-1.3,0.2-1.9c0-0.7,0.2-1.4,0.3-2.1c0.1,0.1,0.1,0.2,0.2,0.3l1,1.6
		C513.8,589.8,513.7,590.1,513.6,590.3z M514.3,599.9L514.3,599.9c0.2,0,0.3,0.1,0.5,0.2C514.6,600.1,514.4,600.1,514.3,599.9z
		 M515.1,577.7C515.1,577.6,515.1,577.6,515.1,577.7C515.1,577.6,515.1,577.6,515.1,577.7L515.1,577.7z M515.6,569.8
		c0-0.2,0.1-0.4,0.2-0.6c0,0,0-0.1,0.1-0.1c0,0,0,0,0,0.1C515.8,569.4,515.7,569.6,515.6,569.8z M524.8,575.4c0-0.3,0-0.5,0-0.8
		c0-0.5,0.1-1,0.3-1.4C525.7,574,525.6,574.7,524.8,575.4z M523.8,546.3c0-0.2-0.1-0.3-0.1-0.5c-0.2-0.6-0.2-1.4,0.3-2.2
		c0.4-0.8,0.8-1.7,1-2.6c0.3,0.1,0.5,0.1,0.6,0.2C525,542.9,524.4,544.6,523.8,546.3z M526.2,539.8c0.1-0.3,0.2-0.7,0.2-1
		c0-0.4,0.1-0.8,0.4-1.1c0.3-0.5,0.5-1,0.7-1.5s0.4-1,0.7-1.5c0-0.1,0.1-0.2,0.3-0.3C527.6,536.1,526.9,538,526.2,539.8z"/>
	<path d="M663.6,541.6c-0.8,0.3-1.5,0.8-2,1.4c-1.6,1.9-3.3,3.7-5.1,5.3s-3.6,3.2-5.5,4.7c-0.4,0.3-0.7,0.5-1,0.9
		c-0.3,0.3-0.7,0.6-1,0.9c-0.3,0.1-0.5,0.1-0.9,0c-0.3-0.1-0.6-0.2-0.9-0.2c0.3-0.3,0.4-0.4,0.5-0.6c0.1-0.1,0.2-0.3,0.5-0.4
		c0.1-0.1,0.3-0.2,0.4-0.3c0.1-0.1,0.3-0.2,0.4-0.3c0.8-0.8,1.5-1.5,2.4-2.4c0.8-0.8,1.6-1.7,2.4-2.6c0.3-0.3,0.5-0.5,0.7-0.9
		c0.2-0.3,0.4-0.7,0.7-1c2.9-3.2,5.9-6.3,9-9.5s6.2-6.4,9.2-9.7c-0.1-0.3-0.3-0.4-0.4-0.5c-0.1-0.1-0.3-0.2-0.4-0.3
		c-0.4,0.5-0.8,1-1.1,1.5c-0.4,0.5-0.8,0.9-1.3,1.3c-1.8,1.8-3.6,3.5-5.4,5.1c-1.8,1.6-3.7,3.3-5.6,4.9c-2.1,2.1-4.3,4.2-6.4,6.2
		c-2.1,2-4.4,4-6.6,6.1c-2.6,2.3-5.3,4.5-7.9,6.8c-2.6,2.3-5.4,4.5-8.1,6.6c-1.1,0.8-2.5,1.7-4.1,2.9s-3.2,2.4-5,3.6
		c-1.8,1.2-3.5,2.3-5.1,3.4c-1.6,1.1-3,2-4.2,2.7c-2.1,1.4-4.8,2.5-7.9,3.3c-3.2,0.8-6,1-8.5,0.7c-1.4-0.3-2.5-0.9-3.2-2.1
		c-0.4-0.6-0.6-1.3-0.7-2c-0.1-0.7-0.2-1.4-0.3-2l-0.6-1.1c-0.3-0.9-0.6-1.4-0.9-1.5c-0.8-0.6-0.9-1.4-0.4-2.3
		c0.5-0.8,0.6-1.4,0.2-2.1c-0.9-1.5-0.8-2.8,0.4-4c0.3-0.1,0.5-0.4,0.8-0.9c0.1-0.6,0.3-1.3,0.4-1.9c0.1-0.6,0.3-1.3,0.6-1.9
		c-0.3-0.2-0.6-0.5-1-0.7s-0.3-0.6,0.3-1.2c0.3-0.3,0.4-0.5,0.5-0.7s0.2-0.4,0.5-0.7c0.1-0.3,0.2-0.5,0.3-0.8s0.2-0.4,0.5-0.6
		c1.4-0.8,2-1.8,1.7-3l1.1-0.6l0.2,0.2c1.6,0.4,3.8,0.5,6.6,0.4s5-0.4,6.6-0.8h0.2c0.4,0,0.9-0.1,1.7-0.4c2-0.6,4-1.2,6.1-1.8
		c2-0.6,3.9-1.5,5.7-2.9c0.1-0.1,0.3-0.2,0.6-0.2c0.9-0.6,1.7-1.2,2.6-1.7c0.8-0.5,1.6-1.1,2.4-1.7c0.6-0.5,1.2-1,1.8-1.5
		s1.2-1,1.8-1.5c0.8-0.6,1.6-1.3,2.5-1.9c0.9-0.6,1.6-1.3,2.3-1.9c0.9-1,1.7-2,2.4-3.1s1.7-1.9,2.9-2.6c0.4-0.1,0.7-0.5,0.9-1.1
		c0.4-1,0.8-1.8,1.3-2.5c0.6-1,1.3-1.9,2-2.7s1.4-1.6,2-2.6c0.8-1,1.5-2.1,2.3-3.2c0.8-1.1,1.5-2.3,2.3-3.4c1.3-1.5,2.5-3.3,3.6-5.3
		c0.8-1.1,1.4-2.3,2.1-3.6c0.1-0.3,0.2-0.5,0.2-0.9c0-0.3,0.1-0.6,0.4-0.9c0.6-0.5,1-1,1-1.6c0.1-0.6,0.2-1.2,0.5-1.8
		c0.3-0.8,0.4-1.5,0.6-2.2c0.1-0.7,0.3-1.4,0.4-2.2c0.3-0.8,0.6-1.5,1.1-2.2s0.2-1.4-0.9-2.2c0.1-0.3,0.3-0.5,0.4-0.7
		c0.1-0.2,0.2-0.3,0.2-0.5c-0.5-1.4-0.5-2.8,0-4.2c0.5-1.4,0.4-2.8-0.2-4.2c-0.6-1.3-1.1-2.5-1.4-3.8c-0.3-1.3-0.8-2.6-1.4-4
		c-0.4-0.9-0.6-1.8-0.7-2.6c-0.1-0.9-0.2-1.7-0.5-2.5c-0.1-0.1-0.2-0.3-0.2-0.4c-0.6-1.4-1.3-2.6-1.9-3.8c-0.6-1.1-1.6-2.1-3-3
		c-0.5-0.3-1-0.6-1.5-0.9c-0.5-0.4-0.9-0.8-1.3-1.3c-0.4-0.6-0.8-1.1-1.3-1.3c-0.5-0.3-1.1-0.5-1.7-0.8c-0.1,0-0.3,0-0.4-0.1
		c-0.1-0.1-0.3-0.1-0.4-0.1l-5.1-2.3c-0.3-0.1-0.6-0.1-1.1,0.2c-0.4,0.3-0.8,0.5-1.1,0.7c-0.4,0.2-0.7,0.4-0.9,0.7
		c-1.8,1.4-3.4,2.8-4.9,4.3s-2.9,3.1-4.2,5c-0.1,0.1-0.1,0.2-0.2,0.3c-0.5-0.2-0.9-0.1-1.2,0.4c-0.3,0.6-0.9,0.9-1.5,1.1
		c-0.5,0.1-1,0.3-1.3,0.6c-1.2,1.1-2.2,2.4-3.3,3.5c-0.1,0.1-0.2,0.2-0.3,0.3c-0.9,0.8-1.7,1.5-2.6,2.3c-0.7,0.6-1,1.6-1.9,2
		c-0.2,0.1-0.3,0.2-0.3,0.4c-0.3,1-1.2,1.6-1.9,2.3c-0.6,0.5-1.3,1-1.8,1.6c-2,2.1-3.7,4.3-5.5,6.5c-1.1,1.4-2.5,2.6-3.2,4.3
		c0,0.1-0.1,0.1-0.1,0.2c-1.6,1.8-2.9,3.8-4,5.9c-0.1,0.3-0.3,0.4-0.5,0.7c-0.1,0.2-0.7,1.2-1.4,2.4c-0.4,0.6-0.8,1.3-1.3,2.1
		c-0.4,0.8-0.9,1.5-1.3,2.3c-1.8,3.1-3.4,6.3-3.5,6.4s-0.6,0.9-1.1,1.9s-1.1,2.1-1.3,2.9c-0.1,0.2-0.2,0.5-0.4,1
		c-0.3,0.1-0.6,0.1-1.1,0.1c0.3,0.3,0.5,0.5,0.7,0.7c-0.2,0.4-0.4,0.7-0.6,1.2c0,0.1-0.1,0.1-0.1,0.2l-0.5,0.4
		c0.1,0.2,0.2,0.3,0.2,0.4c-0.1,0.2-0.1,0.3-0.2,0.5c-0.2,0.1-0.3,0.3-0.5,0.5c-0.4,0.3-0.8,0.7-1.2,1.2c-0.4,0.6-0.6,0.9-0.5,1
		c0.2,0.4,0.4,0.7,0.4,0.9c-0.2,0.4-0.4,0.8-0.5,1.2c-0.3,0.2-0.7,0.3-1,0.4l-0.4,1.5c-1.1,0.5-1.5,1.5-1.1,2.8
		c0,0.4-0.2,0.8-0.6,1.1c-1.9,0.6-2.3,1.7-1.1,3.2c-0.6,0.3-1,0.6-1.1,0.9c-0.6,1.8-1.3,3.6-2.1,5.4c-0.8,1.8-1.1,3.8-0.9,6
		c0,0.3-0.1,0.4-0.2,0.6c-0.1,1.3-0.3,2.5-0.5,3.6s-0.3,2.3-0.5,3.6c-0.3,1.8-0.2,3.5,0.1,5.2s0.7,3.4,1.2,5.2
		c0.3,0.8,0.5,1.5,0.7,2.1s0.5,1.3,0.9,1.9c0.4,0.6,0.8,1.3,1.2,1.9c0.4,0.6,0.9,1.3,1.2,1.9c0.3,0.6,0.5,1.2,0.7,1.8s0.5,1,1,1.4
		c1.3,1.3,2.2,3,2.8,5.3l0.6,1.1v0.2c0.1,0.1,0.2,0.3,0.2,0.4c0.1,0.1,0.2,0.3,0.2,0.4c0.5,0.6,0.9,1.2,1.3,1.8
		c0.4,0.6,0.9,1.2,1.5,1.8c0-0.5,0-0.9,0.1-1.2s0.1-0.6,0.1-0.9c0.1,0,0.2,0,0.3-0.1s0.2-0.1,0.3-0.1c0.1,1,0.5,1.7,1,2
		c0.6,0.3,1.2,0.5,2,0.5c0.8,0.1,1.5,0.2,2.2,0.2s1.2-0.4,1.6-1.3c0.6-1,1.4-1.1,2.5-0.4c1.4,1.1,2.9,1.7,4.5,1.7s3.3-0.1,4.9-0.4
		c1.6-0.3,3.2-0.6,4.7-1.1s3-1.3,4.4-2.3c0.6-0.4,1.6-1,2.8-1.8c1.3-0.8,2.6-1.7,3.9-2.6c1.3-0.9,2.6-1.7,3.9-2.5
		c1.3-0.8,2.3-1.3,3-1.7c0.3-0.1,0.5-0.3,0.7-0.4c0.2-0.1,0.4-0.3,0.7-0.4c1.6-1.4,3.3-2.8,4.9-4.3c1.6-1.4,3.2-2.9,4.7-4.3
		c1.5-1.5,3.1-2.9,4.8-4.1c1.7-1.2,3.1-2.8,4.1-4.8c0.4-0.4,0.6-0.5,0.6-0.4l1.7-1.7c0.3-0.3,0.5-0.5,0.7-0.8s0.4-0.5,0.7-0.8
		s0.5-0.4,0.9-0.5c0.3-0.1,0.6-0.2,0.9-0.5c1.3-1.3,2.5-2.5,3.7-3.8s2.5-2.6,3.9-4l3.2-3.2C665.4,541.4,664.4,541.2,663.6,541.6z
		 M626.7,534.6c-0.1,0.6-0.2,1-0.5,1.2c-0.8,0.6-1.5,1.2-2.4,1.7c-0.8,0.5-1.7,1-2.6,1.5l-0.6-0.6l2.3-1.7c0.3-0.4,0.6-0.8,0.9-1.1
		c0.4-0.4,0.7-0.8,0.9-1.1c0.4-1,1.1-1.5,2.1-1.5C626.9,533.5,626.8,534,626.7,534.6z M629.6,531.8c-0.3,0.5-0.5,0.8-0.8,0.8
		c-0.4,0.1-1,0.2-1.9,0.2c0.3-0.3,0.4-0.5,0.5-0.7s0.2-0.4,0.5-0.7c0.4-0.4,0.8-0.4,1.3-0.2c0.1,0,0.3,0.1,0.4,0.2
		C629.8,531.6,629.8,531.7,629.6,531.8z M639.5,489.4c0.9-0.5,1.6-1.1,2.3-1.7c0.6-0.6,1.3-1.2,2.1-1.7c0.5-0.4,1-0.8,1.4-1.1
		c0.4-0.4,0.9-0.8,1.4-1.3c0.3-0.1,0.8-0.6,1.5-1.3c0.8-0.8,1.3-1.3,1.5-1.5c0.5-0.5,1.1-0.8,1.7-0.8c0.3,0,0.5,0.2,0.7,0.6
		s0.3,0.7,0.3,0.9c0,1.3,0,2.5,0.1,3.8s0,2.5-0.3,3.8c-0.5,3.7-1.5,7.1-2.8,10.2c-1.4,3.2-3,6.2-4.9,9.3c-0.3,0.3-0.4,0.6-0.5,0.9
		c-0.1,0.4-0.2,0.7-0.3,0.9c0,0.4-0.1,0.7-0.4,0.9c-1,1.3-2,2.5-3,3.8c-1,1.3-2,2.5-3,3.8c-0.8,1-1.5,2-2.4,3c-0.8,1-1.7,2-2.6,3
		l-0.8,0.8c-1.1,1.8-2.4,3.4-3.9,4.8c-1.5,1.5-3.1,2.8-4.8,4.1c-0.6,0.5-1.3,0.9-1.9,1.2c-0.6,0.3-1.3,0.7-1.9,1l-5.7,4
		c-0.3,0.3-0.5,0.4-0.8,0.4c-0.5,0.3-1,0.4-1.4,0.6c-0.4,0.1-0.9,0.3-1.2,0.6c-0.5,0.3-0.9,0.4-1.3,0.5c-0.4,0.1-0.9,0.2-1.7,0.3
		c-0.6,0.3-1.2,0.4-1.7,0.6c-0.5,0.1-1.1,0.3-1.7,0.6c-1,0.4-2.1,0.4-3.2,0.2c-1.1-0.3-2.2-0.4-3.2-0.4l2.5-3.6l0.4-0.4
		c1.1-1,1.9-2.1,2.4-3.4c0.4-1.3,1-2.5,1.6-3.8c0.3-0.5,0.6-0.9,0.9-1.3c0.4-0.4,0.7-0.8,0.9-1.1l0.9-0.9c0.3-0.5,0.5-1,0.8-1.4
		s0.5-0.9,0.8-1.4c0.3-0.8,0.4-1.3,0.4-1.7c0.1-0.5,0.3-0.9,0.4-1.2c0.1-0.3,0.5-0.4,1.1-0.3c0.1,0.1,0.3,0.1,0.6,0s0.4-0.3,0.6-0.4
		c0.9-1.1,1.7-2.3,2.5-3.5s1.6-2.4,2.5-3.5c0.1-0.3,0.2-0.5,0.1-0.9c-0.1-0.3-0.1-0.7-0.1-1c1.6-0.5,2.9-1.4,3.8-2.6
		c0.9-1.3,1.8-2.5,2.8-3.6c0.8-0.8,1.5-1.5,2.4-2.4c0.8-0.8,1.5-1.7,2.2-2.6c0.6-0.9,1.2-1.8,1.6-2.6c0.4-0.9,1-1.8,1.6-2.6
		c0.1-0.3,0.4-0.6,0.9-1.1c0.5-0.3,1-0.5,1.5-0.9c0.5-0.3,0.9-0.7,1.3-1c0.9-0.9,1.7-1.8,2.5-2.8C637.6,490.9,638.5,490,639.5,489.4
		z M584.9,552.9c-0.1,0.7-0.3,1.2-0.7,1.4c0,0.1-0.2,0.2-0.6,0.2c0-0.1,0-0.3-0.1-0.4c-0.1-0.1-0.1-0.3-0.1-0.4
		c0.3-0.5,0.4-0.9,0.6-1.3c0.1-0.4,0.3-0.8,0.6-1.3C584.9,551.6,584.9,552.2,584.9,552.9z"/>
	<path d="M692.3,507.2c-0.3-0.3-0.6-0.5-0.9-0.9c-0.4-0.3-0.7-0.6-0.9-0.9l-1.1-1.1c-0.5,0.5-1,1-1.5,1.5c-0.4,0.5-0.8,1-1.2,1.6
		s-0.8,1.2-1,1.8c-0.8,1.4-1.6,2.8-2.6,4.4c-1.4,1.7-2.7,3.3-4.1,5c-1.3,1.7-2.7,3.4-4.1,5.2c-0.3,0.3-0.4,0.5-0.5,0.8
		s-0.2,0.5-0.5,0.8l0.4,0.4c2.5-2.6,4.9-5.4,7-8.2s4.3-5.8,6.4-8.8c0.3,0.3,0.4,0.5,0.6,0.7c0.1,0.2,0.3,0.4,0.6,0.7
		c-0.1,0-0.2,0-0.3-0.1s-0.2-0.1-0.3-0.1c0,0.4-0.1,0.8-0.4,1.3c-0.3,0.6-0.3,1.4-0.2,2.2s-0.5,1.2-1.9,1.2c-0.1,0-0.2,0.2-0.3,0.7
		s-0.2,0.8-0.3,1l0.6,0.4c-0.6,0.6-1.3,1.2-1.9,1.7c-0.6,0.5-1.2,1.1-1.7,1.7c-0.6,0.9-1.2,1.8-1.7,2.7s-1.1,1.9-1.7,2.9
		c-0.6,0.8-1.2,1.5-1.8,2.2s-1.2,1.4-1.8,2.2s-1.3,1.5-2.1,2.2s-1.5,1.4-2.1,2.2c-0.5,0.4-1,0.8-1.4,1.1c-0.4,0.4-0.9,0.8-1.2,1.1
		c-0.4,0.3-0.7,0.6-0.9,0.9c-0.3,0.4-0.5,0.7-0.8,0.9c-0.9,0.6-1.3,1-1.3,1.2s0.4,0.7,1.1,1.4c0.9-0.5,1.7-1,2.6-1.4
		c0.8-0.4,1.4-1.2,1.6-2.4l0.6-0.6c0.5-0.6,1.1-1.2,1.7-1.7c0.6-0.5,1.1-1.1,1.3-1.7c0.5-0.8,1-1.4,1.6-1.9s1.2-1.1,1.8-1.7
		c0.6-1,1.4-1.9,2.2-2.6c0.8-0.8,1.5-1.6,2.2-2.6c0.3-0.4,0.5-0.9,0.7-1.4c0.2-0.6,0.4-1.1,0.7-1.6c0.6-0.9,1.3-1.8,1.9-2.6
		c0.6-0.9,1.3-1.7,1.9-2.5c0.5-0.6,0.9-1.1,1.2-1.7c0.3-0.5,0.9-1,1.6-1.4c0.6-0.3,1.1-0.8,1.5-1.6c0.4-0.8,0.8-1.5,1.1-2.2v-0.8
		c0-0.3,0-0.5-0.1-0.9C692.3,507.7,692.3,507.5,692.3,507.2z"/>
	<path d="M854,476.9c1.4-0.8,2.9-1.6,4.3-2.6c0.6-0.4,1.1-0.8,1.5-1.1c0.4-0.4,0.8-0.7,1.3-0.9c1.3-0.6,2.5-1.2,3.7-1.8
		c1.2-0.6,2.4-1.2,3.7-2c1.5-1,2.9-2,4.3-2.9c1.3-0.9,2.7-1.9,4.3-2.9c1.5-1.1,3-2.3,4.4-3.5s3-2.3,4.7-3.3c0.6-0.6,1.3-1.3,2.1-2
		s1.5-1.3,2.3-1.8c1.3-0.8,2.1-1.8,2.6-3.2c0.4-1.4,1.4-2.3,2.7-2.8v-0.4c1-1.4,2-2.8,3.1-4.4c1.1-1.5,2.1-3.1,3.1-4.7
		c1-1.4,2-2.8,2.9-4.2c0.9-1.4,1.4-3,1.4-4.9c0.3-0.6,0.3-1.3,0.3-2.1c-0.1-0.8,0-1.4,0.1-2.1c-0.1-0.6-0.1-1.3,0-1.9
		s0.2-1.2,0.2-1.7c-0.4-2.5-1.2-4.8-2.5-6.9s-2.2-4.3-2.8-6.7c-0.1-0.1-0.2-0.3-0.2-0.4v-0.2c-2-2-4.2-4-6.4-5.9
		c-1.1-0.8-2.3-1.5-3.6-2.3s-2.5-1.5-3.8-2.3c-0.6-0.3-1.3-0.5-2-0.7s-1.4-0.5-2-0.9c-1.4-1.3-2.9-2-4.6-2.4
		c-1.7-0.3-3.4-0.6-5.2-0.9c-1.5-0.3-3-0.4-4.4-0.4c-1.5,0-2.9,0-4.4,0c-2.4-0.3-4.9-0.3-7.4,0s-5,0.6-7.6,0.9
		c-1.3,0.3-2.2,0.5-2.8,0.8c-1.4,0.3-2.7,0.5-4,0.9c-1.3,0.3-2.5,0.6-3.8,0.9c-1,0.3-2,0.6-2.9,0.9c-0.9,0.4-1.9,0.7-2.9,0.9
		c-1,0.4-2,0.7-3,1s-2,0.7-3,1c-0.9,0.5-1.8,1-2.7,1.5s-2,0.9-3.1,1.3c-1.4,0.3-2.2,0.4-2.6,0.6c-0.3,0.1-0.9,0.6-1.8,1.5
		c-0.8,0.5-1.5,0.9-2.1,1.2c-0.6,0.3-1.3,0.7-2.1,1.2c-2.9,1.8-5.8,3.5-8.7,5.1s-5.8,3.4-8.7,5.3c-2.3,1.4-4.6,2.9-7.1,4.4
		c-2.5,1.6-4.8,3.1-6.9,4.6c-0.8,0.6-1.6,1.3-2.6,1.9c-0.9,0.6-1.8,1.3-2.6,1.9c-0.9,0.8-1.8,1.5-2.6,2.2c-0.9,0.7-1.9,1.4-3,2
		c-1.9,1.4-3.8,2.8-5.6,4.4c-1.8,1.5-3.7,2.9-5.6,4.2c-1,0.6-2,1.2-3,1.8c-1,0.6-1.9,1.4-2.6,2.4c-0.3,0.4-0.5,0.8-0.7,1.2
		c-0.2,0.4-0.4,0.9-0.7,1.4c-0.3,0.3-0.4,0.5-0.5,0.8s-0.2,0.4-0.5,0.4c-1,0.3-1.7,0.7-2.2,1.3c-0.4,0.6-0.7,1.3-0.7,1.9
		s0,1.4-0.1,2.3s0.5,1.5,1.6,1.7c0.3,0,0.4,0.3,0.4,0.9c0.3,0.6,0.5,1.3,0.7,1.9s0.5,1.3,0.9,1.9c1,1.4,2.2,2.5,3.6,3.2
		c1.4,0.8,2.8,1.4,4.2,1.9c0.3,0.1,0.6,0.1,0.9-0.1c0.4-0.2,0.8-0.3,1.1-0.5c0.3-0.1,0.5-0.3,0.7-0.4s0.4-0.3,0.7-0.4
		c1-0.5,2-0.9,2.8-1.3c0.9-0.4,1.6-0.9,2.3-1.5c1.4-1,2.8-2.1,4.2-3.2s2.8-2.2,4.2-3.2c1.4-1.4,2.8-2.7,4.4-4.1
		c1.5-1.3,3-2.7,4.5-4.1c1.5-1.5,3.2-2.9,4.9-4.3c1.8-1.3,3.5-2.5,5.3-3.5c0.8-0.5,1.5-1,2.3-1.6s1.6-1.2,2.6-1.8
		c-0.5,1-0.8,1.8-0.9,2.4c-0.1,0.6-0.3,1.2-0.6,1.8c-0.8,1.4-1.5,2.8-2.2,4.2c-0.7,1.4-1.4,2.9-2,4.5c-0.8,1.4-1.4,2.9-2,4.4
		c-0.6,1.6-1.2,3.1-2,4.4c-0.3,1-0.6,1.9-1,2.6s-0.9,1.4-1.2,2.2c-1,2.1-2,4.2-2.8,6.2c-0.9,2-1.8,3.9-2.8,6
		c-0.6,1.6-1.3,3.3-1.9,5.1c-0.6,1.8-1.3,3.5-2.1,5.3c-0.3,0.9-0.6,1.4-1.1,1.5c-1.8,1-3.6,1.7-5.4,2.2c-1.8,0.4-3.6,0.6-5.4,0.5
		c-1.3,0-2.4-0.1-3.5-0.3c-1.1-0.2-2.2-0.4-3.3-0.7c-1.4-0.5-2.5-1.4-3.2-2.6c-0.8-1.2-1.7-2.5-2.8-3.9c0.5-1.4,0.4-2.5-0.2-3.4
		c-0.6-0.9-1.1-1.8-1.5-2.8h-0.4c-0.3,1.3-0.5,2.2-0.8,2.8c0.5,0.3,0.9,0.6,1.3,1.1c-1,0.1-1.6,0.4-1.7,0.9c-0.1,0.4-0.1,1,0.2,1.6
		v0.8c0.1,0.6,0.2,1.1,0.2,1.5s0.1,0.9,0.2,1.5c0.3,0.5,0.4,0.9,0.4,1.1c0.1,1.8,0.4,3.5,0.8,5.3c0.4,1.8,1.2,3.4,2.5,4.9
		c0.6,0.3,1.1,0.6,1.5,0.9c0.4,0.4,0.7,0.8,0.9,1.3c0.6,1.3,1.2,2.4,1.7,3.5s1.1,2.2,1.7,3.5c0,0.1,0.1,0.2,0.2,0.2h0.4
		c1.1,0.6,2.2,1.3,3.2,2s2,1.4,3,2c0.4,0.3,0.6,0.8,0.6,1.7c-0.3,1.4-0.5,2.7-0.9,3.9c-0.3,1.2-0.6,2.4-0.9,3.5
		c-0.9,2.5-1.7,5-2.5,7.4s-1.5,5-2.1,7.8c-0.9,3.3-1.6,6.6-2.3,9.9c-0.3,1.5-0.6,3-0.8,4.4c-1,2.6-2,5.2-3,7.7
		c-0.8,2.1-0.1,3.8,1.2,4.9c-0.1,0.7-0.2,1.5-0.3,2.2c-0.4,3.2-0.8,6.3-1.1,9.2c-0.4,4.2-0.4,8.3,0,12.5c0.1,0.8,0.2,1.6,0.3,2.3
		c0,0.1,0,0.2,0,0.3c0,0.3,0.1,0.6,0.1,0.9c0.1,0.5,0.1,1.1,0.2,1.6c0.2,1.6,0.5,3.2,0.9,4.7c0.1,1,0.4,1.9,0.9,2.6
		c0.4,0.7,0.8,1.4,1,2c0.6,0.6,1.2,1.3,1.7,2.1s1.3,1.1,2.5,1.1c0.1,0,0.2,0.1,0.2,0.2c0,0.3,0.1,0.4,0.2,0.4
		c0.3,0.1,0.5,0.2,0.7,0.2s0.4,0.1,0.7,0.2c0-0.3,0.1-0.5,0.3-0.8s0.3-0.5,0.3-0.8c-0.3-0.4-0.5-0.8-0.7-1.1
		c-0.2-0.4-0.4-0.8-0.7-1.3c-0.1-0.1-0.1-0.3,0.2-0.6c0.5-0.3,0.8-0.4,0.9-0.6c0.1-0.5,0.2-1,0.3-1.4s0.1-1,0.1-1.6
		c0.1-1.6,0.1-3.2-0.1-4.7c0-0.2,0-0.5,0-0.7c0.3-0.6,0.4-1.4,0.4-2.2c0.2-0.5,0.5-1.1,0.8-1.6v-0.6c0.1-1.3,0.7-2,1.7-2.1
		c0.6,0,0.9-0.3,0.9-0.8c0.3-1.3,0.4-2.6,0.6-3.9c0.1-1.3,0.4-2.6,0.8-3.9c0.1-1,0.2-2,0.1-3c-0.1-1,0.6-2,2-2.8
		c0.1-0.1,0.2-0.2,0.2-0.3s0.1-0.2,0.2-0.3c0.1-0.8,0.2-1.5,0.3-2.4c0.1-0.8,0.2-1.7,0.5-2.6c0-0.3,0-0.5-0.1-0.8s0-0.6,0.1-1.1
		c1-1.3,1.8-2.6,2.4-3.9c0.6-1.3,0.9-2.8,0.9-4.4c-0.3-1.3-0.1-2.3,0.6-3.2c0.5-0.8,0.8-1.5,0.9-2.3c0.1-0.8,0.2-1.5,0.5-2.3
		c0-0.3,0.1-0.6,0.4-1.1c0.3-0.6,0.4-1.2,0.6-1.8c0.1-0.6,0.3-1.2,0.6-1.8s0.4-1.3,0.5-1.9c0.1-0.6,0.2-1.1,0.5-1.3
		c1.3-0.6,1.8-1.6,1.5-2.8c0.3-0.8,0.5-1.3,0.8-1.5c0.4-0.5,0.7-1,0.9-1.5s0-1-0.5-1.5c0.6-0.5,1.1-1,1.4-1.6c0.3-0.6,0.2-1.2-0.5-2
		c-0.1-0.1-0.1-0.4,0.1-0.9c0.2-0.4,0.3-0.7,0.5-0.7c0.6,0,1.1-0.2,1.4-0.6c0.3-0.4,0.6-0.8,0.9-1.1c0.3-1,0.5-2.1,0.9-3.2
		c0.3-1.1,0.3-2.3,0.1-3.4c0-0.8,0.3-1.4,0.8-1.9c1.4-0.8,2.1-2,2.1-3.6c-0.1-0.1,0-0.4,0.4-0.8c0.1-0.3,0.3-0.6,0.4-0.9
		c0.1-0.4,0.3-0.7,0.4-0.9c-0.1-0.9,0-1.5,0.3-2c0.3-0.4,0.8-0.9,1.4-1.2c0.6-0.3,1.2-0.5,1.8-0.7s1.2-0.4,1.8-0.7
		c1-0.6,2-1.1,3.1-1.4s2.1-1,3.1-2c1.4,0.5,2.8,0.2,4.2-0.9c0.1-0.4,0.5-0.7,1.1-0.9c1.4-0.5,2.7-1,4-1.5s2.6-1.1,4-1.7
		s2.7-1.2,4.1-1.8c1.3-0.6,2.7-1.2,4.1-1.8c0-0.3,0-0.5-0.1-0.7s0-0.5,0.1-0.9h1.3c0.6-0.1,1.3-0.1,2.1,0s1.3-0.4,1.7-1.5
		c0-0.1,0.3-0.2,0.9-0.2c0.4-0.3,0.8-0.4,1.3-0.5s0.9-0.2,1.3-0.5c0.8-0.5,1.5-0.9,2.3-1.3s1.4-0.8,2.1-1.1c1.8-1,3.4-2,4.9-3.1
		s3.2-2.1,4.9-3.1C851,478.6,852.6,477.7,854,476.9z M772.5,516.5c0.2-0.8,0.5-1.4,0.8-1.9c0-0.1,0.1-0.1,0.1-0.2
		C773.1,515.1,772.8,515.8,772.5,516.5z M789.8,476c-0.3,0.6-1,1.3-2.3,2.1c0.5-0.6,0.9-1.3,1-2c0.2-0.7,0.5-1.5,1-2.6
		C790,474.5,790,475.3,789.8,476z M841.4,455.8c-2,1.1-4.2,2.2-6.4,3.5c-2.3,1.3-4.6,2.6-6.9,3.9c-2.3,1.3-4.7,2.6-7.1,3.9
		c-1.6,0.8-3.2,1.5-4.8,2.2s-3.2,1.4-5,2.2c-0.3,0.1-0.5,0.2-0.7,0.1s-0.4-0.1-0.7-0.1c0.5-1,0.9-2,1.1-2.8c0.3-0.9,0.7-1.8,1.3-2.6
		c0.6-0.9,1.2-1.8,1.6-2.8c0.4-1,0.8-2,1-3c0-0.3,0.2-0.6,0.6-0.9c0.3-0.4,0.6-0.8,1.1-1.2c0.5-0.4,0.8-1,0.9-1.6
		c0-0.3,0.2-0.5,0.6-0.8c0.4-0.3,0.7-0.5,0.9-0.8c-0.5-0.5-0.8-0.9-0.8-1.1c0.5-0.8,1-1.4,1.4-2.1c0.4-0.6,1-1.3,1.6-2.1
		c0.3-0.4,0.4-0.8,0.5-1.2c0.1-0.4,0.2-0.9,0.5-1.4c0.3-0.3,0.5-0.7,0.8-1.3c0.4-0.6,0.8-1.2,1.1-1.6c0.4-0.4,0.8-0.9,1.1-1.4
		c1-0.8,1.6-1.4,1.7-1.9c0.6-1.1,1.1-2.4,1.5-3.7c0.4-1.3,0.9-2.6,1.7-3.9c0.4-0.8,0.9-1.5,1.4-2.3c0.6-0.8,1.1-1.5,1.6-2.3
		c0.4-0.5,0.9-1.1,1.7-1.9c1-1.1,1.6-2.4,1.9-3.8c0.3-1.4,0.8-2.8,1.7-4.2c0.4-0.8,0.6-1.6,0.8-2.5c0.1-0.9,0.3-1.8,0.6-2.6
		c0-0.4,0.2-0.8,0.6-1.1c1-0.5,1.9-0.9,2.7-1.3s1.7-0.7,2.6-0.9c1.9-0.6,3.8-1.1,5.8-1.5s3.9-0.8,5.8-1.3c1-0.3,2-0.4,3.1-0.5
		s2.2-0.2,3.3-0.5c2.1-0.6,4.3-0.9,6.4-0.8c2.1,0.1,4.3,0.2,6.4,0.2c1.8-0.3,3.3-0.2,4.7,0.3c1.4,0.4,3,0.9,4.7,1.2
		c1.3,0.3,2.4,0.6,3.4,0.9c1,0.4,2,0.7,3,0.9c1.4,0.4,1.7,1.3,0.9,2.6c-0.6,1.5-1.2,3-1.8,4.4s-1.3,2.6-2.2,3.8
		c-2,2.9-4.2,5.4-6.4,7.4c-2.5,2.5-5.5,5-8.9,7.4c-2.1,1.5-4.2,2.9-6.2,4.3c-2,1.3-4.1,2.7-6.2,4.1c-2.3,1.5-4.6,3.1-7,4.6
		c-2.4,1.6-4.8,3.1-7.2,4.4C845.5,453.5,843.5,454.7,841.4,455.8z"/>
	<path d="M937.5,541.6c-0.8,0.3-1.5,0.8-2,1.4c-1.6,1.9-3.3,3.7-5.1,5.3s-3.6,3.2-5.5,4.7c-0.4,0.3-0.7,0.5-1,0.9
		c-0.3,0.3-0.7,0.6-1,0.9c-0.3,0.1-0.5,0.1-0.9,0c-0.3-0.1-0.6-0.2-0.9-0.2c0.3-0.3,0.4-0.4,0.5-0.6c0.1-0.1,0.2-0.3,0.5-0.4
		c0.1-0.1,0.3-0.2,0.4-0.3c0.1-0.1,0.3-0.2,0.4-0.3c0.8-0.8,1.5-1.5,2.4-2.4c0.8-0.8,1.6-1.7,2.4-2.6c0.3-0.3,0.5-0.5,0.7-0.9
		c0.2-0.3,0.4-0.7,0.7-1c2.9-3.2,5.9-6.3,9-9.5s6.2-6.4,9.2-9.7c-0.1-0.3-0.3-0.4-0.4-0.5c-0.1-0.1-0.3-0.2-0.4-0.3
		c-0.4,0.5-0.8,1-1.1,1.5c-0.4,0.5-0.8,0.9-1.3,1.3c-1.8,1.8-3.6,3.5-5.4,5.1c-1.8,1.6-3.7,3.3-5.6,4.9c-2.1,2.1-4.3,4.2-6.4,6.2
		c-2.1,2-4.4,4-6.6,6.1c-2.6,2.3-5.3,4.5-7.9,6.8c-2.7,2.3-5.4,4.5-8.1,6.6c-1.1,0.8-2.5,1.7-4.1,2.9s-3.2,2.4-5,3.6
		c-1.8,1.2-3.5,2.3-5.1,3.4c-1.6,1.1-3,2-4.2,2.7c-2.1,1.4-4.8,2.5-7.9,3.3c-3.2,0.8-6,1-8.5,0.7c-1.4-0.3-2.5-0.9-3.2-2.1
		c-0.4-0.6-0.6-1.3-0.7-2c-0.1-0.7-0.2-1.4-0.3-2l-0.6-1.1c-0.3-0.9-0.6-1.4-0.9-1.5c-0.8-0.6-0.9-1.4-0.4-2.3
		c0.5-0.8,0.6-1.4,0.2-2.1c-0.9-1.5-0.8-2.8,0.4-4c0.3-0.1,0.5-0.4,0.8-0.9c0.1-0.6,0.3-1.3,0.4-1.9c0.1-0.6,0.3-1.3,0.6-1.9
		c-0.3-0.2-0.6-0.5-1-0.7s-0.3-0.6,0.3-1.2c0.3-0.3,0.4-0.5,0.5-0.7s0.2-0.4,0.5-0.7c0.1-0.3,0.2-0.5,0.3-0.8s0.2-0.4,0.5-0.6
		c1.4-0.8,2-1.8,1.7-3l1.1-0.6l0.2,0.2c1.6,0.4,3.8,0.5,6.6,0.4s5-0.4,6.6-0.8h0.2c0.4,0,0.9-0.1,1.7-0.4c2-0.6,4-1.2,6.1-1.8
		c2-0.6,3.9-1.5,5.7-2.9c0.1-0.1,0.3-0.2,0.6-0.2c0.9-0.6,1.7-1.2,2.6-1.7c0.8-0.5,1.6-1.1,2.4-1.7c0.6-0.5,1.2-1,1.8-1.5
		s1.2-1,1.8-1.5c0.8-0.6,1.6-1.3,2.5-1.9c0.9-0.6,1.6-1.3,2.3-1.9c0.9-1,1.7-2,2.4-3.1s1.7-1.9,2.9-2.6c0.4-0.1,0.7-0.5,0.9-1.1
		c0.4-1,0.8-1.8,1.3-2.5c0.6-1,1.3-1.9,2-2.7s1.4-1.6,2-2.6c0.8-1,1.5-2.1,2.3-3.2s1.5-2.3,2.3-3.4c1.3-1.5,2.5-3.3,3.6-5.3
		c0.8-1.1,1.4-2.3,2.1-3.6c0.1-0.3,0.2-0.5,0.2-0.9c0-0.3,0.1-0.6,0.4-0.9c0.6-0.5,1-1,1-1.6c0.1-0.6,0.2-1.2,0.5-1.8
		c0.3-0.8,0.4-1.5,0.6-2.2c0.1-0.7,0.3-1.4,0.4-2.2c0.3-0.8,0.6-1.5,1.1-2.2s0.2-1.4-0.9-2.2c0.1-0.3,0.3-0.5,0.4-0.7
		c0.1-0.2,0.2-0.3,0.2-0.5c-0.5-1.4-0.5-2.8,0-4.2c0.5-1.4,0.4-2.8-0.2-4.2c-0.6-1.3-1.1-2.5-1.4-3.8c-0.3-1.3-0.8-2.6-1.4-4
		c-0.4-0.9-0.6-1.8-0.7-2.6c-0.1-0.9-0.2-1.7-0.5-2.5c-0.1-0.1-0.2-0.3-0.2-0.4c-0.6-1.4-1.3-2.6-1.9-3.8c-0.6-1.1-1.6-2.1-3-3
		c-0.5-0.3-1-0.6-1.5-0.9c-0.5-0.4-0.9-0.8-1.3-1.3c-0.4-0.6-0.8-1.1-1.3-1.3c-0.5-0.3-1.1-0.5-1.7-0.8c-0.1,0-0.3,0-0.4-0.1
		c-0.1-0.1-0.3-0.1-0.4-0.1l-5.1-2.3c-0.3-0.1-0.6-0.1-1.1,0.2c-0.4,0.3-0.8,0.5-1.1,0.7c-0.4,0.2-0.7,0.4-0.9,0.7
		c-1.8,1.4-3.4,2.8-4.9,4.3s-2.9,3.1-4.2,5c-1,1.6-2.2,3.1-3.7,4.4s-2.8,2.7-4.1,4.3c-1.3,1.4-2.5,2.7-3.8,4s-2.4,2.6-3.4,4.2
		c-0.4,0.6-0.9,1.2-1.6,1.7c-0.7,0.5-0.9,1.3-0.5,2.5h-0.8c-1,0.3-2,0.9-3,1.9s-1.5,1.9-1.3,2.6c0.3,1.4-0.1,2.2-1.1,2.5
		c-0.4,0.6-0.7,1.1-0.9,1.5c-0.3,0.4-0.5,0.8-0.8,1.1c-0.1,0-0.2,0-0.3-0.1s-0.2-0.1-0.3-0.1c0.1-0.3,0.3-0.8,0.6-1.5
		c-2.3,2.9-4.4,5.6-6.2,7.9c0.3,0.4,0.5,0.7,0.8,1c0.1,0.2,0.3,0.3,0.4,0.4c-0.2,0.2-0.4,0.4-0.5,0.6c-0.3,0-0.6,0.1-0.8,0.2
		c0,0.2,0.1,0.4,0.1,0.7c-0.9,1-1.8,2.1-2.6,3.1c-0.1,0-0.2,0-0.2,0.1c-0.1,0.1-0.2,0.1-0.3,0.1c-0.2,0.4-0.4,0.8-0.6,1.2
		c-0.7,0.9-1.5,1.9-2.2,2.8c-1,1.4-2.2,2.8-3.3,4.3c-0.1,0-0.2,0-0.3,0c0.1,0.1,0.1,0.1,0.2,0.2c-7,9.1-14.7,20-13.2,31.3
		c0.1,1,0.5,1.8,1,2.5c-0.2,1.1-0.3,2.2-0.4,3.3c-0.3,1.8-0.2,3.5,0.1,5.2s0.7,3.4,1.2,5.2c0.3,0.8,0.5,1.5,0.7,2.1s0.5,1.3,0.9,1.9
		c0.4,0.6,0.8,1.3,1.2,1.9c0.4,0.6,0.9,1.3,1.2,1.9c0.3,0.6,0.5,1.2,0.7,1.8s0.5,1,1,1.4c1.3,1.3,2.2,3,2.8,5.3l0.6,1.1v0.2
		c0.1,0.1,0.2,0.3,0.2,0.4c0.1,0.1,0.2,0.3,0.2,0.4c0.5,0.6,0.9,1.2,1.3,1.8c0.4,0.6,0.9,1.2,1.5,1.8c0-0.5,0-0.9,0.1-1.2
		s0.1-0.6,0.1-0.9c0.1,0,0.2,0,0.3-0.1s0.2-0.1,0.3-0.1c0.1,1,0.5,1.7,1,2c0.6,0.3,1.2,0.5,2,0.5c0.8,0.1,1.5,0.2,2.2,0.2
		s1.2-0.4,1.6-1.3c0.6-1,1.4-1.1,2.5-0.4c1.4,1.1,2.9,1.7,4.5,1.7s3.3-0.1,4.9-0.4c1.6-0.3,3.2-0.6,4.7-1.1s3-1.3,4.4-2.3
		c0.6-0.4,1.6-1,2.8-1.8c1.3-0.8,2.6-1.7,3.9-2.6c1.3-0.9,2.6-1.7,3.9-2.5c1.3-0.8,2.3-1.3,3-1.7c0.3-0.1,0.5-0.3,0.7-0.4
		c0.2-0.1,0.4-0.3,0.7-0.4c1.6-1.4,3.3-2.8,4.9-4.3c1.6-1.4,3.2-2.9,4.7-4.3c1.5-1.5,3.1-2.9,4.8-4.1c1.7-1.2,3.1-2.8,4.1-4.8
		c0.4-0.4,0.6-0.5,0.6-0.4l1.7-1.7c0.3-0.3,0.5-0.5,0.7-0.8s0.4-0.5,0.7-0.8s0.5-0.4,0.9-0.5c0.3-0.1,0.6-0.2,0.9-0.5
		c1.3-1.3,2.5-2.5,3.7-3.8s2.5-2.6,3.9-4l3.2-3.2C939.3,541.4,938.3,541.2,937.5,541.6z M900.6,534.6c-0.1,0.6-0.2,1-0.5,1.2
		c-0.8,0.6-1.5,1.2-2.4,1.7c-0.8,0.5-1.7,1-2.6,1.5l-0.6-0.6l2.3-1.7c0.3-0.4,0.6-0.8,0.9-1.1c0.4-0.4,0.7-0.8,0.9-1.1
		c0.4-1,1.1-1.5,2.1-1.5C900.7,533.5,900.6,534,900.6,534.6z M903.5,531.8c-0.3,0.5-0.5,0.8-0.8,0.8c-0.4,0.1-1,0.2-1.9,0.2
		c0.3-0.3,0.4-0.5,0.5-0.7s0.2-0.4,0.5-0.7c0.4-0.4,0.8-0.4,1.3-0.2c0.1,0,0.3,0.1,0.4,0.2C903.6,531.6,903.6,531.7,903.5,531.8z
		 M873.4,540.5l0.4-0.4c1.1-1,1.9-2.1,2.4-3.4c0.4-1.3,1-2.5,1.6-3.8c0.3-0.5,0.6-0.9,0.9-1.3c0.4-0.4,0.7-0.8,0.9-1.1l0.9-0.9
		c0.3-0.5,0.5-1,0.8-1.4s0.5-0.9,0.8-1.4c0.3-0.8,0.4-1.3,0.4-1.7c0.1-0.5,0.3-0.9,0.4-1.2c0.1-0.3,0.5-0.4,1.1-0.3
		c0.1,0.1,0.3,0.1,0.6,0s0.4-0.3,0.6-0.4c0.9-1.1,1.7-2.3,2.5-3.5s1.6-2.4,2.5-3.5c0.1-0.3,0.2-0.5,0.1-0.9c-0.1-0.3-0.1-0.7-0.1-1
		c1.6-0.5,2.9-1.4,3.8-2.6c0.9-1.3,1.8-2.5,2.8-3.6c0.8-0.8,1.5-1.5,2.4-2.4c0.8-0.8,1.5-1.7,2.2-2.6c0.6-0.9,1.2-1.8,1.6-2.6
		c0.4-0.9,1-1.8,1.6-2.6c0.1-0.3,0.4-0.6,0.9-1.1c0.5-0.3,1-0.5,1.5-0.9c0.5-0.3,0.9-0.7,1.3-1c0.9-0.9,1.7-1.8,2.5-2.8
		s1.6-1.8,2.6-2.5c0.9-0.5,1.6-1.1,2.3-1.7c0.6-0.6,1.3-1.2,2.1-1.7c0.5-0.4,1-0.8,1.4-1.1c0.4-0.4,0.9-0.8,1.4-1.3
		c0.3-0.1,0.8-0.6,1.5-1.3c0.8-0.8,1.3-1.3,1.5-1.5c0.5-0.5,1.1-0.8,1.7-0.8c0.3,0,0.5,0.2,0.7,0.6s0.3,0.7,0.3,0.9
		c0,1.3,0,2.5,0.1,3.8s0,2.5-0.3,3.8c-0.5,3.7-1.5,7.1-2.8,10.2c-1.4,3.2-3,6.2-4.9,9.3c-0.3,0.3-0.4,0.6-0.5,0.9
		c-0.1,0.4-0.2,0.7-0.3,0.9c0,0.4-0.1,0.7-0.4,0.9c-1,1.3-2,2.5-3,3.8s-2,2.5-3,3.8c-0.8,1-1.5,2-2.4,3c-0.8,1-1.7,2-2.6,3l-0.8,0.8
		c-1.1,1.8-2.4,3.4-3.9,4.8c-1.5,1.5-3.1,2.8-4.8,4.1c-0.6,0.5-1.3,0.9-1.9,1.2c-0.6,0.3-1.3,0.7-1.9,1l-5.7,4
		c-0.3,0.3-0.5,0.4-0.8,0.4c-0.5,0.3-1,0.4-1.4,0.6c-0.4,0.1-0.9,0.3-1.2,0.6c-0.5,0.3-0.9,0.4-1.3,0.5c-0.4,0.1-0.9,0.2-1.7,0.3
		c-0.6,0.3-1.2,0.4-1.7,0.6c-0.5,0.1-1.1,0.3-1.7,0.6c-1,0.4-2.1,0.4-3.2,0.2c-1.1-0.3-2.2-0.4-3.2-0.4L873.4,540.5z M868.7,529.4
		c0.9-1.1,1.9-1.7,3-1.8c-0.8,1-1.5,1.9-2.1,2.7s-1.3,1.7-2.1,2.7C867.4,531.7,867.8,530.5,868.7,529.4z M858.8,552.9
		c-0.1,0.7-0.3,1.2-0.7,1.4c0,0.1-0.2,0.2-0.6,0.2c0-0.1,0-0.3-0.1-0.4c-0.1-0.1-0.1-0.3-0.1-0.4c0.3-0.5,0.4-0.9,0.6-1.3
		c0.1-0.4,0.3-0.8,0.6-1.3C858.7,551.6,858.8,552.2,858.8,552.9z M861.6,545.4c-0.4,1.1-1,2.3-1.6,3.4h-0.6c0-1,0.1-1.7,0.4-2.1
		c0.4-0.8,0.8-1.5,1.2-2.2s0.8-1.4,1-2.2c0-0.3,0.3-0.5,0.8-0.8c0,0.3,0.1,0.4,0.4,0.4C862.6,543.2,862,544.3,861.6,545.4z"/>
	<path d="M1067.7,457.3c-0.9-0.9-1.7-2-2.2-3.1c0-0.1-0.1-0.2-0.4-0.2c-1.1-0.3-2-0.7-2.6-1.4c-0.6-0.7-1.2-1.4-1.8-2.2
		c-0.9-1.1-2.2-1.9-4.1-2.3c-1.8-0.4-3.4-0.7-4.6-0.9c-1.3-0.5-2.2-0.4-2.8,0.2c-0.8,0.6-1.5,1.3-2.2,1.9s-1.2,1.4-1.6,2.3
		c-0.1,1-0.6,2-1.5,2.8l-0.6,0.6c-0.1,0.1-0.3,0.4-0.6,0.8c-0.3,0.3-0.5,0.6-0.7,1s-0.4,0.9-0.7,1.4v0.2c-0.1,0.1-0.2,0.3-0.3,0.4
		c-0.1,0.1-0.2,0.3-0.3,0.4c0,0.1-0.1,0.3-0.2,0.4c-0.6,0.5-1.3,1-1.9,1.5s-1.2,1.1-1.7,1.7c-1.5,1.8-3.1,3.2-4.9,4.2
		c-0.1,0.1-0.3,0.2-0.4,0.3c-0.1,0.1-0.3,0.2-0.4,0.5c-0.5,1.3-1.1,2.4-1.7,3.5s-1.5,2-2.6,2.7c-0.5,0.4-1.3,0.8-2.3,1.3
		c-0.3,0.3-0.4,0.6-0.6,1c-0.1,0.4-0.3,0.8-0.6,1c-0.6,0.6-1.3,1.3-1.9,1.9c-0.6,0.6-1.4,1.2-2.3,1.7c-0.6,0.4-1.2,0.9-1.6,1.6
		c-0.4,0.7-0.9,1.3-1.4,1.9s-1.1,1-1.7,1.4c-0.6,0.4-1.5,0.5-2.5,0.4c-0.1,0-0.2,0.1-0.2,0.2l-0.2,0.4c-0.6,0.8-1.2,1.5-1.7,2.3
		s-1.1,1.5-1.7,2.1c-1.1,1.1-2.3,2.3-3.5,3.4s-2.4,2.3-3.5,3.6c-1.9,2.4-3.8,4.8-5.6,7.1c-1.8,2.3-3.7,4.7-5.6,7.1
		c-0.3,0.4-0.6,0.6-0.9,0.8c-0.4,0.1-0.8,0.3-1.1,0.6c-0.4-0.1-0.6-0.4-0.8-0.8c0.4-0.8,0.7-1.5,1-2.4c0.3-0.8,0.7-1.5,1.2-2.2
		c0.8-1.1,1.6-2.2,2.5-3.2s1.6-2,2.3-3c0.8-1,1.4-2.1,2-3.3c0.6-1.2,1.2-2.5,2-3.9c-0.8,0.3-1.1,0.4-0.9,0.4h-0.2
		c-2.1,2.6-4.2,5.4-6.2,8.2c-2,2.8-4.2,5.5-6.4,8c-0.4,0.5-0.6,1.1-0.8,1.7c-0.1,0.6-0.3,1.3-0.6,1.9c-0.3,0.1-0.6,0.3-1,0.5
		s-0.8,0.5-1,0.9c-1,1.4-2,2.8-3,4.4c-1,1.5-2.1,3-3.2,4.4c-0.8,1-1.4,2.1-1.9,3.4c-0.5,1.3-1.3,2.4-2.3,3.4s-1.9,2.2-2.6,3.5
		c-0.7,1.3-1.4,2.6-2.2,3.9c-0.1,0-0.2,0-0.3,0.1s-0.2,0.1-0.3,0.1c0-0.3,0-0.5-0.1-0.8s-0.1-0.5-0.1-0.8c0.1-0.3,0.3-0.5,0.4-0.9
		c0.1-0.3,0.3-0.7,0.6-1c0.6-1.3,1.3-2.5,1.9-3.8c0.6-1.3,1.3-2.6,1.9-4l0.4-0.8c0.6-1.6,1.2-3.3,1.7-4.9c0.5-1.6,1.7-2.9,3.6-3.8
		c-0.6-0.6-0.9-1.6-0.7-3s0.6-2.3,1.2-2.8c1-0.9,2-1.8,3-2.6c1-0.9,1.5-2.1,1.5-3.8c0-0.3,0.1-0.4,0.3-0.6c0.2-0.1,0.4-0.3,0.7-0.6
		c0.3-0.3,0.5-0.5,0.8-0.8s0.5-0.5,0.8-0.8c0.6-1.1,1.2-2.3,1.7-3.5s1.3-2.3,2.3-3.3c1.3-1.4,2.3-2.9,3.2-4.4
		c0.9-1.6,1.8-3.1,2.8-4.6s2-3,2.8-4.4c0.9-1.4,1.8-2.9,2.8-4.3c0.5-0.9,1-1.7,1.5-2.6c0.5-0.8,0.9-1.7,1.1-2.7
		c0.1-0.6,0-1.4-0.3-2.3s-0.8-1.8-1.3-2.6c-0.6-0.9-1.2-1.6-1.9-2.3c-0.7-0.6-1.4-1-2-1.1c-1-0.3-1.9-0.6-2.7-1s-1.7-0.4-2.7,0.1
		c-0.6,0.3-1.3,0.3-1.9,0c-0.6-0.3-1.5-0.5-2.5-0.8c1-1.1,2-1.6,2.9-1.3c0.9,0.3,1.8,0.3,2.6,0c-0.9-1-1.8-1.5-2.8-1.4
		s-2.1,0.3-3.2,0.7c-1.5,0.5-2.3-0.1-2.3-1.9c-1.3-0.5-2.3-0.5-3.2,0s-1.6,1.3-2.1,2.3c-1.6,2.7-3.2,5.3-4.7,8.1
		c-1.5,2.7-3,5.5-4.4,8.2c-1.8,3.3-3.5,6.6-5.1,10s-3.3,6.7-4.9,10c-1.3,2.5-2.5,5.1-3.7,7.7s-2.3,5.2-3.3,7.9c-1.1,3-2.2,6-3.2,9.2
		c-0.2,0.2-0.3,0.4-0.4,0.6c-0.3,0.3-0.4,0.5-0.5,0.8s-0.2,0.5-0.5,0.8l0.4,0.4c0.1-0.1,0.2-0.3,0.4-0.4c-0.8,2.6-1.6,5.2-2.3,7.7
		c-0.4,0.4-0.9,0.9-1.2,1.4c-0.5,0.4-1,0.8-1.4,1.1c-0.4,0.4-0.9,0.8-1.2,1.1c-0.4,0.3-0.7,0.6-0.9,0.9c-0.3,0.4-0.5,0.7-0.8,0.9
		c-0.9,0.6-1.3,1-1.3,1.2s0.4,0.7,1.1,1.4c0.9-0.5,1.7-1,2.6-1.4c0.8-0.4,1.4-1.2,1.6-2.4l0.6-0.6l0,0c-0.2,1-0.4,2-0.5,3
		c-0.3,1.6-0.6,3.2-0.9,4.7c-0.4,1.5-0.6,3.1-0.8,4.7c0,2.7,0,5.3,0.1,7.9c0.1,2.6,0.8,5.1,2.2,7.7c0.3,0.8,0.6,1.5,1.1,2.1
		s1.1,1.3,1.7,1.9c1,1.1,2.2,2,3.7,2.6c1.4,0.6,2.9,1.3,4.3,2.2c0.9,0.5,1.7,0.6,2.4,0.4c0.7-0.3,1.3-0.6,1.8-0.9
		c1-1,2.1-1.9,3.4-2.7c1.3-0.8,2.2-1.9,2.8-3.4c0.5-1.1,1.1-2.2,1.8-3.2s1.4-2.1,2-3.2c1.3-2.5,2.5-5,3.6-7.5s2.4-4.9,3.8-7.3
		c0.9-1.6,1.8-3.2,2.7-4.6s1.9-2.9,2.7-4.5c0.5-0.9,0.9-1.7,1.2-2.6c0.3-0.8,0.7-1.6,1.2-2.4c0.6-1,1.3-2,2.1-3s1.4-2,2.1-3
		c1.1-1.6,2.3-3.3,3.4-4.9c1.1-1.6,2.2-3.3,3.2-4.9l1.7-3.4c0.3-0.4,0.4-0.8,0.6-1.2c0.1-0.4,0.3-0.9,0.6-1.2c1-1.4,2-2.8,3.1-4.2
		c1.1-1.4,2.1-2.8,3.1-4.2c0.3-0.3,0.6-0.8,1.1-1.5c1-1,1.9-2.1,2.7-3.2s1.7-2.3,2.7-3.4c0.6-1,1.3-2,1.9-2.9
		c0.6-0.9,1.3-1.9,2.1-2.8c1.9-1.9,3.8-3.8,5.8-5.6c2-1.8,3.9-3.7,6-5.6c2.1-2.1,4.5-4.3,7-6.4c0.1-0.3,0.3-0.4,0.5-0.4
		s0.4-0.1,0.7-0.2c-0.8,1.4-1.5,2.8-2.2,4.2c-0.7,1.4-1.4,2.8-2,4.2c-1,2-1.9,4.1-2.8,6.2c-0.8,2.1-1.7,4.2-2.6,6.4
		c-1,2.2-1.9,4.2-2.7,6.3s-1.7,4.1-2.8,6.3c-0.6,1.6-1.2,3.2-1.8,4.7s-1.1,3.1-1.6,4.7c-0.9,2.7-1.7,5.3-2.6,8
		c-0.5,1.6-0.9,3.2-1.4,4.7c-3.4,10.4-5.8,21.1-7.2,32c-0.1,0.8-0.3,1.5-0.4,2.3c0,0.2,0,0.3,0.1,0.4c-0.1,0.9-0.2,1.7-0.3,2.6
		c-0.3,0.1-0.4,0.3-0.5,0.5c-0.1,0.4-0.2,0.9-0.3,1.4c-0.1,3.3-0.3,6.5-0.4,9.7c-0.1,3.2-0.1,6.4,0,9.7c0.1,2.8,0.8,5.5,2.1,8.1
		c1,2,2.1,3.9,3.3,5.7s2.9,3.2,5,4.4c0.6,0.3,1.2,0.6,1.8,1s1.2,0.8,1.8,1c2.8,0.9,4.6,0.4,5.5-1.5c-0.3,0-0.5,0-0.9,0.1
		c-0.3,0.1-0.6,0-0.9-0.3c-0.6-0.4-1.2-0.7-1.7-1s-0.9-0.8-1.1-1.4c-0.4-1-0.6-2.1-0.8-3.1c-0.1-1.1-0.3-2.2-0.6-3.3
		c-0.4-1.1-0.6-2.2-0.6-3.2c0-0.4,0.1-0.9,0.4-1.7c0.3-0.9,0.5-1.7,0.8-2.6c0.3-0.8,0.5-1.7,0.8-2.6c0.3-1.1,0.3-2.3,0.2-3.6
		s0.1-2.3,0.8-3.2c0.6-1.1,0.9-2.3,0.9-3.4c0-1.1,0.1-2.2,0.4-3.2c0.8-3.2,1.3-6.3,1.6-9.5s1-6.3,2.2-9.4c0.3-0.5,0.5-1,0.8-1.4
		s0.5-0.9,0.8-1.4c-0.3-0.3-0.5-0.5-0.8-0.9c-0.1-0.1-0.2-0.2-0.2-0.3c0.1-0.4,0.3-0.7,0.4-1.1c0.3-0.2,0.6-0.4,0.8-0.6
		c0.3-0.3,0.4-0.5,0.5-0.9c0.1-0.3,0.2-0.6,0.5-0.9c-0.2-0.2-0.4-0.3-0.7-0.5c0.1-0.4,0.3-0.7,0.4-1.1c1.2,0,1.9-0.7,2-2.2
		c0-0.9-0.1-1.4-0.4-1.7c0-0.1-0.1-0.1-0.1-0.2c0.3-0.7,0.5-1.4,0.8-2.1c1.2-0.5,1.5-1.3,1.2-2.4c0-0.3,0.1-0.5,0.2-0.7
		s0.3-0.4,0.4-0.7c0.5-1,1.1-2,1.7-3.1s0.9-2.1,0.8-3.1c-0.1-0.3-0.1-0.5-0.1-0.8c0.5-1.2,0.9-2.4,1.4-3.6c0.2-0.1,0.4-0.3,0.6-0.4
		c0.1,0,0.2-0.1,0.2-0.4c-0.1-0.1-0.3-0.3-0.4-0.4c0.3-0.7,0.5-1.4,0.8-2.1c0.2-0.1,0.4-0.2,0.5-0.3c0.5-0.8,0.9-1.5,1.1-2.4
		c0.3-0.8,0.5-1.7,0.8-2.6c-0.1,0-0.2-0.1-0.3-0.2c0.2-0.4,0.3-0.8,0.5-1.2c0.3,0,0.6,0,0.9,0c-0.3-0.6-0.3-1.2,0-1.7
		c0.2-0.5,0.5-1,0.8-1.4s0.5-0.9,0.7-1.5c0.1-0.4,0.1-0.8-0.1-1.2c0.6-1.5,1.2-2.9,1.8-4.4c0.4,0,0.8-0.1,1.3-0.1
		c0-0.4,0-0.7-0.1-0.9c-0.1-0.3-0.1-0.4-0.1-0.6c0.3-0.5,0.5-0.9,0.8-1.3s0.5-0.7,0.8-0.9l0.4-1.3c1-0.4,1.6-1,1.9-1.8
		s0.5-1.5,0.8-2.2l0.4-1.1v-0.4l0.8-1.1c0.3-0.5,0.9-1.4,1.8-2.6s2-2.5,3.1-3.8s2.2-2.6,3.1-3.8c0.9-1.2,1.5-2,1.8-2.6
		c0.6-1,1.3-2,1.9-3s1.3-2,1.9-3l1.7-1.7c0.1-0.1,0.2-0.3,0.2-0.4c0.4-1,0.8-2.1,1.3-3.4s1.1-2.3,1.7-3.2c0.1-0.3,0.2-0.7,0.2-1.3
		C1069.1,459.4,1068.6,458.3,1067.7,457.3z M981.9,524.5c-0.6,0.9-1.3,1.9-1.9,2.9c-0.3,0.3-0.7,0.3-1.3,0c-0.1,0-0.2-0.1-0.3-0.4
		c-0.1-0.3-0.1-0.4-0.1-0.6c0.8-1,1.5-2,2.3-2.8c0.8-0.9,1.6-1.8,2.5-2.6c0.1,0.1,0.3,0.2,0.4,0.3c0.1,0.1,0.3,0.2,0.4,0.3
		C983.1,522.6,982.5,523.6,981.9,524.5z M1015.9,566.6c-0.2,0.3-0.4,0.5-0.7,0.8c0.1-1.4,0.2-2.7,0.3-4.1c0.1-0.1,0.1-0.1,0.2-0.2
		c0.3-0.3,0.5-0.6,0.8-0.9c0,0.4,0,0.8,0.1,1.2s0.1,0.9,0.1,1.2C1016.5,565.5,1016.3,566.1,1015.9,566.6z M1016.9,561.1V560
		c0.3,0,0.6,0,0.9,0C1017.5,560.4,1017.3,560.7,1016.9,561.1z M1021.6,561c-0.1-0.3-0.3-0.4-0.6-0.6c-0.3-0.1-0.3-0.3-0.2-0.4
		c0.1-0.3,0.3-0.5,0.4-0.9c0.1-0.3,0.3-0.7,0.6-1c0.1,0.1,0.4,0.3,0.9,0.6L1021.6,561z M1022,503.7c0-0.4,0-0.8,0.2-1.2
		c0.6-1.3,1.1-2.2,1.7-2.6C1023.3,501.2,1022.7,502.4,1022,503.7z M1024.3,551.4c0.1-0.3,0.2-0.6,0.3-0.8c0.2,0.1,0.5,0.2,0.8,0.4
		C1025,551.1,1024.7,551.2,1024.3,551.4z M1048.4,468c0.1,0,0.2-0.1,0.3-0.1c0,0.1,0,0.2,0,0.2C1048.6,468,1048.5,468,1048.4,468z"
		/>
</g>
</svg>
