<?xml version="1.0" encoding="utf-8"?>
<!-- Generator: Adobe Illustrator 21.1.0, SVG Export Plug-In . SVG Version: 6.00 Build 0)  -->
<svg version="1.1" id="Layer_1" xmlns="http://www.w3.org/2000/svg" xmlns:xlink="http://www.w3.org/1999/xlink" x="0px" y="0px"
	 viewBox="0 0 1440 1024" style="enable-background:new 0 0 1440 1024;" xml:space="preserve">
<style type="text/css">
	.st0{fill:#FFFFFF;}
</style>
<g>
	<path class="st0" d="M335.3,505.6c0-27,14.3-47.4,27-59.7h0.4v73.3h23.5v-69.8c3.3,0.7,6.6,1.5,9,2v67.8h4V452
		c4,0.9,8.8,1.8,14.3,1.8c12.7,0,20.2-6.6,28.3-29.4l-2.9-2.6c-7.5,9.7-10.8,10.8-14.5,10.8c-31.6,0-50.1-9.9-77.8-9.9
		c-27.9,0-45.5,13-53.2,62.8l4.2,1.5c12.3-35.1,27.9-42.4,43.1-42.4c6.8,0,12.5,0.4,18,0.9c-27.9,14.7-49.9,39.1-49.9,71.8
		c0,0.6,0,1.3,0,1.9h27.2C335.6,514.9,335.3,510.4,335.3,505.6z"/>
	<path class="st0" d="M395.2,569.3c-19.1-0.2-34-5.7-44.4-16.5c12.3-8.6,35.4-24.2,35.4-24.2v-1.9h-23.6c-0.4,10.4-2.6,14.7-7,17.9
		l-7.5,5.3c-4.9-6.2-8.6-14-10.7-23.2h-28.1c4.1,38.5,33.3,63.1,72,63.1c31,0,48.1-13.8,59.5-30.1l-2.2-3.5
		c-8.3,6.6-24.4,12.5-39.5,13v-42.5h-4V569.3z"/>
	<path class="st0" d="M450.8,561.6c0,6.6-1.5,9.4-3.7,10.5v0.9c4.4,3.1,12.5,9.2,17.8,13.6c3.5-4,11.6-11,16-14.7v-0.4
		c-2.2-1.5-5.9-4-7.5-5.5v-39.2h-22.6V561.6z"/>
	<path class="st0" d="M492.3,572.6c0,20.4-4.8,29.7-16.3,38.9l3.5,1.5c29.2-12.3,35.4-27.9,35.4-47.2v-39h-22.6V572.6z"/>
	<path class="st0" d="M473.4,479.3l7-5.5c5.3,3.3,8.6,5.1,11.9,7.2v38.1H515v-35.5c0-5.1,0.2-8.3,3.1-10.1v-0.7
		c-8.1-5.3-17.6-11-24.4-15.8c-5.5,4.8-14.5,13-20.2,17.4v-48.3c0-7.7,1.5-11.6,3.5-14.7l-0.7-0.4c-9.4,2.9-13.8,9.4-17.1,16.7h-0.4
		c-1.5-4.4-6.2-8.1-9.2-9l-0.9,0.4c1.8,2.4,2.2,5.9,2.2,11.2v88.9h22.6V479.3z"/>
	<path class="st0" d="M597.1,499.5c-6.2-9.9-17.6-31.6-22.6-42.6c-13,8.3-28.1,14.7-39.5,17.8v44.5h27.3
		C574.4,512.7,590.1,504.7,597.1,499.5z M557.6,471.6l1.1-0.2c3.7,8.3,13.4,25,18.9,34c-4.6,3.1-13.2,7.2-20,10.5V471.6z"/>
	<path class="st0" d="M534.9,553.7c0,6.8-1.1,8.8-3.7,10.8v0.9c11.2,5.5,28.6,15.4,38,21.3c5.5-6.2,16-16.7,21.1-21.5l-3.3-3.5l-2,2
		c-1.5,1.5-3.1,2.4-4.6,2.4c-4,0-9.4-2.2-22.8-10.8v-28.4h-22.6V553.7z"/>
	<path class="st0" d="M765.4,535.9c0,12.5-6.8,20.4-15.2,29.7c-20-9.4-38.4-14.5-53.2-14.5c-20.4,0-37.1,21.3-41.1,46.8l6.8,5.7h0.4
		c0-23.9,12.3-28.6,25.5-28.6c12.3,0,23.9,5.3,41.1,14.1c17.1-13.8,21.1-17.4,36.2-31.4c11.8-10.9,17.6-20,19.6-30.8h-21.3
		C765,529.6,765.4,532.6,765.4,535.9z"/>
	<path class="st0" d="M724.1,511.1c3.5-0.2,7.5-0.2,11.6-0.2c12.5,0,20.3,3,24.7,8.2h26c0-0.7,0-1.4,0-2.1
		c0-20.6-15.2-31.4-45.2-33.4c13.4-22.8,31-47.7,40.9-54.9l-3.1-5.5h-0.4c-4.2,3.7-9.2,9.7-12.3,13.8c-12.7-5.7-29.9-11.9-48.1-15.8
		c-27.9,13.6-48.1,29.4-48.1,51.6c0,28.8,20,38.7,47.2,38.7c-1.5,2.6-3.7,5.2-6.3,7.6h8.1C720.8,516.8,722.5,514.1,724.1,511.1z
		 M687.6,457.1c0-8.8,4.4-15.4,12.5-19.8c13.4,2.2,32.7,9,50.5,21.5c-3.5,5.3-12.3,19.1-15.6,24.6c-3.5,0.2-6.6,0.2-9.7,0.2
		C696.8,483.7,687.6,476.2,687.6,457.1z"/>
	<path class="st0" d="M825.5,496c0-13.6-3.7-20.6-9.4-26.1c-8.1-7.9-11.9-11.4-11.9-16.5c0-5.1,2-9,4.8-12.1l-1.8-0.9
		c-6.6,3.7-14.7,11.9-14.7,21.7c0,6.8,2,10.3,4.8,14.9c4,6.4,5.5,9.9,5.5,20v22.1h22.6V496z"/>
	<path class="st0" d="M908.6,483.4c0-7.2,1.5-10.1,3.7-11.6v-0.9c-5.3-3.7-13.2-10.1-17.6-13.8c0,0-11,10.5-16.3,15.2v0.2
		c2.6,1.8,4.8,3.3,7.5,5.5v41.2h22.6V483.4z"/>
	<path class="st0" d="M867.1,482.4c0-7.2,2-9.2,3.7-10.3v-1.1c-5.3-3.7-13.2-10.1-17.6-13.8c-4.2,4.4-11.4,11-16.3,15.2v0.2
		c2.9,1.8,4.8,3.3,7.5,5.5v41.2h22.6V482.4z"/>
	<path class="st0" d="M885.9,570.9l-0.4,0.2c-6.4-3.3-13.4-7.2-18.4-10.5v-33.7h-22.6v42.9L844,570c-5.5-2.9-18.5-10.3-25.9-15.2
		v-0.7c4.4-3.7,7.5-13,7.5-19.8v-7.6h-22.6v30c0,6.4-1.3,8.8-3.7,10.3v0.9c9.4,5.5,22,13.6,29.2,18.7c6.4-4.8,13.2-9.2,20.2-13.8
		c7,4,14.1,8.8,21.1,13.8c11.4-7.9,24.4-16.3,38.9-24.6v-35.2h-22.6V570.9z"/>
	<path class="st0" d="M970.7,570.9l-0.4,0.4c-5.1-2.9-13.6-8.1-18.5-11.6v-32.8h-22.6v31.5c0,4.6-1.1,7.5-3.7,8.6v0.9
		c9.2,5.3,20.4,12.3,30.1,18.9c11.9-8.8,27.7-18.7,37.8-24.4v-35.5h-22.6V570.9z"/>
	<path class="st0" d="M951.8,472.7l0.7-0.2c5.7,3.3,13.2,7.9,18.2,11.4v35.3h22.6v-33.3c0-6.4,1.8-8.3,3.7-9.9v-0.9
		c-9.4-5.1-20.9-12.3-30.1-18.2c-11.4,8.3-26.6,18-37.8,24.4v37.9h22.6V472.7z"/>
	<path class="st0" d="M1038.6,479.5l4.6-4.8c2.6,6.4,10.8,18.2,16.3,24.2h0.9c4.2-5.7,9.7-13,14.1-17.4
		c-6.8-7.2-14.3-17.8-18.5-24.4c-6.4,6.2-8.8,8.8-16.5,15.4c-5.5-4.4-12.1-10.3-18.2-15.4c-5.1,5.7-11.6,11.6-16.7,16.3l0.4,0.7
		c3.3,0.2,6.4,1.5,11,5.1v40.1h22.6V479.5z"/>
	<path class="st0" d="M1016,557.7c0,6.8-1.3,8.8-3.7,11v0.9c11.4,5.5,21.5,11,30.8,17.1c0,0,8.3-8.6,21.3-21.5l-3.7-3.3l-2,2.2
		c-1.3,1.5-2.6,2.9-4.2,2.9c-3.3,0-5.3-0.9-15.8-7.5v-32.6H1016V557.7z"/>
	<path class="st0" d="M1124.1,570.7l-0.4,0.2c-4.8-2.6-14.1-8.1-18.5-11v-33h-22.6v33c0,4.4-1.5,6.6-3.7,7.7v0.9
		c8.3,4.6,23.1,13.4,30.3,18.2c13.8-10.5,25-17.4,37.6-24.4v-35.5h-22.6V570.7z"/>
	<path class="st0" d="M1105.2,470.9l4.8-3.1l14.1,14.9v36.4h22.6v-28.7c0-8.1,1.1-9.9,3.7-12.1v-0.9c-7.9-6.4-42.6-42.6-42.6-42.6
		c-12.3-12.3-13.8-16.9-12.5-23.1l-2.4-0.9c-3.3,6.2-7,14.7-7,21.3c0,9.2,2.2,11.6,12.7,23.3l7.9,8.6c-7.2,4.8-19.1,11.9-23.9,14.5
		v40.5h22.6V470.9z"/>
</g>
</svg>
