<?xml version="1.0" encoding="UTF-8"?>
<svg width="713px" height="148px" viewBox="0 0 713 148" version="1.1" xmlns="http://www.w3.org/2000/svg" xmlns:xlink="http://www.w3.org/1999/xlink">
    <!-- Generator: Sketch 46.2 (44496) - http://www.bohemiancoding.com/sketch -->
    <title>Logo</title>
    <desc>Created with Sketch.</desc>
    <defs></defs>
    <g id="⬛️-Source" stroke="none" stroke-width="1" fill="none" fill-rule="evenodd">
        <g id="Source-–-Desktop" transform="translate(-99.000000, -149.000000)" fill-rule="nonzero" fill="#FFFFFF">
            <g id="Logo" transform="translate(100.000000, 150.000000)">
                <path d="M24.6423867,138.559587 C15.8355353,135.018194 7.55771338,129.77149 -0.189800766,122.82214 L-0.570956858,122.480251 L10.1176661,93.9437617 L15.8681357,96.0855514 C18.4887792,108.001248 23.1485206,117.095044 29.9316496,123.788562 C36.6845299,130.453525 44.5176178,133.773929 53.4684316,133.773929 C59.7976158,133.773929 64.8618886,131.777691 68.7102491,127.781903 C72.5648708,123.779565 74.4939281,118.53923 74.4939281,112.017393 C74.4939281,107.192405 73.0464236,103.128197 70.1474422,99.7910117 C67.2159478,96.4134482 60.0334381,91.8773157 48.6385824,86.2413476 C47.0715496,85.4266533 44.8174226,84.2833862 41.9730689,82.861846 C27.0122235,75.4444289 17.5007974,69.5535111 13.3967141,65.1372334 C10.5204348,62.0743408 8.362084,58.5707003 6.92618002,54.6334566 C5.49181365,50.7078223 4.77591917,46.411782 4.77591917,41.7504437 C4.77591917,29.2840865 9.0387361,19.1401642 17.554947,11.3689368 C26.0570545,3.61069658 37.3082077,-0.263739518 51.2726719,-0.263739518 C58.3732431,-0.263739518 65.5501406,1.06425197 72.8017437,3.71685421 C80.0344988,6.36256195 87.2450909,10.2673708 94.4376316,15.4307347 L94.911319,15.7707843 L84.645184,41.9640274 L79.6127398,40.2089161 L79.5367061,39.7752561 C77.9135266,30.5174099 74.5452259,23.2114363 69.4376796,17.8377911 C64.3643791,12.4961231 58.3226769,9.83719894 51.2726719,9.83719894 C45.4708752,9.83719894 40.7684983,11.4537205 37.1311689,14.6797079 C33.5109876,17.8918925 31.7105753,21.9572687 31.7105753,26.9277463 C31.7105753,31.7999248 33.3600713,35.9604571 36.6732174,39.4499829 C40.0345284,42.9902376 46.6883472,47.0182361 56.6400061,51.5096892 C57.4821861,51.9314301 58.6935336,52.5064845 60.277693,53.2366219 C76.8251653,60.8367911 87.6559504,67.3111001 92.7957604,72.6975098 C96.5810102,76.5458472 99.439016,80.7083536 101.367439,85.1869239 C103.298916,89.6725867 104.265654,94.3801654 104.265654,99.2994048 C104.265654,112.448147 99.3972344,123.194333 89.6824588,131.480228 C79.9932153,139.745686 67.4832301,143.874868 52.1871319,143.874868 C42.6363618,143.874868 33.4522008,142.102708 24.6423867,138.559587 Z M25.2020493,137.167906 C33.8337012,140.639373 42.8278455,142.374868 52.1871319,142.374868 C67.1427599,142.374868 79.3062875,138.360042 88.7090093,130.339003 C98.0867603,122.340561 102.765654,112.012721 102.765654,99.2994048 C102.765654,94.5837818 101.840374,90.0780885 99.9897297,85.7801502 C98.1368612,81.4770475 95.3846375,77.4686059 91.7184663,73.7412091 C86.738652,68.5225922 76.0367445,62.1253223 59.6507263,54.5993074 C58.0522197,53.8625581 56.8276846,53.2812433 55.9956918,52.8639207 C45.9080064,48.3117545 39.1132621,44.1984444 35.585422,40.4827951 C32.0067731,36.7136322 30.2105753,32.1830732 30.2105753,26.9277463 C30.2105753,21.5313749 32.192283,17.056629 36.1357417,13.5576006 C40.0612321,10.0760401 45.1194303,8.33719894 51.2726719,8.33719894 C58.7388948,8.33719894 65.1721012,11.1684223 70.5251135,16.8045983 C75.7686505,22.3213191 79.2358895,29.752694 80.9365308,39.0819927 L83.7755894,40.0721406 L93.08862,16.310669 C86.1608944,11.3919592 79.2280116,7.66475777 72.2864439,5.12556502 C65.1964571,2.53208124 58.1934207,1.23626048 51.2726719,1.23626048 C37.6641214,1.23626048 26.7753177,4.98591827 18.5660316,12.4769567 C10.3686866,19.957212 6.27591917,29.6964796 6.27591917,41.7504437 C6.27591917,46.2409638 6.96282009,50.3630156 8.33523327,54.1190942 C9.70175019,57.8660784 11.7526341,61.1952683 14.4928302,64.1132635 C18.4364348,68.3568407 27.8370943,74.1791551 42.6415026,81.5190167 C45.494542,82.9448935 47.7552773,84.0915122 49.3170408,84.9036383 C60.8718783,90.6185625 68.1766276,95.2318958 71.2800535,98.8075527 C74.4215048,102.423859 75.9939281,106.838806 75.9939281,112.017393 C75.9939281,118.912204 73.9266923,124.527905 69.7906563,128.822441 C65.6489477,133.122815 60.1917699,135.273929 53.4684316,135.273929 C44.116824,135.273929 35.9072736,131.793944 28.8780136,124.856201 C21.955497,118.025136 17.1918566,108.804219 14.579847,97.2063863 L10.9971911,95.8720091 L1.19343709,122.046075 C8.70335133,128.712145 16.705505,133.751292 25.2020493,137.167906 Z" id="Stroke-1"></path>
                <path d="M149.673786,22.4437685 C145.644671,31.0105134 143.614353,45.7531023 143.614353,66.6362919 C143.614353,90.391668 145.890483,107.580305 150.417106,118.172889 C154.877951,128.613275 161.906278,133.774061 171.593968,133.774061 C181.051591,133.774061 187.881329,129.133208 192.185045,119.75542 C196.551471,110.239453 198.748854,94.596746 198.748854,72.8580509 C198.748854,51.4273095 196.294024,35.5154977 191.40966,25.1427467 C186.588135,14.9060208 179.250472,9.83733089 169.307159,9.83733089 C160.14428,9.83733089 153.637334,14.01371 149.673786,22.4437685 Z M148.316378,21.8054551 C152.525967,12.8520932 159.560126,8.33733089 169.307159,8.33733089 C179.85562,8.33733089 187.706745,13.7607095 192.766702,24.5036566 C197.763225,35.114596 200.248854,51.226039 200.248854,72.8580509 C200.248854,94.7944273 198.025146,110.624538 193.548355,120.381029 C189.006302,130.278151 181.654044,135.274061 171.593968,135.274061 C161.274052,135.274061 153.723981,129.730167 149.037756,118.76229 C144.413814,107.941974 142.114353,90.577147 142.114353,66.6362919 C142.114353,45.5498173 144.170348,30.620788 148.316378,21.8054551 Z M228.176924,39.6057055 C232.675821,49.3448723 234.925758,59.791247 234.925758,70.9367611 C234.925758,82.5034861 232.785836,93.2317362 228.504995,103.119519 C224.221639,113.010033 217.891406,121.773997 209.527218,129.398386 C204.573167,134.042977 198.739409,137.618225 192.031021,140.122333 C185.326034,142.624174 178.330563,143.875 171.045029,143.875 C163.697523,143.875 156.607777,142.592517 149.784598,140.029482 C142.960705,137.469019 136.829333,133.808772 131.39201,129.050447 C123.55872,122.20449 117.620276,113.967552 113.581785,104.34695 C109.546853,94.7380027 107.531138,84.1187084 107.531138,72.4912112 C107.531138,61.9216346 109.053541,52.2155263 112.099613,43.3809866 C115.152206,34.5366013 119.730567,26.6284316 125.832429,19.662495 C131.576958,13.1162178 138.267602,8.15648304 145.90269,4.78688217 C153.53358,1.4192907 161.977795,-0.263607561 171.228448,-0.263607561 C178.086702,-0.263607561 184.852455,0.941101467 191.51953,3.34910154 C198.196632,5.76072312 203.773217,9.0134514 208.236689,13.1041046 C217.0303,21.038179 223.679336,29.8735923 228.176924,39.6057055 Z M226.815244,40.2348544 C222.405015,30.6917729 215.878737,22.0194839 207.227539,14.2138713 C202.912455,10.2592414 197.507684,7.10672908 191.00998,4.75990229 C184.50494,2.41042574 177.911465,1.23639244 171.228448,1.23639244 C162.181,1.23639244 153.942955,2.87820176 146.508316,6.15918576 C139.075281,9.43961432 132.562005,14.2678673 126.96032,20.6513636 C120.987165,27.4703677 116.506969,35.2089768 113.517611,43.8701505 C110.527679,52.5418662 109.031138,62.0830935 109.031138,72.4912112 C109.031138,83.9246459 111.009409,94.3466758 114.964835,103.766284 C118.914968,113.176398 124.718032,121.225556 132.379473,127.921324 C137.681085,132.560886 143.656263,136.12789 150.311811,138.625186 C156.966264,141.124841 163.877314,142.375 171.045029,142.375 C178.152342,142.375 184.970179,141.155936 191.506547,138.717012 C198.031288,136.281456 203.694181,132.810923 208.508998,128.29697 C216.72601,120.806642 222.93065,112.216556 227.1285,102.523482 C231.326303,92.8274964 233.425758,82.3021245 233.425758,70.9367611 C233.425758,60.0063416 231.222073,49.7747123 226.815244,40.2348544 Z" id="Stroke-3"></path>
                <path d="M281.136075,20.7065152 L281.136075,90.2411043 C281.136075,103.514157 283.539028,113.366068 288.308427,119.805659 C293.036726,126.190206 300.191272,129.382938 309.84673,129.382938 C314.266873,129.382938 318.258464,128.653181 321.823458,127.196586 C325.376768,125.746569 328.35977,123.635114 330.790191,120.848282 C333.449993,117.89181 335.329708,114.235812 336.430482,109.867436 C337.540236,105.456977 338.100816,98.1121004 338.100816,87.8632444 L338.100816,33.698973 C338.100816,26.301772 337.051823,20.4148393 334.97111,16.0423832 C332.921359,11.7389186 329.904306,8.93963348 325.895456,7.60209304 L325.382828,7.43105615 L325.382828,2.75595787 L362.290772,2.75595787 L362.290772,7.3694096 L361.856499,7.57095371 C357.792972,9.45681751 354.962569,12.0240306 353.336132,15.2781599 C351.692108,18.5649399 350.854084,24.135027 350.854084,31.9597836 L350.854084,97.5607431 C350.854084,112.213314 346.507793,123.622203 337.806398,131.733285 C329.115135,139.833671 316.91622,143.874076 301.247112,143.874076 C293.351091,143.874076 285.850047,142.546886 278.751136,139.892975 C271.647137,137.237662 265.463532,133.496397 260.210847,128.674291 C256.09642,124.934761 253.025657,120.430121 251.00402,115.167938 C248.985797,109.924319 247.97966,103.811491 247.97966,96.8297029 L247.97966,20.7065152 C247.97966,18.2507345 247.859869,16.3854156 247.625482,15.1260619 C247.397754,13.9024831 247.004159,12.8468093 246.443069,11.9480353 C245.830434,10.9466362 244.994373,10.097007 243.926072,9.39372951 C242.83944,8.67919773 241.446889,8.08458638 239.746362,7.61341726 L239.196621,7.46109934 L239.196621,2.75595787 L289.737014,2.75595787 L289.737014,7.46531553 L289.182134,7.61482153 C286.171058,8.42612185 284.100695,9.71657044 282.931337,11.4700058 C281.750182,13.2411289 281.136075,16.3271683 281.136075,20.7065152 Z M336.325456,15.3975988 C338.51388,19.9964005 339.600816,26.0962706 339.600816,33.698973 L339.600816,87.8632444 C339.600816,98.2263228 339.032392,105.673967 337.885077,110.233707 C336.726344,114.832089 334.733777,118.707582 331.913011,121.842838 C329.334805,124.799271 326.158169,127.047786 322.390501,128.585277 C318.639137,130.11802 314.455221,130.882938 309.84673,130.882938 C299.739363,130.882938 292.131092,127.487731 287.103016,120.698399 C282.112522,113.960288 279.636075,103.807057 279.636075,90.2411043 L279.636075,20.7065152 C279.636075,16.0577055 280.302605,12.7082284 281.683393,10.6377577 C282.998284,8.66609844 285.191219,7.23431711 288.237014,6.32400904 L288.237014,4.25595787 L240.696621,4.25595787 L240.696621,6.32726992 C242.29599,6.81231599 243.646837,7.41487523 244.750536,8.14062987 C245.999975,8.96315337 246.992452,9.97173573 247.719032,11.1594468 C248.379983,12.218112 248.839318,13.4501125 249.100159,14.8515999 C249.354548,16.2184257 249.47966,18.1666034 249.47966,20.7065152 L249.47966,96.8297029 C249.47966,103.636426 250.455994,109.568184 252.404075,114.629565 C254.342179,119.674318 257.279241,123.982826 261.222489,127.566787 C266.333342,132.258675 272.350376,135.899159 279.276358,138.487934 C286.205485,141.078371 293.52858,142.374076 301.247112,142.374076 C316.561439,142.374076 328.394481,138.454852 336.783652,130.63602 C345.160454,122.82751 349.354084,111.819352 349.354084,97.5607431 L349.354084,31.9597836 C349.354084,23.9217137 350.222428,18.1500991 351.994492,14.6073395 C353.721515,11.1519589 356.662443,8.42111844 360.790772,6.41650323 L360.790772,4.25595787 L326.882828,4.25595787 L326.882828,6.3593204 C331.037334,7.8940833 334.192399,10.9192339 336.325456,15.3975988 Z" id="Stroke-5"></path>
                <path d="M406.014143,70.7347774 C420.385479,70.7347774 430.670229,68.4343138 436.860627,63.8816416 C442.992704,59.3709229 446.070436,51.9581188 446.070436,41.5675517 C446.070436,31.6805854 443.688171,24.2220364 438.953161,19.1604299 C434.227174,14.1098349 427.320862,11.5755967 418.183191,11.5755967 C411.743766,11.5755967 407.427045,12.4179618 405.275049,14.0331842 C403.183357,15.6010601 402.098153,18.8137326 402.098153,23.7256848 L402.098153,70.7347774 L406.014143,70.7347774 Z M400.598153,23.7256848 C400.598153,18.3889021 401.830551,14.7404711 404.374994,12.8332253 C406.856281,10.9708474 411.444016,10.0755967 418.183191,10.0755967 C427.709477,10.0755967 435.014903,12.7562876 440.048503,18.1356251 C445.071646,23.5052385 447.570436,31.3286099 447.570436,41.5675517 C447.570436,52.4007674 444.30377,60.268626 437.749388,65.0899893 C431.250745,69.8693576 420.675593,72.2347774 406.014143,72.2347774 L400.598153,72.2347774 L400.598153,23.7256848 Z M402.098153,122.720929 C402.098153,127.043995 402.698556,130.118209 403.856514,131.924771 C404.991001,133.699655 407.072238,135.001692 410.140515,135.811637 L410.699092,135.959087 L410.699092,140.854906 L361.43868,140.854906 L361.43868,135.959207 L361.99711,135.811676 C365.065007,135.00117 367.18,133.681448 368.380055,131.868702 C369.593473,130.034522 370.221718,126.979611 370.221718,122.720929 L370.221718,20.7065152 C370.221718,16.4495058 369.593609,13.395572 368.380439,11.5593218 C367.179616,9.74782948 365.06358,8.42715012 361.996834,7.61569582 L361.43868,7.46800955 L361.43868,2.79261753 L362.151125,2.75689868 L398.650023,0.92703847 C402.797561,0.680623555 406.507975,0.482568098 409.823121,0.331346581 C413.230434,0.178540241 415.812788,0.1023084 417.634251,0.1023084 C436.436308,0.1023084 451.449708,3.87522932 462.65648,11.439032 C473.928897,19.0462343 479.593691,29.1739943 479.593691,41.749652 C479.593691,50.5365145 476.625413,58.1748297 470.704184,64.627485 C464.93361,70.9131017 456.54648,75.8586058 445.553373,79.474779 C450.125274,94.6738817 455.372447,107.550574 461.290445,118.099768 C467.283735,128.785793 473.74708,136.80494 480.675004,142.165384 L480.966041,146.46557 L480.187702,146.43614 C465.480511,145.880042 452.223789,139.916004 440.443903,128.568407 C428.805613,117.358529 419.625113,101.849559 412.896353,82.0531766 C410.919917,82.1558769 409.271698,82.2393615 408.065861,82.2981495 C406.840357,82.3604184 405.697221,82.3914855 404.641793,82.3914855 L402.098153,82.3914855 L402.098153,122.720929 Z M409.199092,137.106445 C406.090305,136.194514 403.877843,134.743298 402.593154,132.733424 C401.2487,130.635907 400.598153,127.304941 400.598153,122.720929 L400.598153,80.8914855 L404.641793,80.8914855 C405.670884,80.8914855 406.788766,80.8611047 407.99128,80.8000055 C409.310433,80.7356915 411.158004,80.6418734 413.385762,80.5256641 L413.954235,80.4960101 L414.135702,81.0355571 C420.808234,100.87466 429.927507,116.356482 441.484524,127.48808 C452.797435,138.385838 465.449016,144.182997 479.466041,144.902528 L479.466041,143.124814 C472.474608,137.632266 465.984009,129.534804 459.982201,118.833591 C453.915013,108.018457 448.556766,94.8068124 443.90592,79.2020542 L443.696074,78.4979687 L444.395683,78.2736496 C455.501999,74.7125769 463.899509,69.8214909 469.599105,63.613187 C475.26608,57.4376045 478.093691,50.1612707 478.093691,41.749652 C478.093691,29.6850329 472.686131,20.0171665 461.817363,12.6823677 C450.883502,5.30276068 436.158472,1.6023084 417.634251,1.6023084 C415.839605,1.6023084 413.277152,1.67795276 409.890898,1.82981444 C406.58368,1.98067458 402.880025,2.17836922 398.732058,2.42477746 L362.93868,4.2192982 L362.93868,6.3214115 C366.043474,7.23484522 368.284599,8.69990916 369.631325,10.7315045 C371.038756,12.8617847 371.721718,16.1824198 371.721718,20.7065152 L371.721718,122.720929 C371.721718,127.246981 371.038596,130.568736 369.630942,132.696519 C368.285274,134.729222 366.044745,136.193701 362.93868,137.106256 L362.93868,139.354906 L409.199092,139.354906 L409.199092,137.106445 Z" id="Stroke-7"></path>
                <path d="M574.490207,115.489527 C580.621419,111.840828 585.451748,106.696026 588.986654,100.044906 L589.273738,99.5047424 L596.855771,101.735131 L596.573062,102.490132 C591.705167,115.49029 584.45403,125.642216 574.822139,132.925907 C565.176378,140.222763 554.190456,143.874472 541.889837,143.874472 C535.462822,143.874472 529.340381,142.854009 523.52512,140.81298 C517.710057,138.77202 512.418313,135.801105 507.650704,131.900198 C499.443957,125.112412 493.195707,116.62654 488.910848,106.452003 C484.630429,96.2943306 482.492996,84.8518761 482.492996,72.1251633 C482.492996,62.1630642 484.030262,52.5988098 487.105579,43.4327425 C490.186128,34.2524135 494.3826,26.6615163 499.696913,20.6682212 C505.989855,13.5117514 513.031517,8.23067144 520.82115,4.8313158 C528.607028,1.43301554 537.552942,-0.264135388 547.653706,-0.264135388 C555.787861,-0.264135388 563.46593,1.00031114 570.684168,3.52963083 C577.906848,6.06184277 584.450883,9.79699801 590.315411,14.7348447 L590.710325,15.067357 L580.820187,43.5006473 L574.95098,42.5986942 L574.831549,42.1123197 C572.422172,32.3002962 568.250906,24.5423902 562.321295,18.8214047 C556.418812,13.1291716 549.740499,10.2946929 542.255357,10.2946929 C534.359073,10.2946929 528.147098,14.1569637 523.551344,21.9560132 C518.899884,29.8477879 516.563871,40.6837581 516.563871,54.4680357 C516.563871,75.2672401 519.969339,91.5824494 526.756938,103.409503 C533.492191,115.14213 542.568306,120.964495 554.058885,120.964495 C561.549886,120.964495 568.355283,119.140188 574.490207,115.489527 Z M575.257285,116.778554 C568.88735,120.569062 561.816622,122.464495 554.058885,122.464495 C542.003069,122.464495 532.446912,116.334182 525.456007,104.156216 C518.521452,92.0730965 515.063871,75.508223 515.063871,54.4680357 C515.063871,40.4369475 517.455067,29.3449991 522.259067,21.1944241 C527.114439,12.9547993 533.805445,8.79469286 542.255357,8.79469286 C550.13886,8.79469286 557.187042,11.786155 563.362673,17.7418067 C569.408595,23.575011 573.674907,31.4222617 576.166938,41.2679485 L579.813714,41.8283684 L588.953635,15.5518877 C583.330063,10.8946598 577.076954,7.36040359 570.188013,4.94519786 C563.13192,2.47269493 555.621544,1.23586461 547.653706,1.23586461 C537.751001,1.23586461 529.008557,2.89441469 521.421146,6.20609026 C513.839443,9.51470633 506.975207,14.6627204 500.821297,21.6610702 C495.64583,27.4977899 491.546933,34.9121865 488.527662,43.9099016 C485.504359,52.9209412 483.992996,62.3240326 483.992996,72.1251633 C483.992996,84.6587303 486.093522,95.9036078 490.293196,105.869667 C494.485172,115.823652 500.588069,124.112117 508.603649,130.741803 C513.233074,134.529632 518.371472,137.414455 524.021879,139.397625 C529.675745,141.382008 535.630203,142.374472 541.889837,142.374472 C553.865296,142.374472 564.533184,138.828477 573.917289,131.72956 C583.127198,124.764974 590.115155,115.098974 594.882031,102.718075 L590.020231,101.287891 C586.38488,107.918565 581.460623,113.086933 575.257285,116.778554 Z" id="Stroke-9"></path>
                <path d="M640.453277,115.585238 C640.453277,121.104394 641.445169,124.541791 643.305432,125.916008 C645.233344,127.340775 650.173663,128.102166 658.001714,128.102166 C667.608939,128.102166 676.209254,126.623135 683.804659,123.669222 C691.390891,120.720684 698.410425,116.080752 704.870012,109.742601 L705.257788,109.362115 L711.424728,112.555964 L702.467512,140.855434 L599.793803,140.855434 L599.793803,135.959735 L600.352234,135.812203 C603.418792,135.002051 605.534652,133.681482 606.735052,131.869421 C607.948588,130.03384 608.576842,126.978891 608.576842,122.721457 L608.576842,20.707043 C608.576842,16.4487847 607.94874,13.3948896 606.735562,11.5598496 C605.534739,9.74835731 603.418703,8.42767795 600.351957,7.61622365 L599.793803,7.46853738 L599.793803,2.75516613 L698.519194,2.75516613 L704.039694,33.4006638 L698.289361,36.1067029 L697.92515,35.6014947 C693.112597,28.9258494 687.365463,23.9143126 680.674348,20.5538282 C673.981924,17.1920344 666.426773,15.5097541 658.001714,15.5097541 C650.840762,15.5097541 646.10073,16.4579527 643.830765,18.2736795 C641.607348,20.0512112 640.453277,23.7460492 640.453277,29.3990316 L640.453277,56.9194375 L649.400776,56.9194375 C658.453091,56.9194375 665.394269,55.7782839 670.217659,53.514743 C674.988629,51.2758025 678.424393,47.6345149 680.548757,42.5585112 L680.741461,42.0980597 L686.6566,42.0980597 L686.6566,84.4954033 L680.688095,84.4954033 L680.524318,83.9677195 C678.940232,78.8638667 675.776479,75.2336404 670.99997,73.0362183 C666.145852,70.8023964 658.696846,69.6740254 648.668416,69.6740254 L640.453277,69.6740254 L640.453277,115.585238 Z M701.368942,139.355434 L709.613603,113.307213 L705.531008,111.192843 C699.036943,117.476176 691.976367,122.102443 684.348206,125.067276 C676.57189,128.091548 667.787898,129.602166 658.001714,129.602166 C649.851449,129.602166 644.693927,128.807301 642.414047,127.122421 C640.063813,125.386252 638.953277,121.537694 638.953277,115.585238 L638.953277,68.1740254 L648.668416,68.1740254 C658.894089,68.1740254 666.538879,69.3320537 671.626963,71.6735444 C676.625324,73.9730292 680.022753,77.7606744 681.786197,82.9954033 L685.1566,82.9954033 L685.1566,43.5980597 L681.73472,43.5980597 C679.453527,48.7757988 675.820503,52.5423757 670.854905,54.8726525 C665.800623,57.244547 658.654237,58.4194375 649.400776,58.4194375 L638.953277,58.4194375 L638.953277,29.3990316 C638.953277,23.3356415 640.236748,19.2265191 642.893954,17.102191 C645.504452,15.0140748 650.525038,14.0097541 658.001714,14.0097541 C666.653995,14.0097541 674.439695,15.7433699 681.347612,19.2134119 C688.089884,22.599589 693.898897,27.603743 698.774727,34.2205044 L702.35936,32.5336184 L697.265262,4.25516613 L601.293803,4.25516613 L601.293803,6.3219393 C604.398597,7.23537246 606.639715,8.70042633 607.986322,10.7318407 C609.393871,12.8608828 610.076842,16.1815574 610.076842,20.707043 L610.076842,122.721457 C610.076842,127.246118 609.393728,130.567835 607.985939,132.697239 C606.639813,134.72928 604.398644,136.194446 601.293803,137.106772 L601.293803,139.355434 L701.368942,139.355434 Z" id="Stroke-11"></path>
            </g>
        </g>
    </g>
</svg>