<?xml version="1.0" encoding="UTF-8" standalone="no"?>
<svg width="105px" height="35px" viewBox="0 0 105 35" version="1.1" xmlns="http://www.w3.org/2000/svg" xmlns:xlink="http://www.w3.org/1999/xlink">
    <!-- Generator: Sketch 39.1 (31720) - http://www.bohemiancoding.com/sketch -->
    <title>bbc</title>
    <desc>Created with Sketch.</desc>
    <defs></defs>
    <g id="Symbols" stroke="none" stroke-width="1" fill="none" fill-rule="evenodd">
        <g id="bbc" fill="#FFFFFF">
            <g transform="translate(3.000000, 3.000000)" id="Layer_1">
                <g>
                    <g id="Group">
                        <path d="M97.5930799,29.3469786 L97.5930799,0.555555556 L67.5735867,0.555555556 L67.5735867,29.3469786 L97.5930799,29.3469786 L97.5930799,29.3469786 L97.5930799,29.3469786 Z M90.7509747,8.82066277 C88.4312865,7.49512671 86.1310916,6.79337232 83.9673489,6.79337232 C81.6476608,6.79337232 79.7373294,7.53411306 78.255848,9.01559454 C76.7353801,10.4385965 75.9361598,12.2124756 75.9361598,14.4346979 C75.9361598,16.5594542 76.7158869,18.3723197 78.1973684,19.8538012 C79.7763158,21.2378168 81.6476608,21.920078 83.9088694,21.920078 C86.3260234,21.920078 88.6846979,21.1793372 91.004386,19.6978558 L91.004386,22.797271 C88.8406433,23.9863548 86.4234893,24.5711501 83.7724172,24.5711501 C81.5112086,24.5711501 79.6398635,24.122807 78.0609162,23.245614 C76.5404483,22.3099415 75.3123782,21.0818713 74.3767057,19.5614035 C73.4995127,17.8849903 72.9926901,16.208577 72.9926901,14.4346979 C72.9926901,11.4717349 74.0258285,9.07407407 76.1505848,7.10526316 C78.2168616,5.13645224 80.7704678,4.10331384 83.7724172,4.10331384 C85.9361598,4.10331384 88.255848,4.64912281 90.7704678,5.7797271 L90.7509747,8.82066277 L90.7509747,8.82066277 L90.7509747,8.82066277 Z" id="Shape"></path>
                        <path d="M64.2207602,0.555555556 L34.2012671,0.555555556 L34.2012671,29.3469786 L64.2207602,29.3469786 L64.2207602,0.555555556 L64.2207602,0.555555556 L64.2207602,0.555555556 Z M43.4020468,4.84405458 L48.6262183,4.84405458 C50.3026316,4.84405458 51.5891813,5.03898635 52.5053606,5.48732943 C53.4410331,5.97465887 54.1232943,6.57894737 54.5716374,7.30019493 C55.0589669,8.07992203 55.3123782,8.97660819 55.3123782,10.0097466 C55.3123782,11.9785575 54.3182261,13.3625731 52.2519493,14.2007797 C53.7334308,14.454191 54.9030214,15.0389864 55.7412281,16.0136452 C56.5794347,16.8908382 56.9692982,18.0409357 57.0277778,19.3079922 C56.9887914,20.3021442 56.7353801,21.2183236 56.2480507,22.0175439 C55.7022417,22.797271 54.961501,23.4405458 53.9283626,23.9863548 C52.8952242,24.4736842 51.667154,24.7270955 50.1466862,24.7270955 L43.4020468,24.7270955 L43.4020468,4.84405458 L43.4020468,4.84405458 L43.4020468,4.84405458 Z" id="Shape"></path>
                        <path d="M48.1193957,13.3430799 C49.6398635,13.3430799 50.7314815,13.0506823 51.3747563,12.5048733 C52.0180312,11.8615984 52.3494152,11.1208577 52.3494152,10.1851852 C52.3494152,8.31384016 51.121345,7.33918129 48.704191,7.33918129 L46.2480507,7.33918129 L46.2480507,13.3430799 L48.1193957,13.3430799 L48.1193957,13.3430799 L48.1193957,13.3430799 Z" id="Shape"></path>
                        <path d="M48.8991228,15.9161793 L46.2480507,15.9161793 L46.2480507,22.1734893 L49.0940546,22.1734893 C50.4195906,22.1734893 51.5112086,22.0760234 52.1934698,21.8810916 C52.8367446,21.5302144 53.2850877,21.1403509 53.5774854,20.6920078 C53.869883,20.2046784 54.0648148,19.6588694 54.0648148,19.0740741 C54.0063353,18.4892788 53.869883,17.9434698 53.5190058,17.4561404 C53.2266082,16.9103314 52.7392788,16.5204678 52.0375244,16.2670565 C51.4137427,16.0136452 50.3416179,15.8576998 48.8991228,15.9161793 L48.8991228,15.9161793 L48.8991228,15.9161793 Z" id="Shape"></path>
                        <path d="M30.7509747,0.555555556 L0.731481481,0.555555556 L0.731481481,29.3469786 L30.7509747,29.3469786 L30.7509747,0.555555556 L30.7509747,0.555555556 L30.7509747,0.555555556 Z M9.87378168,24.7270955 L9.87378168,4.84405458 L15.0979532,4.84405458 C16.7743665,4.84405458 18.0024366,5.03898635 18.9381092,5.48732943 C19.8737817,5.93567251 20.6145224,6.57894737 21.0628655,7.35867446 C21.5501949,8.0994152 21.8036062,8.97660819 21.8425926,10.0097466 C21.7841131,11.9785575 20.8094542,13.3430799 18.7431774,14.2397661 C20.2636452,14.4931774 21.3942495,15.0779727 22.2324561,16.0136452 C23.0706628,16.8908382 23.5190058,18.0409357 23.5190058,19.3079922 C23.5190058,20.3411306 23.2655945,21.2768031 22.7392788,22.0175439 C22.1934698,22.8557505 21.452729,23.4990253 20.4780702,23.9863548 C19.4449318,24.4736842 18.1583821,24.7270955 16.6379142,24.7270955 L9.87378168,24.7270955 L9.87378168,24.7270955 L9.87378168,24.7270955 Z" id="Shape"></path>
                        <path d="M15.1954191,7.33918129 L12.7392788,7.33918129 L12.7392788,13.3430799 L14.6496101,13.3430799 C16.1310916,13.3430799 17.2032164,13.0506823 17.8464912,12.5048733 C18.4897661,11.920078 18.8211501,11.1208577 18.8211501,10.2436647 C18.8406433,8.33333333 17.5930799,7.33918129 15.1954191,7.33918129 L15.1954191,7.33918129 L15.1954191,7.33918129 Z" id="Shape"></path>
                        <path d="M15.3903509,15.9161793 L12.7392788,15.9161793 L12.7392788,22.1734893 L15.5462963,22.1734893 C17.0277778,22.1734893 18.0999025,22.0760234 18.7431774,21.8810916 C19.2889864,21.6276803 19.7178363,21.2962963 20.0687135,20.7894737 C20.3611111,20.2436647 20.5170565,19.6978558 20.5560429,19.0740741 C20.4975634,18.3918129 20.3026316,17.8460039 20.0102339,17.4561404 C19.6593567,16.9103314 19.1720273,16.5204678 18.5287524,16.3255361 C17.8464912,16.0136452 16.7548733,15.9161793 15.3903509,15.9161793 L15.3903509,15.9161793 L15.3903509,15.9161793 Z" id="Shape"></path>
                    </g>
                </g>
            </g>
        </g>
    </g>
</svg>