<?xml version="1.0" encoding="UTF-8" standalone="no"?>
<svg width="158px" height="35px" viewBox="0 0 158 35" version="1.1" xmlns="http://www.w3.org/2000/svg" xmlns:xlink="http://www.w3.org/1999/xlink">
    <!-- Generator: Sketch 39.1 (31720) - http://www.bohemiancoding.com/sketch -->
    <title>buzzfeed</title>
    <desc>Created with Sketch.</desc>
    <defs></defs>
    <g id="Symbols" stroke="none" stroke-width="1" fill="none" fill-rule="evenodd">
        <g id="buzzfeed" fill="#FFFFFF">
            <g id="BuzzFeed" transform="translate(3.000000, 4.000000)">
                <g id="Layer_1">
                    <g id="Group">
                        <path d="M0.0157894737,0.0631578947 C4.3,0.0684210526 8.58421053,0.00526315789 12.8684211,0.1 C16.1684211,0.173684211 18.7526316,2.41578947 19.3105263,5.47894737 C19.9421053,8.94736842 18.1421053,11.9052632 15.3684211,12.7 C15.3,12.7210526 15.2421053,12.7842105 15.1473684,12.8526316 C17.7947368,13.6105263 19.3684211,15.3578947 19.8157895,17.9842105 C20.5421053,22.3105263 18.1578947,25.8684211 13.6473684,26.3684211 C12.6473684,26.4789474 11.6315789,26.4789474 10.6210526,26.4842105 C7.08421053,26.5052632 3.54736842,26.5 0.0105263158,26.5105263 C0.0157894737,17.6947368 0.0157894737,8.87894737 0.0157894737,0.0631578947 L0.0157894737,0.0631578947 Z M5.71052632,21.4578947 C5.78421053,21.4842105 5.85789474,21.5315789 5.93157895,21.5315789 C7.70526316,21.5368421 9.48421053,21.6 11.2578947,21.5157895 C13.0894737,21.4263158 14.1789474,20.3 14.2315789,18.6421053 C14.2789474,16.9736842 13.2736842,15.7736842 11.4789474,15.5578947 C10.3421053,15.4210526 9.18421053,15.4842105 8.03684211,15.4684211 C7.27368421,15.4578947 6.51578947,15.4684211 5.71578947,15.4684211 C5.71052632,17.4842105 5.71052632,19.4315789 5.71052632,21.4578947 L5.71052632,21.4578947 Z M5.66842105,10.5421053 C7.32105263,10.5421053 8.89473684,10.5473684 10.4631579,10.5421053 C10.7631579,10.5421053 11.0736842,10.5421053 11.3684211,10.4842105 C12.4789474,10.2631579 13.3157895,9.69473684 13.6052632,8.53684211 C14.0684211,6.69473684 12.8947368,5.1 10.9842105,5.00526316 C10.0947368,4.96315789 9.20526316,4.99473684 8.31578947,4.99473684 L5.7,4.99473684 C5.68421053,5.18421053 5.66315789,5.3 5.66315789,5.42105263 C5.66842105,7.08947368 5.66842105,8.76315789 5.66842105,10.5421053 L5.66842105,10.5421053 Z" id="Shape"></path>
                        <path d="M102.163158,26.9947368 C101.494737,26.8684211 100.815789,26.7736842 100.157895,26.6157895 C94.9789474,25.3736842 92.3368421,20.9157895 92.7894737,15.9894737 C93.1684211,11.8631579 95.2473684,8.84736842 99.2105263,7.45263158 C104.742105,5.50526316 111.152632,8.13684211 112.1,15.4894737 C112.226316,16.4631579 112.221053,17.4526316 112.278947,18.5210526 L105.089474,18.5210526 L98,18.5210526 C98.3315789,20.3315789 99.2473684,21.6052632 100.836842,22.2789474 C103.426316,23.3789474 105.852632,22.8315789 108.142105,21.3578947 C108.278947,21.2684211 108.4,21.1684211 108.531579,21.0736842 C108.542105,21.0631579 108.568421,21.0736842 108.663158,21.0736842 C109.363158,22.1052632 110.084211,23.1684211 110.9,24.3631579 C110.163158,24.8210526 109.484211,25.3210526 108.742105,25.6947368 C107.378947,26.3789474 105.910526,26.7421053 104.384211,26.8736842 C104.210526,26.8894737 104.042105,26.9526316 103.868421,26.9947368 C103.294737,26.9947368 102.726316,26.9947368 102.163158,26.9947368 L102.163158,26.9947368 Z M107.342105,15.0421053 C107.442105,12.6684211 105.178947,10.8526316 102.315789,10.9684211 C99.9315789,11.0631579 97.8157895,13.0789474 98.0684211,15.0421053 C101.157895,15.0421053 104.252632,15.0421053 107.342105,15.0421053 L107.342105,15.0421053 Z" id="Shape"></path>
                        <path d="M122.663158,26.9947368 C121.836842,26.8263158 121,26.7105263 120.194737,26.4894737 C116.336842,25.4263158 113.673684,22.1578947 113.321053,18.1684211 C112.989474,14.4052632 114.078947,11.2157895 117.1,8.84210526 C121.678947,5.24210526 130.673684,6.06315789 132.463158,14.5736842 C132.589474,15.1842105 132.668421,15.8105263 132.705263,16.4315789 C132.747368,17.0947368 132.715789,17.7578947 132.715789,18.5210526 L125.615789,18.5210526 L118.531579,18.5210526 C118.652632,19.5842105 119.068421,20.4421053 119.752632,21.1473684 C121.321053,22.7684211 123.278947,23.0736842 125.394737,22.7 C126.742105,22.4631579 127.989474,21.9526316 129.105263,20.9894737 C129.857895,22.0947368 130.589474,23.1684211 131.389474,24.3368421 C130.794737,24.7368421 130.257895,25.1578947 129.663158,25.4789474 C128.194737,26.2842105 126.6,26.7105263 124.936842,26.8631579 C124.742105,26.8789474 124.552632,26.9473684 124.363158,26.9894737 C123.794737,26.9947368 123.231579,26.9947368 122.663158,26.9947368 L122.663158,26.9947368 Z M118.563158,15.0368421 L127.847368,15.0368421 C127.968421,12.7368421 125.757895,10.9052632 122.978947,10.9578947 C120.515789,11.0105263 118.384211,12.9578947 118.563158,15.0368421 L118.563158,15.0368421 Z" id="Shape"></path>
                        <path d="M28.7631579,26.9947368 C28.1578947,26.8684211 27.5473684,26.7631579 26.9421053,26.6210526 C23.2105263,25.7315789 21.0105263,22.9421053 21.0052632,19.1 C21,15.4210526 21.0052632,11.7421053 21.0052632,8.06315789 L21.0052632,7.40526316 L26.0473684,7.40526316 L26.0473684,8.10526316 C26.0473684,11.5842105 26.0578947,15.0578947 26.0421053,18.5368421 C26.0368421,20.1157895 26.5157895,21.4473684 28.0105263,22.1368421 C29.6315789,22.8789474 31.2894737,22.8526316 32.7894737,21.7842105 C33.8894737,21.0052632 34.1947368,19.8052632 34.2,18.5210526 C34.2052632,15.0631579 34.2,11.6052632 34.2,8.15263158 L34.2,7.39473684 L39.1894737,7.39473684 L39.1894737,8.07368421 L39.1894737,18.9894737 C39.1894737,23.3789474 36.4526316,26.4 32.0736842,26.8578947 C31.8578947,26.8789474 31.6473684,26.9473684 31.4315789,26.9947368 L28.7631579,26.9947368 L28.7631579,26.9947368 Z" id="Shape"></path>
                        <path d="M76.3736842,26.4473684 L76.3736842,0.0789473684 L94.7157895,0.0789473684 L94.7157895,2.63684211 C94.7157895,3.20526316 94.6789474,3.77368421 94.7263158,4.33157895 C94.7736842,4.88947368 94.5473684,5 94.0368421,4.99473684 C90.4157895,4.97368421 86.8,4.98421053 83.1789474,4.98421053 L82.0368421,4.98421053 L82.0368421,10.5368421 L82.7210526,10.5368421 C85.4526316,10.5368421 88.1789474,10.5526316 90.9105263,10.5263158 C91.4631579,10.5210526 91.5894737,10.6947368 91.5789474,11.2157895 C91.5473684,12.6052632 91.5684211,13.9947368 91.5684211,15.4526316 L82,15.4526316 L82,26.4421053 C80.0894737,26.4473684 78.2631579,26.4473684 76.3736842,26.4473684 L76.3736842,26.4473684 Z" id="Shape"></path>
                        <path d="M133.989474,26.4368421 L133.989474,25.7421053 L133.989474,8.04210526 C133.989474,7.26842105 133.989474,7.26315789 134.789474,7.26842105 C137.557895,7.29473684 140.336842,7.17368421 143.089474,7.38947368 C147.010526,7.69473684 150.084211,9.45789474 151.536842,13.3315789 C153.015789,17.2684211 151.889474,21.7578947 148.889474,24.2157895 C147.121053,25.6631579 145.042105,26.3789474 142.8,26.4578947 C139.952632,26.5631579 137.1,26.4894737 134.252632,26.4947368 C134.194737,26.4947368 134.136842,26.4684211 133.989474,26.4368421 L133.989474,26.4368421 Z M138.8,22.3894737 L141.573684,22.3894737 C144.831579,22.3894737 146.878947,20.5526316 147.242105,17.3157895 C147.505263,14.9894737 146.247368,12.6736842 144.242105,11.8526316 C142.478947,11.1315789 140.631579,11.5157895 138.794737,11.4105263 C138.8,15.1052632 138.8,18.7 138.8,22.3894737 L138.8,22.3894737 Z" id="Shape"></path>
                        <path d="M49.3578947,11.7105263 L40.8157895,11.7105263 L40.8157895,7.38421053 L56.2578947,7.38421053 C56.2578947,8.2 56.2157895,9.02105263 56.2684211,9.83684211 C56.3157895,10.5894737 56.0894737,11.1684211 55.6157895,11.7578947 C53.0473684,14.9526316 50.5210526,18.1842105 47.9789474,21.4 C47.8421053,21.5736842 47.7105263,21.7526316 47.5,22.0315789 L56.3631579,22.0315789 L56.3631579,26.4421053 L40.7684211,26.4421053 C40.7684211,25.2368421 40.7526316,24.0315789 40.7842105,22.8315789 C40.7894737,22.6263158 41,22.4105263 41.1421053,22.2263158 C43.7473684,18.9052632 46.3631579,15.5894737 48.9736842,12.2684211 C49.0789474,12.1263158 49.1736842,11.9736842 49.3578947,11.7105263 L49.3578947,11.7105263 Z" id="Shape"></path>
                        <path d="M57.7421053,11.7157895 L57.7421053,7.84736842 C57.7421053,7.71052632 57.7631579,7.57368421 57.7789474,7.39473684 L73.1736842,7.39473684 C73.1736842,8.55789474 73.1842105,9.7 73.1578947,10.8473684 C73.1526316,11.0210526 72.9842105,11.2 72.8631579,11.3578947 C70.2105263,14.7210526 67.5578947,18.0842105 64.9052632,21.4473684 C64.7736842,21.6157895 64.6578947,21.7894737 64.4526316,22.0736842 L65.2263158,22.0736842 C67.7315789,22.0736842 70.2368421,22.0842105 72.7473684,22.0631579 C73.2105263,22.0578947 73.3842105,22.1736842 73.3736842,22.6684211 C73.3421053,23.9157895 73.3631579,25.1684211 73.3631579,26.4526316 L57.7578947,26.4526316 C57.7578947,25.2052632 57.7473684,23.9789474 57.7684211,22.7526316 C57.7736842,22.6 57.9315789,22.4368421 58.0421053,22.3 C60.5894737,19.0578947 63.1368421,15.8210526 65.6842105,12.5789474 C65.8789474,12.3315789 66.0684211,12.0789474 66.3526316,11.7157895 C63.4105263,11.7157895 60.6210526,11.7157895 57.7421053,11.7157895 L57.7421053,11.7157895 Z" id="Shape"></path>
                    </g>
                </g>
            </g>
        </g>
    </g>
</svg>