<?xml version="1.0" encoding="UTF-8" standalone="no"?>
<svg width="113px" height="35px" viewBox="0 0 113 35" version="1.1" xmlns="http://www.w3.org/2000/svg" xmlns:xlink="http://www.w3.org/1999/xlink">
    <!-- Generator: Sketch 39.1 (31720) - http://www.bohemiancoding.com/sketch -->
    <title>forbes</title>
    <desc>Created with Sketch.</desc>
    <defs></defs>
    <g id="Symbols" stroke="none" stroke-width="1" fill="none" fill-rule="evenodd">
        <g id="forbes" fill="#FFFFFF">
            <g transform="translate(2.000000, 4.000000)" id="Shape">
                <path d="M61.1578947,0.0232686981 L60.8476454,0.0853185596 C60.6770083,0.124099723 58.931856,0.449861496 56.9695291,0.814404432 C55.0072022,1.17894737 53.3240997,1.48919668 53.2310249,1.51246537 C53.0914127,1.5434903 53.0603878,1.59778393 53.0759003,1.84598338 C53.0914127,2.10969529 53.1146814,2.14072022 53.401662,2.20277008 C54.3867036,2.4199446 54.565097,2.49750693 54.9296399,2.86980609 C55.3717452,3.33518006 55.5811634,3.92465374 55.7130194,5.15789474 C55.8138504,6.14293629 55.8371191,23.067036 55.7362881,25.5645429 L55.6819945,27.0459834 L56.4808864,27.2166205 C59.5058172,27.868144 62.5229917,28.0930748 64.4155125,27.8060942 C66.7734072,27.4570637 68.4952909,26.6426593 69.9612188,25.2077562 C72.0554017,23.1368421 73.0637119,20.2049861 72.9861496,16.598338 C72.9085873,14.7445983 72.598338,13.5268698 71.8227147,12.0221607 C70.767867,9.98227147 68.9916898,8.55512465 66.9595568,8.13628809 C65.4470914,7.81828255 63.4847645,8.06648199 62.0033241,8.76454294 C61.6310249,8.93518006 61.2742382,9.07479224 61.2121884,9.07479224 C61.1113573,9.07479224 61.1036011,8.50083102 61.1268698,4.55290859 L61.1578947,0.0232686981 L61.1578947,0.0232686981 Z M0.0698060942,0.542936288 L0.0930747922,1.03157895 L0.11634349,1.51246537 L0.814404432,1.59778393 C1.74592798,1.71412742 2.08642659,1.81495845 2.45872576,2.08642659 C3.03268698,2.49750693 3.38171745,3.10249307 3.59889197,4.0565097 C3.9401662,5.53795014 4.06426593,8.88088643 4.0099723,15.1246537 C3.94792244,21.7252078 3.86260388,23.0980609 3.44376731,24.432133 C3.09473684,25.5257618 2.45096953,26.1074792 1.38914127,26.2858726 C1.09595568,26.33241 0.68099723,26.4099723 0.466925208,26.4565097 L0.0775623269,26.5418283 L0.0775623269,27.3795014 L13.9612188,27.3795014 L13.9612188,26.9529086 C13.9612188,26.7202216 13.9379501,26.5263158 13.9146814,26.5263158 C13.5423823,26.5263158 11.8204986,26.1540166 11.5412742,26.0144044 C10.5562327,25.5180055 10.1063712,24.3390582 9.92797784,21.833795 C9.80387812,20.0498615 9.67977839,14.798892 9.75734072,14.7213296 C9.83490305,14.6437673 13.1080332,14.7756233 13.4958449,14.8686981 C14.5506925,15.1246537 15.3728532,16.1639889 15.7761773,17.7850416 L15.9623269,18.498615 L16.4354571,18.5218837 L16.9085873,18.5451524 L16.9085873,9.5401662 L16.4044321,9.5401662 C15.9313019,9.5401662 15.900277,9.55567867 15.900277,9.71855956 C15.900277,10.0132964 15.6055402,10.9440443 15.3263158,11.5257618 C14.8919668,12.4487535 14.2792244,12.999446 13.4958449,13.1778393 C13.3019391,13.2243767 12.3944598,13.2941828 11.4792244,13.3407202 C10.1916898,13.3950139 9.80387812,13.3950139 9.74958449,13.3174515 C9.66426593,13.1855956 9.86592798,2.97063712 9.966759,2.49750693 L10.0055402,2.31911357 L12.8598338,2.34238227 L15.7063712,2.36565097 L16.365651,2.60609418 C17.901385,3.1567867 19.0105263,4.27368421 19.933518,6.22049861 C20.1351801,6.66260388 20.4066482,7.29861496 20.5229917,7.6398892 C20.6393352,7.98116343 20.7401662,8.27590028 20.7479224,8.28365651 C20.7634349,8.29916898 21.0193906,8.23711911 21.3141274,8.14404432 L21.8648199,7.9734072 L21.8260388,5.44487535 C21.8027701,4.04875346 21.7717452,2.3734072 21.7407202,1.72963989 L21.7019391,0.542936288 L0.0698060942,0.542936288 L0.0698060942,0.542936288 Z M52.0753463,7.69418283 C51.9900277,7.69418283 51.9047091,7.69418283 51.8116343,7.70193906 C49.8880886,7.81052632 48.1739612,9.09030471 46.9484765,11.3396122 C46.7390582,11.7196676 46.5296399,12.0221607 46.4753463,12.0221607 C46.3977839,12.0221607 46.3900277,11.5955679 46.4288089,9.88919668 L46.4831025,7.74847645 L46.2969529,7.79501385 C46.1961219,7.81828255 44.6448753,8.12853186 42.8531856,8.49307479 C39.0060942,9.26094183 38.4709141,9.37728532 38.3855956,9.43157895 C38.3468144,9.45484765 38.3157895,9.59445983 38.3157895,9.74182825 C38.3157895,10.0288089 38.2770083,10.0132964 39.1534626,10.1529086 C40.3556787,10.3468144 40.7745152,10.9362881 40.9529086,12.6426593 C41.1933518,14.8764543 41.100277,23.5711911 40.8288089,24.7578947 C40.6891967,25.3628809 40.33241,25.9523546 39.9756233,26.1540166 C39.8360111,26.2315789 39.4171745,26.3556787 39.0448753,26.433241 L38.3545706,26.565097 L38.3313019,26.9761773 L38.3080332,27.3795014 L49.7174515,27.3795014 L49.7174515,26.5418283 L49.1124654,26.4875346 C47.731856,26.3711911 47.3518006,26.2315789 46.9872576,25.7119114 C46.4598338,24.9518006 46.3434903,23.5479224 46.3434903,17.8703601 L46.3434903,13.433795 L46.5373961,13.2243767 C46.7778393,12.9684211 47.5379501,12.6116343 48.0731302,12.4952909 C49.1590028,12.2703601 50.5551247,12.4642659 51.6409972,12.999446 C51.9512465,13.1545706 52.2227147,13.2631579 52.2382271,13.2476454 C52.2692521,13.2166205 54.0609418,8.49307479 54.1152355,8.29141274 C54.1385042,8.20609418 54.0376731,8.12077562 53.7351801,8.00443213 C53.1689751,7.77950139 52.6725762,7.67867036 52.0753463,7.69418283 L52.0753463,7.69418283 Z M28.8919668,7.75623269 C26.1074792,7.75623269 23.865928,8.62493075 22.1362881,10.3545706 C20.2903047,12.2160665 19.3130194,14.8144044 19.3130194,17.8548476 C19.3130194,21.0193906 20.1972299,23.5711911 21.9113573,25.3551247 C22.8498615,26.3401662 23.7728532,26.9296399 25.0914127,27.4027701 C25.5567867,27.565651 25.8980609,27.6432133 27.1468144,27.8759003 C27.2554017,27.899169 27.9689751,27.899169 28.7368421,27.8836565 C29.7761773,27.8603878 30.3036011,27.8138504 30.7922438,27.7052632 C32.165097,27.3795014 33.266482,26.8908587 34.2437673,26.1617729 C36.632687,24.3778393 37.9357341,21.6476454 38.0598338,18.1883657 C38.1761773,14.7833795 37.1523546,11.8825485 35.1590028,10.0055402 C33.5534626,8.48531856 31.5213296,7.75623269 28.8919668,7.75623269 L28.8919668,7.75623269 Z M84.1551247,7.75623269 C81.5180055,7.75623269 79.3462604,8.63268698 77.6398892,10.3855956 C76.2437673,11.7817175 75.468144,13.3484765 75.0027701,15.5512465 C74.8476454,16.2182825 74.8476454,16.5595568 74.8476454,17.9556787 C74.8476454,19.3440443 74.8476454,19.700831 75.0027701,20.3368421 C75.8559557,24.4088643 78.5706371,27.0847645 82.4487535,27.7750693 C83.3795014,27.9457064 84.8531856,27.9612188 85.7839335,27.8060942 C87.567867,27.5113573 89.3518006,26.6504155 90.5927978,25.4481994 C91.2908587,24.7889197 91.5235457,24.4709141 91.4459834,24.300277 C91.2132964,23.8581717 91.2132964,23.8581717 90.5152355,24.2614958 C89.5069252,24.9052632 88.9639889,25.0836565 87.7229917,25.2155125 C86.3268698,25.3628809 84.9307479,25.1224377 83.767313,24.4864266 C82.9141274,24.06759 81.9058172,23.1058172 81.4404432,22.2371191 C80.8199446,21.0504155 80.432133,19.6698061 80.3545706,17.8936288 C80.2770083,17.1412742 80.2770083,16.9551247 80.3545706,16.900831 C80.432133,16.8620499 82.9916898,16.8310249 86.1717452,16.8310249 L91.833795,16.8310249 L91.833795,16.6060942 C91.833795,16.0941828 91.6786704,14.7290859 91.5235457,14.0077562 C90.9030471,11.1146814 89.3518006,9.05927978 87.0249307,8.22936288 C86.1717452,7.89584488 85.3185596,7.75623269 84.1551247,7.75623269 L84.1551247,7.75623269 Z M101.141274,7.80277008 C99.434903,7.80277008 99.2797784,7.81828255 98.5817175,8.00443213 C96.4875346,8.57063712 94.9362881,9.73407202 94.1606648,11.3551247 C93.7728532,12.2238227 93.6177285,12.8831025 93.6177285,13.9224377 C93.6177285,15.3961219 94.0055402,16.4897507 94.9362881,17.4437673 C95.634349,18.2581717 96.6426593,18.8398892 98.3490305,19.468144 C99.66759,19.9645429 101.063712,20.6470914 101.606648,21.0814404 C101.916898,21.3373961 102.149584,21.632133 102.304709,21.9578947 C102.537396,22.4310249 102.614958,22.4930748 102.614958,23.2299169 C102.614958,23.9434903 102.537396,24.0520776 102.304709,24.5252078 C101.761773,25.7739612 100.598338,26.3867036 99.0470914,26.2626039 C96.9529086,26.0919668 95.4792244,24.7036011 94.2382271,21.7717452 C93.9279778,21.0116343 93.9279778,20.9961219 93.4626039,21.1745152 L93.2299169,21.2598338 L93.3074792,23.9900277 C93.3074792,26.4177285 93.3074792,26.7357341 93.4626039,26.8210526 C93.7728532,27.0847645 96.0221607,27.6121884 97.5734072,27.798338 C98.8144044,27.9457064 100.598338,27.9457064 101.529086,27.8138504 C104.864266,27.3096953 106.958449,25.5412742 107.501385,22.8421053 C107.811634,21.5390582 107.65651,20.0886427 107.191136,19.1191136 C106.570637,17.7617729 105.407202,16.9473684 102.692521,15.7839335 C100.6759,14.9307479 99.434903,14.201662 98.9695291,13.5423823 C98.5041551,13.0072022 98.4265928,12.5883657 98.4265928,11.867036 C98.4265928,10.7811634 98.8144044,9.95124654 99.5900277,9.43157895 C100.288089,8.99722992 101.063712,8.88864266 102.072022,9.11357341 C103.235457,9.39279778 104.088643,10.098615 104.864266,11.4171745 C105.096953,11.8360111 105.639889,13.0149584 105.872576,13.7440443 C105.950139,13.8526316 105.950139,13.8603878 106.260388,13.7828255 C106.415512,13.7285319 106.570637,13.666482 106.648199,13.6354571 L106.648199,11.1689751 L106.570637,8.74903047 L106.260388,8.63268698 C105.795014,8.43102493 104.554017,8.08975069 103.778393,7.94238227 C103.157895,7.82603878 102.614958,7.80277008 101.141274,7.80277008 L101.141274,7.80277008 Z M28.434349,9.07479224 C29.1789474,9.07479224 29.5900277,9.26094183 30.1717452,9.84265928 C31.5601108,11.2465374 32.2193906,13.9146814 32.2116343,18.1108033 C32.2038781,21.4614958 31.8703601,23.5711911 31.1257618,24.998338 C30.7612188,25.6886427 30.0864266,26.3246537 29.5357341,26.4875346 C27.4105263,27.1157895 25.8980609,25.099169 25.3085873,20.8642659 C25.1146814,19.499169 25.1224377,15.7761773 25.3085873,14.2094183 C25.7274238,10.8044321 26.7745152,9.08254848 28.434349,9.07479224 L28.434349,9.07479224 Z M83.767313,9.08254848 C85.0858726,9.07479224 85.9390582,10.9285319 86.0941828,14.3024931 L86.0941828,15.2642659 L84.7756233,15.3108033 C84,15.334072 82.7590028,15.365097 81.9833795,15.3806094 L80.5096953,15.4038781 L80.5096953,15.0936288 C80.5096953,14.9152355 80.5872576,14.465374 80.6648199,14.0775623 C81.1301939,10.9518006 82.2936288,9.08254848 83.767313,9.08254848 L83.767313,9.08254848 Z M63.0193906,10.1218837 C63.6786704,10.1218837 63.7639889,10.1451524 64.3146814,10.4166205 C65.6487535,11.0759003 66.5639889,12.7124654 66.9905817,15.2022161 C67.1457064,16.1252078 67.1689751,18.6382271 67.0216066,19.7396122 C66.6725762,22.4465374 65.7883657,24.633795 64.6094183,25.6963989 C64.1440443,26.1152355 63.7019391,26.3401662 63.1434903,26.4487535 C62.73241,26.5263158 62.6083102,26.5263158 61.8714681,26.4720222 C61.5534626,26.4487535 61.4836565,26.4099723 61.4216066,26.2470914 C61.3207756,25.9833795 61.2044321,16.8930748 61.2509695,13.2631579 L61.2897507,10.4243767 L61.8094183,10.2770083 C62.1506925,10.1761773 62.5540166,10.1218837 63.0193906,10.1218837 L63.0193906,10.1218837 Z"></path>
            </g>
        </g>
    </g>
</svg>