<?xml version="1.0" encoding="UTF-8" standalone="no"?>
<svg width="189px" height="35px" viewBox="0 0 189 35" version="1.1" xmlns="http://www.w3.org/2000/svg" xmlns:xlink="http://www.w3.org/1999/xlink">
    <!-- Generator: Sketch 39.1 (31720) - http://www.bohemiancoding.com/sketch -->
    <title>guardian</title>
    <desc>Created with Sketch.</desc>
    <defs></defs>
    <g id="Symbols" stroke="none" stroke-width="1" fill="none" fill-rule="evenodd">
        <g id="guardian" fill="#FFFFFF">
            <g transform="translate(1.000000, 2.000000)" id="svg2">
                <g>
                    <path d="M12.0925039,7.85438596 L8.27012406,7.85438596 L8.28926787,3.7374269 L2.62908265,4.58654971 L2.62908265,7.76432749 L0.0574314171,8.15672515 L0.0574314171,10.6847953 L2.71203914,10.6847953 L2.69289533,21.7684211 C2.71203914,22.1672515 3.34378473,25.7631579 7.20445221,25.5380117 C11.5820024,25.2807018 11.9584973,24.7789474 12.3477547,24.5152047 C12.3158483,24.5473684 12.3477547,22.3602339 12.3477547,22.3602339 L9.97392277,22.4245614 C9.97392277,22.4245614 8.63385637,22.3345029 8.41689324,20.8356725 C8.41051197,20.8356725 8.37222436,10.7362573 8.37222436,10.7362573 L12.0861227,10.7555556 C12.0925039,10.7491228 12.0925039,7.85438596 12.0925039,7.85438596 L12.0925039,7.85438596 Z" id="path2384"></path>
                    <path d="M20.3179591,0 L12.6795806,1.10643275 L12.6923432,2.57309942 L14.7215866,3.48654971 L14.7407304,22.7204678 L12.8199685,23.4795322 L12.8391124,25.0555556 L22.2131959,25.0684211 L22.2131959,23.4988304 L20.3243404,22.6690058 L20.3371029,11.2959064 C20.3371029,11.2959064 21.409156,10.819883 22.8832291,10.819883 C24.3636834,10.819883 25.0400979,11.7783626 25.0400979,12.3637427 L25.0400979,22.7076023 L23.3107741,23.4795322 L23.3107741,25.0684211 L32.6593325,25.0684211 L32.6593325,23.5438596 L30.7385707,22.5982456 L30.7385707,10.948538 C30.7385707,10.948538 30.7832396,7.2497076 26.5269334,7.42982456 C23.9361384,7.44269006 22.1047143,8.26608187 20.2988153,9.70701754 C20.3051966,9.7005848 20.3051966,0.0128654971 20.3179591,0 L20.3179591,0 Z" id="path2396"></path>
                    <path d="M48.8167045,16.9245614 C49.0336677,13.1292398 48.638029,7.07602339 41.0443194,7.44269006 C33.597379,7.79649123 32.6593325,13.5409357 32.7040014,17.2461988 C33.1315464,23.2415205 36.2009366,25.4672515 41.9568408,25.5573099 C46.5066853,25.402924 48.1594339,22.9842105 48.1594339,22.9842105 L48.1594339,21.3631579 C48.1594339,21.3631579 46.0217089,22.0128655 43.7755024,21.9935673 C38.4599056,21.9549708 38.5237183,16.9181287 38.5237183,16.9181287 L48.8167045,16.9181287 L48.8167045,16.9245614 Z M38.5045745,14.9046784 C38.5045745,14.9046784 38.4726682,12.4602339 38.9576446,10.9035088 C39.346902,9.6619883 40.1254167,9.25672515 41.0251756,9.2502924 C42.5247737,9.2502924 42.9012686,10.0929825 43.0671815,11.1350877 C43.3096698,12.6339181 43.2713821,14.6666667 43.2522383,14.6795322 L38.5045745,14.9046784 L38.5045745,14.9046784 Z" id="Shape"></path>
                    <path d="M63.2383715,21.3502924 L56.455083,21.3502924 C56.455083,21.3502924 55.4404613,21.2409357 55.3957924,20.1988304 C55.3511235,19.1567251 56.0849694,18.8929825 56.0849694,18.8929825 C56.0849694,18.8929825 57.5335174,19.3304094 59.045878,19.3304094 C60.5582387,19.3304094 66.4991997,18.7 66.4991997,13.5152047 C66.4991997,11.1608187 64.6613944,9.81637427 64.6613944,9.81637427 L67.9477477,10.7040936 L67.8903163,7.30116959 L63.1490337,8.18245614 C63.1490337,8.18245614 60.6858641,7.28187135 58.9373965,7.28187135 C57.7632431,7.28187135 51.6882754,7.75146199 51.4713122,13.122807 C51.3181618,16.9181287 54.4896523,18.3333333 54.4705085,18.3333333 C54.4513647,18.3333333 51.4457872,20.2052632 51.4266434,22.5339181 C51.4074996,24.7789474 53.9472445,25.4672515 54.1386825,25.5122807 L54.151445,25.5122807 L54.1386825,25.5122807 C53.8961943,25.505848 50.0036205,26.2391813 50.0036205,28.9988304 C50.0036205,31.6362573 54.3237393,32.9163743 58.8991089,32.9421053 C63.4808597,32.9614035 68.5092993,31.6555556 68.5092993,26.194152 C68.5092993,20.7327485 63.2383715,21.3502924 63.2383715,21.3502924 L63.2383715,21.3502924 Z M58.8927276,9.34678363 C60.9985462,9.33391813 61.0113088,11.5339181 61.01769,12.4602339 L61.01769,14.1070175 C61.01769,14.1070175 61.2984658,17.0660819 59.0714031,17.0789474 C56.8443404,17.0918129 56.9145343,15.3614035 56.9145343,14.1070175 L56.9145343,12.1707602 C56.9145343,12.1707602 56.7932902,9.35964912 58.8927276,9.34678363 L58.8927276,9.34678363 Z M58.9054901,30.8450292 C55.7722873,30.8450292 54.649184,29.5584795 54.649184,28.3169591 C54.649184,27.0754386 55.4149362,26.5672515 55.4149362,26.5672515 L62.204606,26.554386 C62.204606,26.554386 63.5574349,26.7087719 63.5574349,27.9052632 C63.5638162,29.7450292 62.038693,30.8450292 58.9054901,30.8450292 L58.9054901,30.8450292 Z" id="Shape"></path>
                    <path d="M76.128534,7.39766082 L68.4837742,8.59415205 L68.4837742,10.0994152 L70.449205,11.0578947 L70.449205,20.745614 C70.449205,20.745614 70.5513053,25.505848 75.177725,25.5573099 C78.9362922,25.6023392 80.8123851,22.9649123 80.8123851,22.9649123 L80.8123851,25.5122807 L88.2210379,24.6181287 L88.2210379,23.2479532 L86.3258012,22.1479532 L86.3258012,7.44269006 L78.7129478,8.63918129 L78.7129478,10.0736842 L80.7230474,11.0964912 L80.7230474,21.4403509 C80.7230474,21.4403509 80.2061646,21.8777778 78.5406535,22.0064327 C76.8751424,22.1350877 76.1221527,20.5461988 76.1221527,20.5461988 L76.128534,7.39766082 L76.128534,7.39766082 L76.128534,7.39766082 Z" id="path3188"></path>
                    <path d="M89.79083,8.63918129 C89.79083,8.63918129 93.4409156,7.30116959 96.4464931,7.30116959 C99.4520706,7.30116959 103.810477,8.33040936 103.810477,12.1064327 L103.810477,22.5596491 L105.673807,23.5438596 L105.673807,24.7918129 C105.673807,24.7918129 104.346504,25.5122807 102.387454,25.5122807 C100.434786,25.5122807 98.7373685,24.5087719 98.7373685,23.0035088 C98.3098235,23.0099415 98.1566731,25.480117 93.5749222,25.480117 C88.2274192,25.480117 88.6422016,20.7070175 88.6422016,20.6169591 C88.6422016,20.5269006 88.4890512,17.0532164 92.381625,16.3070175 C96.22953,15.5672515 98.0162852,15.2777778 98.0162852,15.2777778 L97.9971414,11.7654971 C97.9971414,11.7654971 97.6780779,9.64269006 95.8594164,9.65555556 C94.0407548,9.66842105 94.0598987,9.6877193 94.0598987,9.6877193 L92.7772637,13.2128655 L89.7716862,13.2128655 L89.79083,8.63918129 L89.79083,8.63918129 Z M98.1630543,21.794152 L98.1630543,17.0532164 C98.1630543,17.0532164 94.3279119,16.705848 94.3215307,19.8 C94.3151494,22.128655 95.7700786,22.3988304 96.4273493,22.3988304 C97.1867203,22.3538012 97.6908405,22.0836257 98.1630543,21.794152 L98.1630543,21.794152 Z" id="path3190"></path>
                    <path d="M113.490861,7.23684211 L106.024777,8.42046784 L106.024777,9.99005848 L107.95192,10.9163743 L107.95192,22.5725146 L106.165165,23.4988304 L106.165165,24.9783626 L115.9987,24.9783626 L115.9987,23.5631579 L113.644012,22.6111111 L113.656774,12.9877193 C113.656774,12.9877193 115.156373,12.3894737 116.662352,12.3894737 C118.174713,12.3894737 118.921321,12.5567251 118.921321,12.5567251 L118.921321,7.51988304 C118.921321,7.51988304 115.717924,6.50994152 113.452574,11.0128655 C113.458955,11.025731 113.490861,7.23684211 113.490861,7.23684211 L113.490861,7.23684211 Z" id="path3195"></path>
                    <path d="M128.289023,1.49883041 L128.289023,3.02339181 L130.165116,3.93040936 L130.165116,8.05380117 C130.165116,8.05380117 128.850575,7.42339181 127.261639,7.42339181 C125.672703,7.42339181 119.182953,7.66783626 118.997896,16.6608187 C118.812839,25.6538012 125.749278,25.5251462 125.685466,25.5251462 C125.621653,25.5251462 128.863337,25.6152047 130.331029,23.7111111 C130.324648,23.7111111 130.318267,25.5187135 130.318267,25.5187135 L137.656725,24.6181287 L137.656725,23.1578947 L135.895495,22.2508772 L135.882733,0.295906433 L128.289023,1.49883041 L128.289023,1.49883041 Z M130.158735,10.4081871 L130.158735,22.0900585 C130.158735,22.0900585 129.552514,22.3988304 128.42303,22.3988304 C126.591606,22.3988304 125.034576,21.1380117 125.047339,17.0853801 C125.060101,13.5473684 125.570603,10.7619883 127.108489,10.0350877 C128.646374,9.31461988 130.088541,10.3116959 130.158735,10.4081871 L130.158735,10.4081871 Z" id="path3197"></path>
                    <path d="M146.022569,3.16491228 C146.022569,4.90175439 144.625071,6.31052632 142.902128,6.31052632 C141.179186,6.31052632 139.781688,4.90175439 139.781688,3.16491228 C139.781688,1.42807018 141.179186,0.0192982456 142.902128,0.0192982456 C144.625071,0.0192982456 146.022569,1.42807018 146.022569,3.16491228 L146.022569,3.16491228 Z M145.888562,7.30760234 L138.135321,8.42046784 L138.135321,9.92573099 L140.164564,10.9292398 L140.164564,22.5982456 L138.307615,23.4473684 L138.307615,25.0362573 L147.63703,25.0362573 L147.63703,23.5116959 L145.863037,22.6432749 L145.888562,7.30760234 L145.888562,7.30760234 Z" id="path3220"></path>
                    <path d="M149.430166,8.61988304 C149.430166,8.61988304 153.080252,7.28187135 156.085829,7.28187135 C159.091407,7.28187135 163.449813,8.31111111 163.449813,12.0871345 L163.449813,22.5403509 L165.313143,23.5245614 L165.313143,24.7660819 C165.313143,24.7660819 163.98584,25.4929825 162.02679,25.4929825 C160.074122,25.4929825 158.376705,24.4894737 158.376705,22.9842105 C157.94916,22.9906433 157.796009,25.4608187 153.214258,25.4608187 C147.866755,25.4608187 148.281538,20.6877193 148.281538,20.5976608 C148.281538,20.5076023 148.128387,17.0339181 152.020961,16.2877193 C155.868866,15.5479532 157.655621,15.2584795 157.655621,15.2584795 L157.636477,11.7461988 C157.636477,11.7461988 157.317414,9.62339181 155.498752,9.63625731 C153.680091,9.64912281 153.699235,9.66842105 153.699235,9.66842105 L152.4166,13.1935673 L149.411022,13.1935673 L149.430166,8.61988304 L149.430166,8.61988304 Z M157.808772,21.7748538 L157.808772,17.0339181 C157.808772,17.0339181 153.973629,16.6865497 153.967248,19.7807018 C153.960867,22.1093567 155.415796,22.3795322 156.073067,22.3795322 C156.832438,22.3345029 157.330176,22.0643275 157.808772,21.7748538 L157.808772,21.7748538 Z" id="path3224"></path>
                    <path d="M173.213154,7.26900585 L165.587538,8.49122807 L165.587538,9.95146199 L167.642306,10.9292398 L167.642306,22.6883041 L165.766214,23.4473684 L165.766214,25.0812865 L175.095628,25.0812865 L175.095628,23.4730994 L173.366304,22.6432749 L173.366304,11.2701754 C173.366304,11.2701754 174.29797,10.8327485 175.65718,10.8327485 C177.01639,10.8327485 178.075681,11.4438596 178.075681,12.7947368 L178.075681,22.6368421 L176.1613,23.5824561 L176.154919,25.0298246 L185.656628,25.0298246 L185.656628,23.4859649 L183.799678,22.7011696 L183.799678,11.7976608 C183.799678,11.7976608 183.927304,7.44269006 179.543372,7.44269006 C175.159441,7.44269006 173.238679,9.77134503 173.238679,9.77134503 L173.213154,7.26900585 L173.213154,7.26900585 Z" id="path3228"></path>
                </g>
            </g>
        </g>
    </g>
</svg>